<?xml version="1.0" encoding="iso-8859-1"?>
<!DOCTYPE svg PUBLIC "-//W3C//DTD SVG 1.1//EN" "http://www.w3.org/Graphics/SVG/1.1/DTD/svg11.dtd">
<svg version="1.1" id="Layer_1" xmlns="http://www.w3.org/2000/svg" xmlns:xlink="http://www.w3.org/1999/xlink" x="0px" y="0px"
	 width="40px" height="40px" viewBox="0 0 40 40" enable-background="new 0 0 40 40" xml:space="preserve">
<rect x="0" y="0" fill="#EDEDED" width="40" height="40"/>
<path fill="#0099DA" d="M34.5,40c0,0-0.01-2.52,0-4.27c0.01-3.26-0.62-3.17-4.46-5.1c-2.04-1.02-4.53-2.13-5.92-3.24
	c-0.3-1.74-0.14-0.78-0.27-2.49c1.11-1.14,1.15-0.81,1.47-3.15c0,0,0.04-0.19,0.11-0.49c0.25-0.01,0.33,0.04,0.47-0.01
	c0.29-0.11,0.7-2.31,0.77-2.93c0.07-0.62-0.02-0.77-0.28-0.77c-0.08-0.01-0.15-0.01-0.21-0.01c-0.02-0.25-0.03-0.48-0.04-0.7h0.01
	c-0.02-0.65-0.04-1.32-0.02-1.79c-0.11-1.13-1.01-4.45-3.46-5.19c-4.76-1.44-6.35-0.14-7.71,1.7c-1.52,1.04-0.8,1.76-1.11,5.99
	c-0.06,0-0.13,0-0.21,0.01c-0.26,0-0.35,0.35-0.28,0.98c0.07,0.62,0.53,2.57,0.82,2.67c0.14,0.05,0.16,0.05,0.42,0.06
	c0.06,0.3,0.11,0.49,0.11,0.49c0.32,2.34,0.36,2.01,1.47,3.15c-0.12,1.71,0.03,0.75-0.27,2.49c-1.39,1.11-3.89,2.22-5.92,3.24
	c-3.85,1.92-4.48,1.84-4.46,5.1c0.01,1.75,0,4.27,0,4.27H34.5z"/>
</svg>
