<?xml version="1.0" encoding="iso-8859-1"?>
<!-- Generator: Adobe Illustrator 13.0.2, SVG Export Plug-In . SVG Version: 6.00 Build 14948)  -->
<!DOCTYPE svg PUBLIC "-//W3C//DTD SVG 1.1//EN" "http://www.w3.org/Graphics/SVG/1.1/DTD/svg11.dtd">
<svg version="1.1" id="Ebene_1" xmlns="http://www.w3.org/2000/svg" xmlns:xlink="http://www.w3.org/1999/xlink" x="0px" y="0px"
	 width="15px" height="15px" viewBox="0 0 15 15" enable-background="new 0 0 15 15" xml:space="preserve">
<g>
	<rect fill="none" width="15" height="15"/>
	<rect x="1.5" y="1.5" fill="none" width="12" height="12"/>
	<rect fill="none" width="15" height="15"/>
	<path fill="#FFFFFF" d="M7.5,1.88c-3.11,0-5.63,2.52-5.63,5.62c0,3.11,2.52,5.62,5.63,5.62c3.11,0,5.62-2.52,5.62-5.62
		C13.13,4.39,10.61,1.88,7.5,1.88z M8.91,11.16H6.88c-1.55,0-2.81-1.31-2.81-2.92V4.18c0-0.39,0.31-0.7,0.7-0.7s0.7,0.31,0.7,0.7
		v4.05c0,0.84,0.63,1.52,1.41,1.52h2.03c0.78,0,1.41-0.68,1.41-1.52c0-0.84-0.63-1.52-1.41-1.52H6.8c-0.39,0-0.7-0.32-0.7-0.7
		c0-0.39,0.31-0.7,0.7-0.7h2.11c1.55,0,2.81,1.31,2.81,2.92C11.72,9.84,10.46,11.16,8.91,11.16z"/>
</g>
</svg>
