<?xml version="1.0" encoding="iso-8859-1"?>
<!-- Generator: Adobe Illustrator 14.0.0, SVG Export Plug-In . SVG Version: 6.00 Build 43363)  -->
<!DOCTYPE svg PUBLIC "-//W3C//DTD SVG 1.1 Basic//EN" "http://www.w3.org/Graphics/SVG/1.1/DTD/svg11-basic.dtd">
<svg version="1.1" baseProfile="basic" id="Ebene_1"
	 xmlns="http://www.w3.org/2000/svg" xmlns:xlink="http://www.w3.org/1999/xlink" x="0px" y="0px" width="25px" height="25px"
	 viewBox="0 0 25 25" xml:space="preserve">
<g>
	<path fill="#FDCE33" d="M9.46,11.01l-1.52,1.52c0.16-0.05,0.34-0.08,0.53-0.08c0.49,0,0.97,0.21,1.34,0.58v0l0.83-0.83L9.46,11.01z
		 M12.82,3.85c-4.96,0-8.97,4.02-8.97,8.97c0,1.12,0.21,2.18,0.58,3.16c0.23-0.42,0.51-0.8,0.86-1.15l1.81-1.81
		c0.06-0.07,0.21-0.2,0.43-0.32l-0.79-0.79L9.46,9.2l2.36,2.36c0.09-0.01,0.18-0.02,0.28-0.02c0.38,0,0.75,0.13,1.07,0.35l2.7-2.7
		l2.72,2.72l-0.91,0.91l-1.81-1.81l-1.96,1.93c0.31,0.09,0.65,0.29,0.89,0.53c0.37,0.37,0.58,0.85,0.58,1.34
		c0,0.33-0.09,0.62-0.2,0.85c0.02,0.01,0.03,0.03,0.05,0.04c0.37,0.37,0.57,0.81,0.59,1.28c0.21-0.15,0.4-0.31,0.58-0.49l0.9,0.91
		c-0.7,0.69-1.56,1.22-2.52,1.53l-2.7,2.7c-0.04,0.04-0.09,0.08-0.13,0.12c0.28,0.03,0.57,0.04,0.86,0.04
		c4.96,0,8.97-4.02,8.97-8.98C21.79,7.87,17.78,3.85,12.82,3.85z M8.91,13.93c0.45,0.45,0,0.91,0,0.91l-0.91,0.91l0.46,0.45
		l3.17-3.17c0,0,0.45-0.45,0.91,0c0.45,0.45,0.01,0.9,0.01,0.9l-2.72,2.73l0.45,0.45l2.72-2.72c0,0,0.45-0.45,0.91,0
		c0.45,0.45,0,0.91,0,0.91l-2.72,2.72l0.45,0.45l1.81-1.81c0,0,0.45-0.45,0.88-0.03c0.48,0.48,0.03,0.94,0.03,0.94l-3.17,3.17
		c-1.4,1.4-3.65,1.42-5.03,0.04c-1.38-1.38-1.36-3.63,0.04-5.03l1.81-1.81C8.01,13.93,8.46,13.48,8.91,13.93z"/>
	<path fill="#FDCE33" d="M9.46,11.01l-1.52,1.52c0.16-0.05,0.34-0.08,0.53-0.08c0.49,0,0.97,0.21,1.34,0.58v0l0.83-0.83L9.46,11.01z
		"/>
	<path fill="#FDCE33" d="M8.91,13.93c0.45,0.45,0,0.91,0,0.91l-0.91,0.91l0.46,0.45l3.17-3.17c0,0,0.45-0.45,0.91,0
		c0.45,0.45,0.01,0.9,0.01,0.9l-2.72,2.73l0.45,0.45l2.72-2.72c0,0,0.45-0.45,0.91,0c0.45,0.45,0,0.91,0,0.91l-2.72,2.72l0.45,0.45
		l1.81-1.81c0,0,0.45-0.45,0.88-0.03c0.48,0.48,0.03,0.94,0.03,0.94l-3.17,3.17c-1.4,1.4-3.65,1.42-5.03,0.04
		c-1.38-1.38-1.36-3.63,0.04-5.03l1.81-1.81C8.01,13.93,8.46,13.48,8.91,13.93z"/>
	<path d="M15.74,17.64c-0.13,0.44-0.38,0.72-0.49,0.82l-0.47,0.47c0.96-0.3,1.82-0.84,2.52-1.53l-0.9-0.91
		c-0.18,0.18-0.38,0.34-0.58,0.49C15.83,17.2,15.81,17.42,15.74,17.64z"/>
	<path d="M6.74,11.92l0.79,0.79c0.12-0.07,0.25-0.13,0.41-0.17l1.52-1.52l1.19,1.19l0.08-0.08c0.12-0.12,0.51-0.47,1.1-0.56
		L9.46,9.2L6.74,11.92z"/>
	<path d="M15.87,9.2l-2.7,2.7c0.1,0.07,0.19,0.14,0.27,0.23c0.24,0.24,0.4,0.52,0.5,0.82l1.93-1.93l1.81,1.81l0.91-0.91L15.87,9.2z"
		/>
</g>
</svg>
