<?xml version="1.0" encoding="iso-8859-1"?>
<!-- Generator: Adobe Illustrator 14.0.0, SVG Export Plug-In . SVG Version: 6.00 Build 43363)  -->
<!DOCTYPE svg PUBLIC "-//W3C//DTD SVG 1.1 Basic//EN" "http://www.w3.org/Graphics/SVG/1.1/DTD/svg11-basic.dtd">
<svg version="1.1" baseProfile="basic" id="Ebene_1"
	 xmlns="http://www.w3.org/2000/svg" xmlns:xlink="http://www.w3.org/1999/xlink" x="0px" y="0px" width="25px" height="25px"
	 viewBox="0 0 25 25" xml:space="preserve">
<g>
	<circle fill="#FDCE33" cx="12.82" cy="12.82" r="8.97"/>
	<rect x="14.1" y="8.97" width="1.28" height="2.56"/>
	<polygon points="7.69,9.62 9.62,6.41 10.9,6.41 8.97,9.62 	"/>
	<rect x="10.25" y="8.97" width="1.28" height="2.56"/>
	<path d="M12.47,16.52c-0.8-0.81-1.57-0.57-1.57,0.86l-1.28-0.04c0.07-2.44,2.05-3.45,3.76-1.72c0.89,0.9,1.47,0.13,1.49-0.3
		l1.28,0.04C16.11,16.69,14.27,18.32,12.47,16.52z"/>
	<polygon points="16.67,9.62 14.74,6.41 16.03,6.41 17.95,9.62 	"/>
</g>
</svg>
