<?xml version="1.0" encoding="iso-8859-1"?>
<!-- Generator: Adobe Illustrator 14.0.0, SVG Export Plug-In . SVG Version: 6.00 Build 43363)  -->
<!DOCTYPE svg PUBLIC "-//W3C//DTD SVG 1.1 Basic//EN" "http://www.w3.org/Graphics/SVG/1.1/DTD/svg11-basic.dtd">
<svg version="1.1" baseProfile="basic" id="Ebene_1"
	 xmlns="http://www.w3.org/2000/svg" xmlns:xlink="http://www.w3.org/1999/xlink" x="0px" y="0px" width="25px" height="25px"
	 viewBox="0 0 25 25" xml:space="preserve">
<g>
	<path fill="#FDCE33" d="M12.82,3.85c-4.96,0-8.97,4.02-8.97,8.97c0,4.96,4.02,8.98,8.97,8.98c4.96,0,8.97-4.02,8.97-8.98
		C21.79,7.87,17.78,3.85,12.82,3.85z"/>
	<rect x="15.38" y="8.98" width="1.28" height="3.85"/>
	<rect x="8.97" y="8.98" width="1.28" height="3.85"/>
	<path d="M12.83,19.24c-2.25,0-4.2-1.18-5.33-2.94l0.93-0.92c0.88,1.54,2.51,2.59,4.41,2.59c1.89,0,3.52-1.04,4.4-2.57l0.91,0.91
		C17.02,18.06,15.08,19.24,12.83,19.24z"/>
</g>
</svg>
