<?xml version="1.0" encoding="iso-8859-1"?>
<!-- Generator: Adobe Illustrator 14.0.0, SVG Export Plug-In . SVG Version: 6.00 Build 43363)  -->
<!DOCTYPE svg PUBLIC "-//W3C//DTD SVG 1.1 Basic//EN" "http://www.w3.org/Graphics/SVG/1.1/DTD/svg11-basic.dtd">
<svg version="1.1" baseProfile="basic" id="Ebene_1"
	 xmlns="http://www.w3.org/2000/svg" xmlns:xlink="http://www.w3.org/1999/xlink" x="0px" y="0px" width="25px" height="25px"
	 viewBox="0 0 25 25" xml:space="preserve">
<g>
	<polygon fill="#0064C6" points="21.79,3.85 21.79,11.54 14.1,3.85 	"/>
	<path fill="#FDCE33" d="M20.89,12.45l-3.58-3.58v2.67h-1.28V7.69h0.11L13.2,4.75l-0.88-0.88c-4.72,0.26-8.47,4.16-8.47,8.95
		c0,4.96,4.02,8.98,8.97,8.98c4.79,0,8.68-3.75,8.95-8.47L20.89,12.45z"/>
	<rect x="9.62" y="7.69" width="1.28" height="3.85"/>
	<path d="M13.71,18.55c-1.1-0.03-2.12-0.35-3-0.87c-0.56,0.22-1.21,0.27-1.72,0.27c-1.37,0-2.58-0.65-2.58-2.25
		c0-0.9,0.5-1.7,1.29-2.23l0,0c0-0.01,0-0.01,0-0.02H9c0.56,2.13,2.43,3.72,4.71,3.81V18.55z"/>
	<polygon points="16.03,7.69 16.03,11.54 17.31,11.54 17.31,8.87 16.13,7.69 	"/>
</g>
</svg>
