<?xml version="1.0" encoding="iso-8859-1"?>
<!-- Generator: Adobe Illustrator 13.0.0, SVG Export Plug-In . SVG Version: 6.00 Build 14948)  -->
<!DOCTYPE svg PUBLIC "-//W3C//DTD SVG 1.1//EN" "http://www.w3.org/Graphics/SVG/1.1/DTD/svg11.dtd">
<svg version="1.1" id="Ebene_1" xmlns="http://www.w3.org/2000/svg" xmlns:xlink="http://www.w3.org/1999/xlink" x="0px" y="0px"
	 width="27px" height="27px" viewBox="0 0 27 27" enable-background="new 0 0 27 27" xml:space="preserve">
<g>
	<g>
		<path fill="#FFFFFF" d="M13.4,5.8c-4.17,0-7.57,3.39-7.57,7.57c0,4.17,3.39,7.57,7.57,7.57c4.17,0,7.57-3.39,7.57-7.57
			C20.97,9.19,17.57,5.8,13.4,5.8z M15.94,9.56h1.26v3.79h-1.26V9.56z M9.64,9.56h1.26v3.79H9.64V9.56z M13.42,19.66
			c-3.03,0-5.51-2.17-6.11-5.02h1.28c0.57,2.16,2.5,3.76,4.84,3.76c2.33,0,4.27-1.61,4.84-3.76h1.27
			C18.94,17.49,16.45,19.66,13.42,19.66z"/>
	</g>
</g>
</svg>
