<?xml version="1.0" encoding="iso-8859-1"?>
<!-- Generator: Adobe Illustrator 14.0.0, SVG Export Plug-In . SVG Version: 6.00 Build 43363)  -->
<!DOCTYPE svg PUBLIC "-//W3C//DTD SVG 1.1 Basic//EN" "http://www.w3.org/Graphics/SVG/1.1/DTD/svg11-basic.dtd">
<svg version="1.1" baseProfile="basic" id="Ebene_1"
	 xmlns="http://www.w3.org/2000/svg" xmlns:xlink="http://www.w3.org/1999/xlink" x="0px" y="0px" width="25px" height="25px"
	 viewBox="0 0 25 25" xml:space="preserve">
<g>
	<path fill="#FDCE33" d="M19.9,12.73l-1.08,1.11l-1.08-1.11l-2.22-2.27c-0.07-0.06-0.13-0.13-0.2-0.2l-0.03-0.03l-0.06-0.08
		c-0.44-0.55-0.67-1.21-0.67-1.9c0-1.68,1.36-3.03,3.04-3.03c0.11,0,0.22,0.02,0.34,0.04c-1.52-1.14-3.39-1.82-5.43-1.82
		c-0.02,0-0.03,0-0.05,0c0.46,0.62,0.74,1.37,0.74,2.19c0,0.98-0.38,1.91-1.06,2.6l-3.51,3.43l-1.05,1.03L6.5,11.66l-2.46-2.4
		c-0.38,1.01-0.61,2.1-0.61,3.24c0,5.01,4.06,9.07,9.07,9.07s9.07-4.06,9.07-9.07c0-0.46-0.05-0.91-0.11-1.36L19.9,12.73z"/>
	<path fill="#E60000" d="M11.04,7.17L11.04,7.17l-0.01,0.01l-0.01,0.01l-3.47,3.39L4.08,7.19c0,0,0,0,0,0l0-0.01l0,0
		c-0.39-0.4-0.64-0.94-0.64-1.55c0-1.21,0.98-2.2,2.2-2.2c0.84,0,1.55,0.47,1.93,1.16c0.37-0.68,1.09-1.16,1.92-1.16
		c1.21,0,2.2,0.98,2.2,2.2C11.67,6.23,11.43,6.77,11.04,7.17z M21.22,9.21L21.22,9.21l-0.05,0.06c-0.04,0.04-0.07,0.08-0.11,0.11
		l-2.25,2.3l-2.24-2.29c-0.04-0.04-0.08-0.08-0.12-0.12l-0.05-0.05h0.01c-0.21-0.26-0.34-0.59-0.34-0.95c0-0.84,0.68-1.53,1.53-1.53
		c0.5,0,0.94,0.25,1.22,0.62c0.28-0.37,0.72-0.62,1.22-0.62c0.84,0,1.53,0.68,1.53,1.53C21.57,8.62,21.43,8.95,21.22,9.21z"/>
	<path d="M11.88,18.96c-3.11,0-5.66-2.22-6.28-5.15h1.32c0.58,2.22,2.57,3.87,4.97,3.87c2.4,0,4.38-1.65,4.97-3.87h1.3
		C17.54,16.74,14.99,18.96,11.88,18.96z"/>
	<path d="M8.94,12.5h1.3v-2.43l-1.3,1.27V12.5z M15.3,10.23l-0.06-0.08c-0.06-0.08-0.11-0.16-0.16-0.24h-1.06v2.59h1.29L15.3,10.23
		L15.3,10.23z"/>
</g>
</svg>
