<?xml version="1.0" encoding="iso-8859-1"?>
<!-- Generator: Adobe Illustrator 14.0.0, SVG Export Plug-In . SVG Version: 6.00 Build 43363)  -->
<!DOCTYPE svg PUBLIC "-//W3C//DTD SVG 1.1 Basic//EN" "http://www.w3.org/Graphics/SVG/1.1/DTD/svg11-basic.dtd">
<svg version="1.1" baseProfile="basic" id="Ebene_1"
	 xmlns="http://www.w3.org/2000/svg" xmlns:xlink="http://www.w3.org/1999/xlink" x="0px" y="0px" width="25px" height="25px"
	 viewBox="0 0 25 25" xml:space="preserve">
<g>
	<circle fill="#FDCE33" cx="12.79" cy="12.64" r="9"/>
	<rect x="14.08" y="8.78" width="1.29" height="1.93"/>
	<path d="M10.22,7.5v1.28c-1.07,0-1.93,0.87-1.93,1.93H7.01C7.01,8.94,8.45,7.5,10.22,7.5z"/>
	<rect x="9.58" y="10.07" width="1.28" height="1.93"/>
	<path d="M16.62,17.23c-0.47,0.57-1.31,1.2-2.49,1.2h-0.01c-1.31,0-1.99-0.93-2.44-1.54c-0.51-0.67-0.79-1.03-1.41-1.03
		c-1.08-0.01-1.63,0.8-1.87,1.27c-0.07,0.15-0.09,0.22-0.09,0.22l-1.22-0.41c0.01-0.05,0.2-0.59,0.68-1.17
		c0.47-0.58,1.31-1.2,2.5-1.19c1.3,0,1.99,0.93,2.44,1.54c0.51,0.67,0.79,1.03,1.42,1.03c1.08,0.01,1.62-0.81,1.86-1.27
		c0.07-0.14,0.1-0.21,0.1-0.21l1.22,0.41C17.28,16.1,17.1,16.65,16.62,17.23z"/>
	<path d="M16.65,9.43c0-1.07-0.86-1.93-1.93-1.93V6.21c1.78,0,3.22,1.44,3.22,3.22H16.65z"/>
</g>
</svg>
