<?xml version="1.0" encoding="iso-8859-1"?>
<!-- Generator: Adobe Illustrator 14.0.0, SVG Export Plug-In . SVG Version: 6.00 Build 43363)  -->
<!DOCTYPE svg PUBLIC "-//W3C//DTD SVG 1.1 Basic//EN" "http://www.w3.org/Graphics/SVG/1.1/DTD/svg11-basic.dtd">
<svg version="1.1" baseProfile="basic" id="Ebene_1"
	 xmlns="http://www.w3.org/2000/svg" xmlns:xlink="http://www.w3.org/1999/xlink" x="0px" y="0px" width="25px" height="25px"
	 viewBox="0 0 25 25" xml:space="preserve">
<g>
	<path fill="#FDCE33" d="M12.82,3.85c-4.64,0-8.46,3.53-8.93,8.05c0.2-0.06,0.4-0.1,0.64-0.1c0.02,0,0.04,0,0.06,0
		c0.24-0.7,0.86-1.28,1.82-1.28c0.37,0,0.69,0.09,0.96,0.24c0.27-0.15,0.59-0.24,0.96-0.24c1.24,0,1.92,0.99,1.92,1.92V8.95h1.28
		v3.85h-1.28v0.92c1.25,0,1.92,0.99,1.92,1.92v2.25c0.22,0.03,0.45,0.05,0.67,0.05c2.37,0,4.34-1.63,4.92-3.82h1.29
		c-0.61,2.9-3.14,5.1-6.21,5.1c-0.26,0-0.51-0.02-0.76-0.05c-0.18,0.92-0.62,1.75-1.25,2.41c0.64,0.14,1.3,0.23,1.98,0.23
		c4.96,0,8.97-4.02,8.97-8.98C21.79,7.87,17.78,3.85,12.82,3.85z"/>
	<rect x="15.4" y="8.95" width="1.28" height="3.85"/>
	<rect x="10.26" y="8.95" width="1.28" height="3.85"/>
	<path fill="#FDCE33" d="M10.9,15.64v2.56c0,1.98-1.58,3.59-3.53,3.59c-1.95,0-3.53-1.61-3.53-3.59v-4.49c0,0,0-0.64,0.69-0.64
		c0.6,0,0.6,0.64,0.6,0.64v2.56h0.64v-3.85c0,0,0-0.64,0.64-0.64c0.64,0,0.64,0.64,0.64,0.64v3.85h0.64v-3.85c0,0,0-0.63,0.64-0.63
		c0.64,0,0.64,0.64,0.64,0.64v4.49h0.64v-1.28c0,0,0-0.64,0.64-0.64S10.9,15.64,10.9,15.64z"/>
	<path d="M17.95,12.82c0,2.83-2.3,5.13-5.13,5.13c-0.22,0-0.43-0.02-0.64-0.04v0.3c0,0.34-0.04,0.66-0.1,0.98
		c0.24,0.03,0.49,0.04,0.74,0.04c3.54,0,6.41-2.87,6.41-6.41H17.95z"/>
</g>
</svg>
