<?xml version="1.0" encoding="iso-8859-1"?>
<!-- Generator: Adobe Illustrator 14.0.0, SVG Export Plug-In . SVG Version: 6.00 Build 43363)  -->
<!DOCTYPE svg PUBLIC "-//W3C//DTD SVG 1.1 Basic//EN" "http://www.w3.org/Graphics/SVG/1.1/DTD/svg11-basic.dtd">
<svg version="1.1" baseProfile="basic" id="Ebene_1"
	 xmlns="http://www.w3.org/2000/svg" xmlns:xlink="http://www.w3.org/1999/xlink" x="0px" y="0px" width="25px" height="25px"
	 viewBox="0 0 25 25" xml:space="preserve">
<g>
	<path fill="#FDCE33" d="M20.09,10.79c-1.12,0-2.07-0.68-2.55-1.81L17.5,8.91l-0.02-0.07l-0.96-3.23l-0.38-1.26
		c-1.03-0.41-2.15-0.64-3.33-0.64c-4.97,0-9.01,4.03-9.01,9.01s4.03,9.01,9.01,9.01c4.97,0,9.01-4.03,9.01-9.01
		c0-0.8-0.11-1.58-0.31-2.32C21.06,10.65,20.58,10.79,20.09,10.79z"/>
	<path d="M14.1,8.85h1.29v2.58H14.1V8.85z M10.24,8.85h1.29v2.58h-1.29V8.85z M16.67,17.86c-1.07-0.8-2.4-1.28-3.84-1.28
		c-1.45,0-2.78,0.48-3.85,1.29C8.63,17.61,8.31,17.32,8.02,17c1.32-1.06,2.99-1.71,4.81-1.71c1.82,0,3.47,0.64,4.79,1.69
		C17.33,17.3,17.02,17.6,16.67,17.86z"/>
	<path fill="#0099DA" d="M20.9,6.46c1.24,0.65,1.1,1.89,0.35,2.56c-0.75,0.67-1.98,0.74-2.53-0.55l-0.96-3.23L20.9,6.46z"/>
</g>
</svg>
