<?xml version="1.0" encoding="iso-8859-1"?>
<!-- Generator: Adobe Illustrator 14.0.0, SVG Export Plug-In . SVG Version: 6.00 Build 43363)  -->
<!DOCTYPE svg PUBLIC "-//W3C//DTD SVG 1.1 Basic//EN" "http://www.w3.org/Graphics/SVG/1.1/DTD/svg11-basic.dtd">
<svg version="1.1" baseProfile="basic" id="Ebene_1"
	 xmlns="http://www.w3.org/2000/svg" xmlns:xlink="http://www.w3.org/1999/xlink" x="0px" y="0px" width="25px" height="25px"
	 viewBox="0 0 25 25" xml:space="preserve">
<g>
	<path fill="#FDCE33" d="M12.5,3.3c-5.08,0-9.2,4.12-9.2,9.2c0,5.08,4.12,9.2,9.2,9.2c5.08,0,9.2-4.12,9.2-9.2
		C21.7,7.42,17.58,3.3,12.5,3.3z"/>
	<path d="M15.13,6.59l1.31,3.28l-1.31,0.66l-1.31-3.29L15.13,6.59z M10.53,6.59l1.31,3.28l-1.31,0.66L9.21,7.24L10.53,6.59z
		 M14.47,18.42c-1.38,1.97-3.88,1.97-4.6,0c-0.72-1.97,0-5.26,0-5.26c1.31,1.31,5.26,1.31,7.23,0
		C17.1,13.16,15.85,16.45,14.47,18.42z"/>
</g>
</svg>
