<?xml version="1.0" encoding="iso-8859-1"?>
<!-- Generator: Adobe Illustrator 14.0.0, SVG Export Plug-In . SVG Version: 6.00 Build 43363)  -->
<!DOCTYPE svg PUBLIC "-//W3C//DTD SVG 1.1 Basic//EN" "http://www.w3.org/Graphics/SVG/1.1/DTD/svg11-basic.dtd">
<svg version="1.1" baseProfile="basic" id="Ebene_1"
	 xmlns="http://www.w3.org/2000/svg" xmlns:xlink="http://www.w3.org/1999/xlink" x="0px" y="0px" width="25px" height="25px"
	 viewBox="0 0 25 25" xml:space="preserve">
<g>
	<circle fill="#FDCE33" cx="12.82" cy="12.82" r="8.97"/>
	<path d="M12.82,19.21c-1.72-0.01-3.28-0.7-4.41-1.83l0.9-0.9c0.91,0.89,2.14,1.45,3.51,1.45V19.21z"/>
	<path d="M19.81,10.37c-0.07,0.9-0.35,2.67-1.39,3.27c-0.48,0.28-1.03,0.42-1.63,0.42c-1.14,0-2.19-0.53-2.55-0.88
		c-0.47-0.47-0.68-2.71-0.71-2.95c0-0.02,0-0.04,0-0.06v-0.5l-0.7-0.13l-0.7,0.13v0.5c0,0.02,0,0.04,0,0.06
		c-0.04,0.25-0.24,2.48-0.71,2.95c-0.36,0.36-1.41,0.88-2.55,0.88c-0.6,0-1.15-0.14-1.63-0.42c-1.04-0.6-1.33-2.37-1.39-3.27
		l-0.7-0.11V9.45l0.7-0.33C5.83,8.98,5.84,8.9,5.84,8.88c0.02-0.2,0.19-0.35,0.4-0.35h0.48l5.01,0.13c0.08,0,0.15,0.03,0.21,0.07
		h1.75c0.06-0.04,0.13-0.07,0.21-0.07l5-0.13h0.49c0.2,0,0.37,0.15,0.4,0.35c0,0.02,0.01,0.1,0.02,0.24l0.7,0.33v0.81L19.81,10.37z"
		/>
</g>
</svg>
