<?xml version="1.0" encoding="iso-8859-1"?>
<!-- Generator: Adobe Illustrator 14.0.0, SVG Export Plug-In . SVG Version: 6.00 Build 43363)  -->
<!DOCTYPE svg PUBLIC "-//W3C//DTD SVG 1.1 Basic//EN" "http://www.w3.org/Graphics/SVG/1.1/DTD/svg11-basic.dtd">
<svg version="1.1" baseProfile="basic" id="Ebene_1"
	 xmlns="http://www.w3.org/2000/svg" xmlns:xlink="http://www.w3.org/1999/xlink" x="0px" y="0px" width="25px" height="25px"
	 viewBox="0 0 25 25" xml:space="preserve">
<g>
	<g>
		<path fill="#FDCE33" d="M10.86,15.34v2.58c0,1.99-1.59,3.61-3.55,3.61c-1.96,0-3.55-1.62-3.55-3.61v-4.52c0,0,0-0.64,0.69-0.64
			c0.6,0,0.6,0.64,0.6,0.64v2.58H5.7v-3.87c0,0,0-0.64,0.65-0.64s0.65,0.64,0.65,0.64v3.87h0.65v-3.88c0,0,0-0.64,0.65-0.64
			c0.64,0,0.64,0.64,0.64,0.64v4.52h0.64v-1.29c0,0,0-0.65,0.64-0.65C10.86,14.69,10.86,15.34,10.86,15.34z"/>
		<path fill="#FDCE33" d="M12.79,3.47c-4.67,0-8.52,3.55-8.98,8.1c0.2-0.06,0.4-0.1,0.64-0.1c0.02,0,0.04,0,0.06,0
			c0.24-0.7,0.86-1.29,1.83-1.29c0.38,0,0.7,0.09,0.97,0.24c0.27-0.15,0.59-0.24,0.97-0.24c1.26,0,1.94,1,1.94,1.94v1.29
			c1.26,0,1.94,1,1.94,1.93v2.58c0,1.31-0.51,2.5-1.35,3.38c0.64,0.14,1.31,0.23,1.99,0.23c4.99,0,9.03-4.04,9.03-9.03
			S17.78,3.47,12.79,3.47z"/>
		<path d="M17.96,8.2v2.36h-1.29V8.82c-0.81,0.29-1.68,0.45-2.6,0.45c-0.66,0-1.31-0.09-1.92-0.25v2.18h-1.29V8.56
			c-0.57-0.27-1.11-0.6-1.59-0.99c0.29-0.32,0.61-0.62,0.96-0.88c1.07,0.81,2.4,1.28,3.85,1.28c1.45,0,2.79-0.48,3.87-1.29
			c0.35,0.26,0.67,0.55,0.96,0.87C18.6,7.8,18.28,8.01,17.96,8.2z"/>
	</g>
	<path fill="#1A171B" d="M11.5,16.37c1.74,0.01,3.3,0.71,4.44,1.84l-0.91,0.91c-0.91-0.9-2.15-1.45-3.53-1.46V16.37z"/>
</g>
</svg>
