<?xml version="1.0" encoding="iso-8859-1"?>
<!-- Generator: Adobe Illustrator 14.0.0, SVG Export Plug-In . SVG Version: 6.00 Build 43363)  -->
<!DOCTYPE svg PUBLIC "-//W3C//DTD SVG 1.1 Basic//EN" "http://www.w3.org/Graphics/SVG/1.1/DTD/svg11-basic.dtd">
<svg version="1.1" baseProfile="basic" id="Ebene_1"
	 xmlns="http://www.w3.org/2000/svg" xmlns:xlink="http://www.w3.org/1999/xlink" x="0px" y="0px" width="25px" height="25px"
	 viewBox="0 0 25 25" xml:space="preserve">
<g>
	<circle fill="#FDCE33" cx="12.79" cy="12.9" r="9.05"/>
	<path d="M5.41,10.59l0.93-0.93c0.59,0.79,1.52,1.3,2.58,1.3s1.99-0.52,2.58-1.3l0.93,0.93c-0.83,1.02-2.09,1.67-3.51,1.67
		S6.24,11.6,5.41,10.59z M14.73,18.72h-3.88v-1.29h3.88V18.72z M16.67,12.25c-1.41,0-2.68-0.65-3.5-1.67l0.93-0.93
		c0.59,0.79,1.52,1.3,2.58,1.3c1.06,0,1.99-0.52,2.58-1.3l0.93,0.93C19.35,11.6,18.09,12.25,16.67,12.25z"/>
</g>
</svg>
