<?xml version="1.0" encoding="iso-8859-1"?>
<!-- Generator: Adobe Illustrator 14.0.0, SVG Export Plug-In . SVG Version: 6.00 Build 43363)  -->
<!DOCTYPE svg PUBLIC "-//W3C//DTD SVG 1.1 Basic//EN" "http://www.w3.org/Graphics/SVG/1.1/DTD/svg11-basic.dtd">
<svg version="1.1" baseProfile="basic" id="Ebene_1"
	 xmlns="http://www.w3.org/2000/svg" xmlns:xlink="http://www.w3.org/1999/xlink" x="0px" y="0px" width="25px" height="25px"
	 viewBox="0 0 25 25" xml:space="preserve">
<g>
	<circle fill="#FDCE33" cx="12.5" cy="12.9" r="7.53"/>
	<rect x="14.55" y="10.17" width="1.37" height="2.74"/>
	<rect x="9.08" y="10.17" width="1.37" height="2.74"/>
	<path d="M12.5,18.38c-1.34,0-2.56-0.48-3.51-1.28l0.97-0.97c0.7,0.55,1.58,0.88,2.54,0.88s1.84-0.33,2.54-0.88l0.97,0.97
		C15.06,17.89,13.84,18.38,12.5,18.38z"/>
	<path d="M24.13,12.56c0,1.96-1.5,3.57-3.42,3.75c0.44-1.05,0.68-2.2,0.68-3.4c0-1.48-0.37-2.88-1.01-4.11
		c0.28,0,0.55,0.04,0.8,0.09c-1.52-3.28-4.83-5.56-8.69-5.56c-3.85,0-7.17,2.28-8.69,5.56C4.07,8.83,4.34,8.8,4.61,8.8
		c-0.64,1.23-1.01,2.62-1.01,4.11c0,1.21,0.24,2.35,0.68,3.4c-1.91-0.18-3.42-1.79-3.42-3.75c0-1.47,0.84-2.73,2.07-3.35
		c1.49-3.84,5.21-6.57,9.57-6.57c4.36,0,8.08,2.73,9.57,6.57C23.29,9.83,24.13,11.09,24.13,12.56z"/>
</g>
</svg>
