<?xml version="1.0" encoding="iso-8859-1"?>
<!-- Generator: Adobe Illustrator 14.0.0, SVG Export Plug-In . SVG Version: 6.00 Build 43363)  -->
<!DOCTYPE svg PUBLIC "-//W3C//DTD SVG 1.1 Basic//EN" "http://www.w3.org/Graphics/SVG/1.1/DTD/svg11-basic.dtd">
<svg version="1.1" baseProfile="basic" id="Ebene_1"
	 xmlns="http://www.w3.org/2000/svg" xmlns:xlink="http://www.w3.org/1999/xlink" x="0px" y="0px" width="25px" height="25px"
	 viewBox="0 0 25 25" xml:space="preserve">
<g>
	<path fill="#E60000" d="M21.65,3.35l-3.67,1.83c-1.53-1.15-3.42-1.83-5.48-1.83S8.55,4.04,7.02,5.19L3.35,3.35l1.17,4.68
		c-0.74,1.32-1.17,2.84-1.17,4.47c0,2.5,1,4.76,2.63,6.41v0.01c0,0,0.01,0,0.01,0c1.66,1.68,3.96,2.72,6.51,2.72
		c2.57,0,4.88-1.06,6.54-2.76c0,0,0,0,0.01,0v-0.01c1.6-1.65,2.59-3.89,2.59-6.38c0-1.62-0.43-3.15-1.17-4.47L21.65,3.35z"/>
	<path d="M7.27,7.3h2.62c1.3,0,1.95,2.29,2.6,2.38c0.42,0,1.32-2.4,2.67-2.4h2.59v1.31h-2.59c0,0-1.72,2.62-2.67,2.62
		c-0.8,0-2.59-2.59-2.59-2.59L7.27,8.61V7.3z"/>
	<polygon points="16.42,9.89 16.42,12.5 15.11,12.5 15.11,11.2 	"/>
	<polygon points="9.89,11.2 9.89,12.5 8.58,12.5 8.58,9.89 	"/>
	<path fill="#1A171B" d="M17.78,17.72L17.78,17.72L7.32,17.73v-0.01H6.19c0.62-2.96,3.19-5.2,6.33-5.2c3.14,0,5.71,2.24,6.34,5.2
		H17.78z"/>
	<path fill="#FFFFFF" d="M8.04,16.42h1.24v-1.46C8.79,15.37,8.37,15.86,8.04,16.42z"/>
	<path fill="#FFFFFF" d="M10.59,16.42h1.31v-2.56c-0.46,0.05-0.9,0.17-1.31,0.34V16.42z"/>
	<path fill="#FFFFFF" d="M13.2,16.42h1.31v-2.2c-0.41-0.17-0.85-0.3-1.31-0.35V16.42z"/>
	<path fill="#FFFFFF" d="M15.82,15.02v1.4h1.17C16.68,15.89,16.28,15.42,15.82,15.02z"/>
</g>
</svg>
