<?xml version="1.0" encoding="iso-8859-1"?>
<!-- Generator: Adobe Illustrator 14.0.0, SVG Export Plug-In . SVG Version: 6.00 Build 43363)  -->
<!DOCTYPE svg PUBLIC "-//W3C//DTD SVG 1.1 Basic//EN" "http://www.w3.org/Graphics/SVG/1.1/DTD/svg11-basic.dtd">
<svg version="1.1" baseProfile="basic" id="Ebene_1"
	 xmlns="http://www.w3.org/2000/svg" xmlns:xlink="http://www.w3.org/1999/xlink" x="0px" y="0px" width="25px" height="25px"
	 viewBox="0 0 25 25" xml:space="preserve">
<g>
	<circle fill="#FDCE33" cx="12.82" cy="12.82" r="8.98"/>
	<polygon points="14.08,11.54 14.08,11.54 16.65,8.98 16.65,10.27 15.37,11.54 16.21,11.54 16.21,11.54 17.95,11.54 17.95,12.83 
		16.03,12.83 16.03,12.82 14.08,12.82 	"/>
	<polygon points="7.67,11.54 10.22,11.54 8.95,10.27 8.95,8.98 11.51,11.54 11.51,12.82 7.67,12.82 	"/>
	<path d="M8.3,17.91L7.39,17c1.39-1.39,3.31-2.26,5.43-2.26s4.04,0.86,5.43,2.26l-0.91,0.91c-1.16-1.16-2.75-1.89-4.52-1.89
		S9.46,16.75,8.3,17.91z"/>
	<path fill="#0099DA" d="M18.72,16.54c-0.5-0.22-0.86-0.67-0.86-1.22c0.01-0.57-0.55-1.87-0.55-1.87l2.45,0.74
		C21.29,14.88,20.25,17.22,18.72,16.54z"/>
</g>
</svg>
