<?xml version="1.0" encoding="iso-8859-1"?>
<!-- Generator: Adobe Illustrator 14.0.0, SVG Export Plug-In . SVG Version: 6.00 Build 43363)  -->
<!DOCTYPE svg PUBLIC "-//W3C//DTD SVG 1.1 Basic//EN" "http://www.w3.org/Graphics/SVG/1.1/DTD/svg11-basic.dtd">
<svg version="1.1" baseProfile="basic" id="Ebene_1"
	 xmlns="http://www.w3.org/2000/svg" xmlns:xlink="http://www.w3.org/1999/xlink" x="0px" y="0px" width="25px" height="25px"
	 viewBox="0 0 25 25" xml:space="preserve">
<g>
	<circle fill="#FDCE33" cx="12.65" cy="12.84" r="9.06"/>
	<path d="M14.6,9.6h1.29v2.59H14.6V9.6z M10.71,7.01v1.29c-1.07,0-1.94,0.87-1.94,1.94h-1.3C7.47,8.46,8.92,7.01,10.71,7.01z
		 M11.36,8.95v1.94h-1.3V8.95H11.36z M16.22,18.02c-1.62,0-1.62-0.65-2.91-0.65c-1.3,0-1.94,1.29-3.56,1.29
		c-1.61,0-2.91-1.3-2.91-2.91c0-1.61,1.31-2.91,2.91-2.91c1.62,0,2.27,1.29,3.56,1.29c1.29,0,1.29-0.65,2.91-0.65
		c1.25,0,2.27,1.02,2.27,2.27C18.48,17,17.47,18.02,16.22,18.02z M17.19,10.25l-1.94-3.23h1.29l1.94,3.23H17.19z"/>
</g>
</svg>
