<?xml version="1.0" encoding="iso-8859-1"?>
<!-- Generator: Adobe Illustrator 14.0.0, SVG Export Plug-In . SVG Version: 6.00 Build 43363)  -->
<!DOCTYPE svg PUBLIC "-//W3C//DTD SVG 1.1 Basic//EN" "http://www.w3.org/Graphics/SVG/1.1/DTD/svg11-basic.dtd">
<svg version="1.1" baseProfile="basic" id="Ebene_1"
	 xmlns="http://www.w3.org/2000/svg" xmlns:xlink="http://www.w3.org/1999/xlink" x="0px" y="0px" width="25px" height="25px"
	 viewBox="0 0 25 25" xml:space="preserve">
<g>
	<circle fill="#FDCE33" cx="12.46" cy="12.75" r="8.88"/>
	<rect x="13.1" y="9.58" width="1.27" height="1.9"/>
	<path d="M8.02,10.21H6.75c0-1.75,1.42-3.17,3.17-3.17v1.27C8.87,8.31,8.02,9.16,8.02,10.21z"/>
	<rect x="9.29" y="9.58" width="1.27" height="1.9"/>
	<path d="M12.47,19.1c-1.1,0-2.13-0.29-3.03-0.79l0.94-0.94c0.64,0.3,1.34,0.47,2.1,0.47c0.74,0,1.44-0.17,2.07-0.46l0.94,0.94
		C14.6,18.81,13.57,19.1,12.47,19.1z"/>
	<path d="M15.63,10.21c0-1.05-0.85-1.9-1.9-1.9V7.04c1.75,0,3.17,1.42,3.17,3.17H15.63z"/>
</g>
<circle fill="#E60000" cx="17.41" cy="14.23" r="2.28"/>
<circle fill="#E60000" cx="7.31" cy="14.5" r="2.28"/>
</svg>
