<?xml version="1.0" encoding="iso-8859-1"?>
<!-- Generator: Adobe Illustrator 14.0.0, SVG Export Plug-In . SVG Version: 6.00 Build 43363)  -->
<!DOCTYPE svg PUBLIC "-//W3C//DTD SVG 1.1 Basic//EN" "http://www.w3.org/Graphics/SVG/1.1/DTD/svg11-basic.dtd">
<svg version="1.1" baseProfile="basic" id="Ebene_1"
	 xmlns="http://www.w3.org/2000/svg" xmlns:xlink="http://www.w3.org/1999/xlink" x="0px" y="0px" width="25px" height="25px"
	 viewBox="0 0 25 25" xml:space="preserve">
<g>
	<circle fill="#FDCE33" cx="12.5" cy="12.74" r="9.05"/>
	<path d="M10.56,5.64v1.29c-1.07,0-1.94,0.87-1.94,1.93H7.33C7.33,7.08,8.78,5.64,10.56,5.64z M10.56,8.22v1.94H9.27V8.22H10.56z
		 M12.5,19.21c-1.74-0.01-3.3-0.71-4.45-1.84l0.91-0.91c0.91,0.9,2.15,1.46,3.53,1.46V19.21z M13.15,5.64
		c1.79,0,3.23,1.45,3.23,3.23h-1.29c0-1.07-0.87-1.93-1.94-1.93V5.64z M13.15,8.22h1.29v1.94h-1.29V8.22z"/>
	<path fill="#E60000" d="M13.55,13.65c0.47-0.47,1.08-0.71,1.69-0.74c0.03-0.62,0.27-1.22,0.74-1.69c0.8-0.79,1.75,0.2,2.97-0.41
		l-5.82,5.82C13.75,15.4,12.76,14.44,13.55,13.65z M13.83,17.24l5.75-5.75c-0.37,1.74,1.2,3.47-0.54,5.21
		C17.3,18.43,15.56,16.87,13.83,17.24z"/>
</g>
</svg>
