<?xml version="1.0" encoding="iso-8859-1"?>
<!-- Generator: Adobe Illustrator 14.0.0, SVG Export Plug-In . SVG Version: 6.00 Build 43363)  -->
<!DOCTYPE svg PUBLIC "-//W3C//DTD SVG 1.1 Basic//EN" "http://www.w3.org/Graphics/SVG/1.1/DTD/svg11-basic.dtd">
<svg version="1.1" baseProfile="basic" id="Ebene_1"
	 xmlns="http://www.w3.org/2000/svg" xmlns:xlink="http://www.w3.org/1999/xlink" x="0px" y="0px" width="25px" height="25px"
	 viewBox="0 0 25 25" xml:space="preserve">
<g>
	<polygon points="7.31,7.23 16.53,7.23 16.53,4.6 19.82,4.6 19.82,7.23 19.16,7.89 19.16,9.87 21.14,9.87 21.14,7.89 20.48,7.23 
		20.48,3.28 3.36,3.28 3.36,4.6 7.31,4.6 	"/>
	<path fill="#FDCE33" d="M21.69,11.19h-3.85V8.55H5.99V6.06C4.37,7.72,3.36,9.99,3.36,12.5c0,5.09,4.13,9.22,9.22,9.22
		c5.09,0,9.22-4.12,9.22-9.22C21.8,12.05,21.76,11.62,21.69,11.19z"/>
	<path d="M15.21,9.87h1.32v2.63h-1.32V9.87z M8.63,9.87h1.32v2.63H8.63V9.87z M12.59,19.09c-2.31,0-4.31-1.21-5.47-3.02l0.95-0.95
		c0.9,1.58,2.58,2.66,4.53,2.66c1.94,0,3.61-1.07,4.52-2.64l0.94,0.94C16.89,17.89,14.9,19.09,12.59,19.09z"/>
</g>
</svg>
