<?xml version="1.0" encoding="iso-8859-1"?>
<!-- Generator: Adobe Illustrator 14.0.0, SVG Export Plug-In . SVG Version: 6.00 Build 43363)  -->
<!DOCTYPE svg PUBLIC "-//W3C//DTD SVG 1.1 Basic//EN" "http://www.w3.org/Graphics/SVG/1.1/DTD/svg11-basic.dtd">
<svg version="1.1" baseProfile="basic" id="Ebene_1"
	 xmlns="http://www.w3.org/2000/svg" xmlns:xlink="http://www.w3.org/1999/xlink" x="0px" y="0px" width="25px" height="25px"
	 viewBox="0 0 25 25" xml:space="preserve">
<g>
	<circle fill="#88BB09" cx="12.76" cy="12.81" r="9.1"/>
	<polygon points="15.36,11.08 16.66,10.21 16.66,12.16 15.36,12.16 	"/>
	<polygon points="8.86,10.21 10.16,11.08 10.16,12.16 8.86,12.16 	"/>
	<polygon points="6.91,6.96 10.81,9.56 10.81,10.86 6.91,8.26 	"/>
	<polygon points="18.61,6.96 14.71,9.56 14.71,10.86 18.61,8.26 	"/>
	<path fill="#1A171B" d="M16.01,19.31c0,0-1.79-0.65-3.25-0.65c-1.46,0-3.25,0.65-3.25,0.65l-1.3-5.2c1.33-1.07,2.72-1.3,4.56-1.3
		c1.84,0,3.21,0.24,4.53,1.3L16.01,19.31z"/>
	<path fill="#FFFFFF" d="M10.81,18.93c0.4-0.1,0.85-0.18,1.3-0.23v-0.69h-1.3V18.93z M13.41,12.82c-0.21-0.01-0.42-0.01-0.63-0.01
		c-0.23,0-0.45,0-0.67,0.01v1.29h1.3V12.82z M10.81,12.95c-0.46,0.08-0.88,0.21-1.3,0.38v1.43h1.3V12.95z M13.41,18.69
		c0.45,0.05,0.9,0.14,1.3,0.23v-0.92h-1.3V18.69z M14.71,12.95v1.81h1.3v-1.43C15.59,13.16,15.16,13.03,14.71,12.95z"/>
</g>
</svg>
