<?xml version="1.0" encoding="iso-8859-1"?>
<!-- Generator: Adobe Illustrator 14.0.0, SVG Export Plug-In . SVG Version: 6.00 Build 43363)  -->
<!DOCTYPE svg PUBLIC "-//W3C//DTD SVG 1.1 Basic//EN" "http://www.w3.org/Graphics/SVG/1.1/DTD/svg11-basic.dtd">
<svg version="1.1" baseProfile="basic" id="Ebene_1"
	 xmlns="http://www.w3.org/2000/svg" xmlns:xlink="http://www.w3.org/1999/xlink" x="0px" y="0px" width="25px" height="25px"
	 viewBox="0 0 25 25" xml:space="preserve">
<g>
	<g>
		<circle fill="#FDCE33" cx="12.5" cy="12.5" r="8.97"/>
		<path d="M15.06,8.65h1.28v3.85h-1.28V8.65z M8.65,12.5h1.28V8.65H8.65V12.5z M17.83,15.34l-0.91-0.91
			c-0.88,1.53-2.51,2.57-4.4,2.57c-1.01,0-1.94-0.3-2.72-0.81l-0.92,0.92c1.03,0.73,2.27,1.16,3.63,1.16c0.33,0,0.65-0.03,0.96-0.08
			l0.39,0.56c0.71,1.02,1.58,1.63,2.6,0.92c1.02-0.71,0.74-1.74,0.03-2.76l-0.03-0.05C16.99,16.43,17.46,15.92,17.83,15.34z"/>
	</g>
</g>
</svg>
