<?xml version="1.0" encoding="iso-8859-1"?>
<!-- Generator: Adobe Illustrator 14.0.0, SVG Export Plug-In . SVG Version: 6.00 Build 43363)  -->
<!DOCTYPE svg PUBLIC "-//W3C//DTD SVG 1.1 Basic//EN" "http://www.w3.org/Graphics/SVG/1.1/DTD/svg11-basic.dtd">
<svg version="1.1" baseProfile="basic" id="Ebene_1"
	 xmlns="http://www.w3.org/2000/svg" xmlns:xlink="http://www.w3.org/1999/xlink" x="0px" y="0px" width="25px" height="25px"
	 viewBox="0 0 25 25" xml:space="preserve">
<path fill="#EB3333" d="M12.82,3.85c-4.96,0-8.97,4.02-8.97,8.97c0,2.45,0.99,4.68,2.58,6.3v0.01c0,0,0,0,0.01,0
	c1.63,1.65,3.88,2.67,6.38,2.67c2.52,0,4.79-1.04,6.42-2.71c0,0,0,0,0.01,0v-0.01c1.57-1.62,2.55-3.82,2.55-6.26
	C21.79,7.87,17.78,3.85,12.82,3.85z"/>
<path fill="#FFFFFF" d="M16.03,18.59c0-0.71-0.58-1.28-1.28-1.28H10.9c-0.71,0-1.28,0.57-1.28,1.28H8.33c0-1.4,1.13-2.54,2.52-2.56
	v0h3.89c1.42,0,2.56,1.15,2.56,2.56H16.03z"/>
<polygon fill="#FFFFFF" points="8.98,12.82 8.98,10.26 10.26,11.54 10.26,12.82 "/>
<polygon fill="#FFFFFF" points="15.38,12.82 15.38,11.54 16.67,10.26 16.67,12.82 "/>
<path fill="#FFFFFF" d="M17.97,8.98h-2.54c0,0-1.69,2.58-2.62,2.58c-0.78,0-2.54-2.54-2.54-2.54L7.69,9V7.72h2.57
	c1.27,0,1.91,2.25,2.55,2.33c0.42,0,1.29-2.36,2.62-2.36h2.54V8.98z"/>
</svg>
