<?xml version="1.0" encoding="iso-8859-1"?>
<!-- Generator: Adobe Illustrator 14.0.0, SVG Export Plug-In . SVG Version: 6.00 Build 43363)  -->
<!DOCTYPE svg PUBLIC "-//W3C//DTD SVG 1.1 Basic//EN" "http://www.w3.org/Graphics/SVG/1.1/DTD/svg11-basic.dtd">
<svg version="1.1" baseProfile="basic" id="Ebene_1"
	 xmlns="http://www.w3.org/2000/svg" xmlns:xlink="http://www.w3.org/1999/xlink" x="0px" y="0px" width="25px" height="25px"
	 viewBox="0 0 25 25" xml:space="preserve">
<g>
	<circle fill="#9DB57C" cx="12.82" cy="12.82" r="8.98"/>
	<rect x="15.25" y="6.2" transform="matrix(-0.7071 -0.7071 0.7071 -0.7071 21.1412 24.7843)" width="0.91" height="3.63"/>
	<rect x="15.38" y="9.62" width="1.28" height="2.56"/>
	<rect x="8.12" y="7.56" transform="matrix(-0.7068 -0.7074 0.7074 -0.7068 11.2897 20.7062)" width="3.63" height="0.91"/>
	<rect x="8.97" y="9.62" width="1.28" height="2.56"/>
	<path d="M16.66,17.94c-1.07-0.8-2.39-1.28-3.83-1.28c-1.44,0-2.77,0.48-3.84,1.29c-0.35-0.26-0.66-0.55-0.95-0.87
		c1.31-1.06,2.97-1.7,4.79-1.7c1.81,0,3.46,0.64,4.77,1.69C17.32,17.39,17.01,17.69,16.66,17.94z"/>
</g>
</svg>
