<?xml version="1.0" encoding="utf-8"?>
<!-- Generator: Adobe Illustrator 14.0.0, SVG Export Plug-In . SVG Version: 6.00 Build 43363)  -->
<!DOCTYPE svg PUBLIC "-//W3C//DTD SVG 1.1//EN" "http://www.w3.org/Graphics/SVG/1.1/DTD/svg11.dtd">
<svg version="1.1" id="Ebene_1" xmlns="http://www.w3.org/2000/svg" xmlns:xlink="http://www.w3.org/1999/xlink" x="0px" y="0px"
	 width="29px" height="35px" viewBox="0 0 29 35" enable-background="new 0 0 29 35" xml:space="preserve">
<rect x="20.99" y="22" opacity="0.22" enable-background="new    " width="5" height="1"/>
<rect x="22" y="23" opacity="0.2" enable-background="new    " width="4" height="1"/>
<rect x="23" y="24" opacity="0.15" enable-background="new    " width="3" height="1"/>
<rect x="23" y="25" opacity="0.08" enable-background="new    " width="3" height="1"/>
<rect x="3" y="1" opacity="0.22" enable-background="new    " width="23" height="1"/>
<rect x="3" y="2" opacity="0.15" enable-background="new    " width="1" height="21"/>
<rect x="2" y="2" opacity="0.08" enable-background="new    " width="1" height="23"/>
<rect x="25" y="2" opacity="0.15" enable-background="new    " width="1" height="20"/>
<rect x="26" y="2" opacity="0.08" enable-background="new    " width="1" height="23"/>
<rect x="4" y="1.98" opacity="0.95" fill="#FFFFFF" enable-background="new    " width="21" height="20"/>
<polygon opacity="0.03" enable-background="new    " points="14.92,25.96 2,25.96 2,4.01 1,4.01 1,27.01 15.971,27.01 "/>
<polygon opacity="0.03" enable-background="new    " points="23,25.96 27,25.96 27,3.99 28,3.99 28,27.01 23,27.01 "/>
<rect x="26" y="25" opacity="0.08" enable-background="new    " width="1" height="1"/>
<polygon opacity="0.08" enable-background="new    " points="13.96,25 2,25 2,26 14.96,26 "/>
<polygon opacity="0.15" enable-background="new    " points="12.96,24 3,24 3,25 13.96,25 "/>
<polygon opacity="0.2" enable-background="new    " points="13.38,23 3,23 3,24 14.38,24 "/>
<polygon opacity="0.22" enable-background="new    " points="13.79,22 4,22 4,23 14.79,23 "/>
<g>
	<polygon fill="#D9D9D9" points="20,26.8 15.2,22 13.79,22 20.99,29.2 20.99,22 20,22 	"/>
	<polygon opacity="0.15" enable-background="new    " points="21,29.21 14.78,22.98 13.37,22.98 21.99,31.609 21.99,22.99 21,22.99 
			"/>
	<polygon opacity="0.08" enable-background="new    " points="22,31.62 14.36,23.98 12.95,23.99 22.99,34.029 22.99,23.99 22,23.99 
			"/>
	<polygon fill="#FFFFFF" points="20,26.8 15.2,21.99 20,22 	"/>
</g>
</svg>
