<?xml version="1.0" encoding="iso-8859-1"?>
<!-- Generator: Adobe Illustrator 14.0.0, SVG Export Plug-In . SVG Version: 6.00 Build 43363)  -->
<!DOCTYPE svg PUBLIC "-//W3C//DTD SVG 1.1 Basic//EN" "http://www.w3.org/Graphics/SVG/1.1/DTD/svg11-basic.dtd">
<svg version="1.1" baseProfile="basic" id="Ebene_1"
	 xmlns="http://www.w3.org/2000/svg" xmlns:xlink="http://www.w3.org/1999/xlink" x="0px" y="0px" width="25px" height="25px"
	 viewBox="0 0 25 25" xml:space="preserve">
<g>
	<path fill="#FDCE33" d="M21.32,10.22c-0.42-1.29-1.1-2.42-1.97-3.36c-1.96,1.61-5.07,2.93-7.34,3.67c-2.29,0.73-5.6,1.47-8.13,1.3
		c-0.17,1.27-0.06,2.6,0.36,3.89c1.52,4.72,6.58,7.31,11.29,5.79C20.25,20,22.84,14.94,21.32,10.22z M11.21,8.09
		c2.78-0.9,4.95-2.21,5.43-3.21c-2-0.95-4.34-1.18-6.61-0.45C7.76,5.16,5.99,6.72,4.92,8.66C5.9,9.18,8.42,8.99,11.21,8.09z"/>
	<path d="M10.86,11.05h1.28v2.57h-1.28V11.05z M12.78,19.36c-1.72,0-3.28-0.7-4.41-1.82l0.91-0.91c0.9,0.89,2.14,1.45,3.5,1.46
		V19.36z M17.27,13.62h-1.28v-2.57h1.28V13.62z"/>
	<path fill="#6DC1D7" d="M11.62,9.31c-5.05,1.63-9.55,1.72-10.04,0.2c-0.35-1.08,1.43-2.68,4.3-4.1C5.25,5.99,4.7,6.65,4.24,7.36
		C3.59,7.94,3.27,8.49,3.41,8.92C3.79,10.1,7.38,10,11.42,8.7c4.04-1.3,7.02-3.32,6.63-4.49c-0.14-0.44-0.71-0.69-1.58-0.78
		C15.68,3.11,14.85,2.9,14,2.79c3.16-0.52,5.54-0.26,5.88,0.82C20.38,5.13,16.67,7.68,11.62,9.31z"/>
</g>
</svg>
