<?xml version="1.0" encoding="iso-8859-1"?>
<!-- Generator: Adobe Illustrator 13.0.0, SVG Export Plug-In . SVG Version: 6.00 Build 14948)  -->
<!DOCTYPE svg PUBLIC "-//W3C//DTD SVG 1.1//EN" "http://www.w3.org/Graphics/SVG/1.1/DTD/svg11.dtd">
<svg version="1.1" id="Ebene_1" xmlns="http://www.w3.org/2000/svg" xmlns:xlink="http://www.w3.org/1999/xlink" x="0px" y="0px"
	 width="25px" height="25px" viewBox="0 0 25 25" enable-background="new 0 0 25 25" xml:space="preserve">
<rect fill="none" width="25" height="25"/>
<g>
	<circle fill="#88BB09" cx="12.5" cy="12.5" r="8.97"/>
	<rect x="12.97" y="9.6" transform="matrix(-0.4468 -0.8946 0.8946 -0.4468 11.7695 27.7521)" width="2.99" height="1.28"/>
	<rect x="9.55" y="7.32" transform="matrix(-0.8591 -0.5118 0.5118 -0.8591 14.2132 22.3894)" width="1.28" height="3.85"/>
	<path d="M16.99,14.49c-0.73,0.15-1.28,0.79-1.28,1.57s0.55,1.42,1.28,1.57v1.28c-1.34-0.15-2.4-1.22-2.54-2.56h-3.9
		c-0.14,1.35-1.19,2.41-2.54,2.56v-1.28c0.73-0.15,1.28-0.79,1.28-1.57s-0.55-1.42-1.28-1.57v-1.28c1.1,0.12,2.01,0.86,2.38,1.86
		h4.21c0.37-1,1.28-1.74,2.38-1.86V14.49z"/>
</g>
</svg>
