<?xml version="1.0" encoding="iso-8859-1"?>
<!-- Generator: Adobe Illustrator 14.0.0, SVG Export Plug-In . SVG Version: 6.00 Build 43363)  -->
<!DOCTYPE svg PUBLIC "-//W3C//DTD SVG 1.1 Basic//EN" "http://www.w3.org/Graphics/SVG/1.1/DTD/svg11-basic.dtd">
<svg version="1.1" baseProfile="basic" id="Ebene_1"
	 xmlns="http://www.w3.org/2000/svg" xmlns:xlink="http://www.w3.org/1999/xlink" x="0px" y="0px" width="25px" height="25px"
	 viewBox="0 0 25 25" xml:space="preserve">
<path fill="#FDCE33" d="M12.13,12.17c-0.42-0.33-0.98-0.62-1.66-0.86c-0.83-0.28-1.35-0.5-1.57-0.65c-0.22-0.16-0.33-0.4-0.33-0.74
	c0-0.26,0.09-0.47,0.27-0.63c0.18-0.16,0.46-0.24,0.86-0.24c0.32,0,0.68,0.09,1.06,0.27c0.39,0.18,0.75,0.43,1.08,0.77l1.46-1.84
	c-0.33-0.36-0.73-0.67-1.22-0.94c-0.39-0.22-0.83-0.37-1.29-0.46V4.39h-2.5v2.49c-0.7,0.18-1.28,0.5-1.73,0.97
	C6.06,8.39,5.8,9.14,5.8,10.09c0,0.48,0.07,0.9,0.21,1.26c0.14,0.36,0.33,0.68,0.59,0.95c0.25,0.27,0.55,0.5,0.91,0.69
	c0.35,0.18,0.73,0.34,1.15,0.48c0.37,0.11,0.7,0.24,1,0.38c0.29,0.15,0.51,0.3,0.65,0.46c0.13,0.16,0.2,0.39,0.2,0.68
	c0,0.31-0.11,0.55-0.32,0.72c-0.21,0.17-0.5,0.25-0.86,0.25c-0.47,0-0.95-0.1-1.45-0.3c-0.5-0.2-0.92-0.45-1.28-0.74L5.5,17.21
	c0.31,0.22,0.73,0.44,1.26,0.65c0.46,0.18,0.98,0.29,1.54,0.35v2.4h2.5v-2.45c0.77-0.2,1.38-0.56,1.8-1.09
	c0.48-0.61,0.72-1.39,0.72-2.34c0-0.48-0.09-0.94-0.28-1.39C12.86,12.89,12.56,12.5,12.13,12.17z M19.22,13.34
	c-0.18-0.45-0.49-0.83-0.91-1.16c-0.43-0.33-0.98-0.62-1.66-0.86c-0.83-0.28-1.35-0.5-1.57-0.65c-0.22-0.16-0.33-0.4-0.33-0.74
	c0-0.26,0.09-0.47,0.27-0.63c0.18-0.16,0.46-0.24,0.85-0.24c0.32,0,0.68,0.09,1.06,0.27s0.75,0.43,1.08,0.77l1.46-1.84
	c-0.32-0.36-0.73-0.67-1.21-0.94c-0.38-0.21-0.79-0.36-1.23-0.45V4.39h-2.49v2.47c-0.22,0.06-0.43,0.12-0.63,0.21
	c0.11,0.1,0.22,0.22,0.32,0.33l0.72,0.79L14.3,9.03l-1.46,1.84l-0.13,0.16c0.07,0.05,0.13,0.1,0.2,0.15c0.6,0.46,1.04,1.03,1.3,1.68
	c0.06,0.15,0.11,0.3,0.16,0.45c0.15,0.06,0.3,0.12,0.46,0.17c0.37,0.11,0.7,0.24,1,0.38c0.29,0.15,0.51,0.3,0.65,0.46
	s0.2,0.39,0.2,0.68c0,0.31-0.11,0.55-0.32,0.72c-0.21,0.17-0.5,0.25-0.86,0.25c-0.33,0-0.67-0.05-1.02-0.15
	c-0.14,0.77-0.43,1.46-0.89,2.03c-0.04,0.06-0.1,0.11-0.15,0.16c0.34,0.1,0.71,0.17,1.1,0.21v2.39h2.49v-2.47
	c0.75-0.21,1.33-0.56,1.74-1.08c0.48-0.61,0.72-1.39,0.72-2.34C19.5,14.25,19.41,13.79,19.22,13.34z"/>
</svg>
