<?xml version="1.0" encoding="iso-8859-1"?>
<!-- Generator: Adobe Illustrator 14.0.0, SVG Export Plug-In . SVG Version: 6.00 Build 43363)  -->
<!DOCTYPE svg PUBLIC "-//W3C//DTD SVG 1.1 Basic//EN" "http://www.w3.org/Graphics/SVG/1.1/DTD/svg11-basic.dtd">
<svg version="1.1" baseProfile="basic" id="Ebene_1"
	 xmlns="http://www.w3.org/2000/svg" xmlns:xlink="http://www.w3.org/1999/xlink" x="0px" y="0px" width="25px" height="25px"
	 viewBox="0 0 25 25" xml:space="preserve">
<g>
	<circle fill="#FDCE33" cx="12.76" cy="12.81" r="9.03"/>
	<path d="M15.34,9.58h1.29v1.93h-1.29V9.58z M6.95,9.58L9.53,7l0.64,0.64L7.6,10.23L6.95,9.58z M10.18,9.58v1.93H8.89V9.58H10.18z
		 M8.06,12.34c0.35,0.28,0.88,0.46,1.47,0.46c0.59,0,1.12-0.18,1.47-0.46l0.45,0.45c-0.47,0.4-1.16,0.65-1.92,0.65
		c-0.77,0-1.45-0.26-1.93-0.65L8.06,12.34z M16.63,17.96c-1.08-0.8-2.4-1.28-3.85-1.28c-1.45,0-2.79,0.48-3.87,1.29
		c-0.35-0.26-0.67-0.55-0.96-0.88c1.32-1.06,2.99-1.71,4.82-1.71c1.82,0,3.48,0.64,4.8,1.7C17.29,17.41,16.97,17.7,16.63,17.96z
		 M15.98,13.45c-0.77,0-1.45-0.26-1.92-0.65l0.45-0.45c0.35,0.28,0.88,0.46,1.47,0.46c0.6,0,1.12-0.18,1.47-0.46l0.45,0.45
		C17.44,13.2,16.75,13.45,15.98,13.45z M17.92,10.23l-2.58-2.58L15.98,7l2.58,2.58L17.92,10.23z"/>
</g>
</svg>
