<?xml version="1.0" encoding="iso-8859-1"?>
<!-- Generator: Adobe Illustrator 14.0.0, SVG Export Plug-In . SVG Version: 6.00 Build 43363)  -->
<!DOCTYPE svg PUBLIC "-//W3C//DTD SVG 1.1 Basic//EN" "http://www.w3.org/Graphics/SVG/1.1/DTD/svg11-basic.dtd">
<svg version="1.1" baseProfile="basic" id="Ebene_1"
	 xmlns="http://www.w3.org/2000/svg" xmlns:xlink="http://www.w3.org/1999/xlink" x="0px" y="0px" width="25px" height="25px"
	 viewBox="0 0 25 25" xml:space="preserve">
<g>
	<path fill="#FDCE33" d="M16.28,20.22c-0.26-0.07-0.5-0.18-0.71-0.32c-0.22-0.15-0.4-0.36-0.56-0.6c-0.35,0.56-0.94,1.28-1.77,1.57
		c-0.32,0.11-0.66,0.16-1.01,0.16c-0.31,0-0.62-0.05-0.91-0.13c-0.19,0.29-0.38,0.55-0.59,0.81c0.76,0.21,1.56,0.33,2.39,0.33
		c1.45,0,2.81-0.35,4.03-0.95c-0.15-0.21-0.3-0.46-0.45-0.8C16.55,20.28,16.41,20.25,16.28,20.22z M13.12,3.77
		c-4.63,0-8.45,3.45-9.04,7.93c0.87-1.29,1.9-2.31,2.98-2.33c2.14,0,5.18,1.49,6.44,3.12c0.3,0.38,0.42,0.89,0.44,1.46
		c0.62,0.31,1.14,0.78,1.48,1.36c0.18-0.12,0.37-0.22,0.57-0.3c0.19-0.69,0.52-0.96,0.68-1.08c1.09-0.83,3.23-1.25,4.58-0.89
		c0.2,0.06,0.57,0.16,0.97,0.64c0.02-0.25,0.04-0.51,0.04-0.77C22.25,7.86,18.16,3.77,13.12,3.77z"/>
	<path d="M11.15,9.65L8.54,7.04l0.65-0.65l2.61,2.61L11.15,9.65z M17.03,12.25h-1.3V9.65h1.3V12.25z M15.07,9.65l-0.65-0.66
		l2.61-2.61l0.65,0.65L15.07,9.65z"/>
	<path fill="#F39500" d="M12.8,19.63c-0.45,0.16-0.97,0.1-1.44-0.09c0.24-0.42,0.43-0.81,0.58-1.11c0.36-0.75,0.97-2.14,1.23-3.39
		c0.57,0.23,1.07,0.67,1.26,1.22C14.77,17.26,13.79,19.28,12.8,19.63z M12.46,13.29c1.02,1.32-2.57,8.73-4.24,8.76
		c-1.67,0.02-4.37-1.28-5.39-2.61c-1.02-1.33,2.57-8.73,4.24-8.75C8.74,10.66,11.44,11.96,12.46,13.29z M16.92,19
		c-0.23,0-0.45-0.06-0.63-0.18c-0.52-0.35-0.77-1.65-0.41-2.17c0.14-0.21,0.37-0.36,0.63-0.44c0,0.6,0.09,1.24,0.2,1.82
		C16.76,18.34,16.83,18.67,16.92,19z M20.92,14.3c0.95,0.27,1.86,5.04,1.08,5.63c-0.78,0.6-2.52,0.93-3.47,0.66
		c-0.95-0.27-1.86-5.04-1.08-5.63C18.23,14.37,19.97,14.03,20.92,14.3z"/>
</g>
</svg>
