<?xml version="1.0" encoding="iso-8859-1"?>
<!-- Generator: Adobe Illustrator 13.0.2, SVG Export Plug-In . SVG Version: 6.00 Build 14948)  -->
<!DOCTYPE svg PUBLIC "-//W3C//DTD SVG 1.1//EN" "http://www.w3.org/Graphics/SVG/1.1/DTD/svg11.dtd">
<svg version="1.1" id="Ebene_1" xmlns="http://www.w3.org/2000/svg" xmlns:xlink="http://www.w3.org/1999/xlink" x="0px" y="0px"
	 width="30px" height="28px" viewBox="0 0 30 28" enable-background="new 0 0 30 28" xml:space="preserve">
<path fill="#FFFFFF" d="M19.48,17.56c-0.02,0.03-0.05,0.06-0.07,0.09c-0.03,0.03-0.05,0.05-0.08,0.09
	c-6.73,8.22-11.22,3.99-11.82,3.53c-0.61-0.48-0.27-1.01-0.27-1.01l2.62-3.3c0.47-0.58,1.08-0.04,1.08-0.04l1.87,1.43
	c0,0,0.27,0.39,0.77,0.05c1.31-0.86,2.59-2.29,3.09-2.9c0.49-0.62,1.63-2.15,2.19-3.61c0.23-0.56-0.22-0.72-0.22-0.72L16.81,9.7
	c0,0-0.67-0.47-0.2-1.04l2.69-3.25c0,0,0.46-0.44,1.06,0.04C20.95,5.92,26.15,9.29,19.48,17.56z"/>
</svg>
