<?xml version="1.0" encoding="iso-8859-1"?>
<!-- Generator: Adobe Illustrator 13.0.0, SVG Export Plug-In . SVG Version: 6.00 Build 14948)  -->
<!DOCTYPE svg PUBLIC "-//W3C//DTD SVG 1.1//EN" "http://www.w3.org/Graphics/SVG/1.1/DTD/svg11.dtd">
<svg version="1.1" id="Ebene_1" xmlns="http://www.w3.org/2000/svg" xmlns:xlink="http://www.w3.org/1999/xlink" x="0px" y="0px"
	 width="30px" height="28px" viewBox="-3.5 -2.5 30 28" enable-background="new -3.5 -2.5 30 28" xml:space="preserve">
<rect x="-0.5" y="-0.5" fill="none" width="30" height="28"/>
<path fill="#FFFFFF" d="M21.42,8.75c-0.62-1.09-1.5-1.96-2.61-2.59c-1.13-0.64-2.48-0.96-4.04-0.96c-0.02,0-0.04,0-0.06,0
	c-1.65,0-3.08,0.34-4.29,1.05c-1.21,0.7-2.15,1.72-2.8,3.01c-0.65,1.28-0.97,2.68-0.98,4.17h0c0,0.04,0,0.07,0,0.08
	c0,1.48,0.31,2.88,0.94,4.18c0.64,1.32,1.58,2.35,2.81,3.06c1.22,0.7,2.56,1.06,4,1.07c0.01,0,0.02,0,0.04,0h0
	c1.32,0,2.58-0.31,3.76-0.92l0.18-0.09l0.01-2.32l-0.52,0.34c-1.16,0.76-2.31,1.13-3.46,1.13c-0.02,0-0.02,0-0.02,0
	c-0.96,0-1.92-0.27-2.91-0.82c-0.97-0.53-1.67-1.32-2.14-2.4c-0.47-1.09-0.7-2.2-0.7-3.34c0,0,0-0.01,0-0.02
	c0.01-1.2,0.26-2.29,0.76-3.3c0.5-1,1.21-1.73,2.15-2.25c0.94-0.51,1.97-0.77,3.11-0.77c0.01,0,0.02,0,0.03,0
	c1.07,0.01,2.04,0.24,2.94,0.7c0.9,0.46,1.57,1.1,2.06,1.92c0.47,0.81,0.72,1.75,0.72,2.82c0,0.03,0,0.03,0,0.03
	c-0.01,0.96-0.22,1.67-0.6,2.18c-0.4,0.52-0.8,0.73-1.24,0.74h0c-0.29,0-0.49-0.1-0.68-0.34c-0.16-0.18-0.3-0.71-0.29-1.56
	c0-0.01,0-0.02,0-0.02l0.02-4.55l-2.23-0.01c-0.02,0-0.05,0-0.07,0c-1.25,0-2.21,0.16-2.91,0.51c-0.7,0.35-1.26,0.94-1.67,1.72
	c-0.41,0.76-0.62,1.56-0.62,2.36c0,0.02,0,0.04,0,0.04c0,0.61,0.12,1.2,0.35,1.74c0.24,0.55,0.61,1,1.1,1.32
	c0.49,0.32,1.01,0.49,1.56,0.49h0.05l0,0c0.52-0.01,1.04-0.2,1.53-0.53c0.32-0.22,0.62-0.5,0.9-0.82c0.17,0.43,0.45,0.77,0.84,1.01
	c0.53,0.34,1.13,0.51,1.78,0.51h0.04l0.01,0c0.73,0,1.42-0.22,2.04-0.64c0.64-0.43,1.14-1.02,1.5-1.75c0.36-0.74,0.54-1.6,0.54-2.55
	v-0.02c0,0,0,0,0-0.02C22.35,11.04,22.04,9.83,21.42,8.75z M15.76,13.26c-0.6,0.86-1.08,1.42-1.45,1.67
	c-0.36,0.25-0.71,0.37-1.04,0.37c-0.29,0-0.55-0.13-0.8-0.38c-0.25-0.26-0.37-0.7-0.37-1.33c0-0.56,0.09-1.06,0.26-1.5
	c0.18-0.43,0.45-0.81,0.84-1.12c0.21-0.17,0.45-0.29,0.72-0.36c0.27-0.07,0.68-0.11,1.22-0.1l0.62,0L15.76,13.26z"/>
</svg>
