<?xml version="1.0" encoding="iso-8859-1"?>
<!-- Generator: Adobe Illustrator 13.0.0, SVG Export Plug-In . SVG Version: 6.00 Build 14948)  -->
<!DOCTYPE svg PUBLIC "-//W3C//DTD SVG 1.1//EN" "http://www.w3.org/Graphics/SVG/1.1/DTD/svg11.dtd">
<svg version="1.1" id="Ebene_1" xmlns="http://www.w3.org/2000/svg" xmlns:xlink="http://www.w3.org/1999/xlink" x="0px" y="0px"
	 width="30px" height="28px" viewBox="0 0 30 28" style="enable-background:new 0 0 30 28;" xml:space="preserve">
<path style="fill:#FFFFFF;" d="M7.61,8.45v11.08h14.77V8.45H7.61z M17.77,14.06l3.22,3.35c0.15,0.15,0.15,0.4,0,0.55l-0.2,0.21
	c-0.07,0.07-0.16,0.11-0.26,0.11s-0.19-0.04-0.26-0.11l-3.22-3.34l-0.12-0.12l-0.12,0.12l-1.53,1.58c-0.07,0.07-0.16,0.11-0.26,0.11
	s-0.19-0.04-0.26-0.11l-1.53-1.58l-0.12-0.12l-0.12,0.12l-3.22,3.35c-0.07,0.07-0.16,0.11-0.26,0.11c-0.1,0-0.19-0.04-0.26-0.11
	l-0.2-0.21c-0.15-0.15-0.15-0.4,0-0.55l3.22-3.35l0.11-0.11l-0.11-0.11l-3.18-3.37c-0.15-0.15-0.15-0.4,0-0.55l0.2-0.21
	c0.07-0.07,0.16-0.11,0.26-0.11c0.1,0,0.19,0.04,0.26,0.11l5.12,5.33l0.12,0.12l0.12-0.12l5.12-5.33c0.07-0.07,0.16-0.11,0.26-0.11
	c0.1,0,0.19,0.04,0.26,0.11l0.2,0.21c0.15,0.15,0.15,0.4,0,0.55l-3.22,3.35l-0.11,0.11L17.77,14.06z"/>
<rect style="fill:none;" width="30" height="28"/>
</svg>
