<?xml version="1.0" encoding="iso-8859-1"?>
<!-- Generator: Adobe Illustrator 13.0.0, SVG Export Plug-In . SVG Version: 6.00 Build 14948)  -->
<!DOCTYPE svg PUBLIC "-//W3C//DTD SVG 1.1//EN" "http://www.w3.org/Graphics/SVG/1.1/DTD/svg11.dtd">
<svg version="1.1" id="Ebene_1" xmlns="http://www.w3.org/2000/svg" xmlns:xlink="http://www.w3.org/1999/xlink" x="0px" y="0px"
	 width="30px" height="28px" viewBox="0 0 30 28" style="enable-background:new 0 0 30 28;" xml:space="preserve">
<path style="fill:#FFFFFF;" d="M5.82,7.11v13.85h18.46V7.11H5.82z M18.53,14.13l4.02,4.18c0.18,0.19,0.18,0.5,0,0.69l-0.25,0.26
	c-0.09,0.09-0.2,0.14-0.32,0.14c-0.12,0-0.24-0.05-0.32-0.14l-4.02-4.18l-0.15-0.15l-0.15,0.15l-1.91,1.98
	c-0.08,0.09-0.2,0.14-0.32,0.14c-0.12,0-0.24-0.05-0.32-0.14l-1.91-1.98l-0.15-0.15l-0.15,0.15l-4.02,4.18
	c-0.08,0.09-0.2,0.14-0.32,0.14c-0.12,0-0.24-0.05-0.32-0.14L7.67,19c-0.19-0.19-0.19-0.5,0-0.69l4.03-4.19l0.14-0.14l-0.14-0.14
	L7.67,9.66c-0.18-0.19-0.18-0.5,0-0.69L7.92,8.7C8,8.62,8.12,8.57,8.24,8.57c0.12,0,0.24,0.05,0.32,0.14l6.4,6.66l0.15,0.15
	l0.15-0.15l6.4-6.66c0.09-0.09,0.2-0.14,0.32-0.14c0.12,0,0.23,0.05,0.32,0.14l0.25,0.26c0.18,0.19,0.18,0.5,0,0.69l-4.03,4.19
	l-0.14,0.14L18.53,14.13z"/>
<rect style="fill:none;" width="30" height="28"/>
</svg>
