<?xml version="1.0" encoding="iso-8859-1"?>
<!-- Generator: Adobe Illustrator 13.0.2, SVG Export Plug-In . SVG Version: 6.00 Build 14948)  -->
<!DOCTYPE svg PUBLIC "-//W3C//DTD SVG 1.1//EN" "http://www.w3.org/Graphics/SVG/1.1/DTD/svg11.dtd">
<svg version="1.1" id="Ebene_1" xmlns="http://www.w3.org/2000/svg" xmlns:xlink="http://www.w3.org/1999/xlink" x="0px" y="0px"
	 width="15px" height="15px" viewBox="0 0 15 15" enable-background="new 0 0 15 15" xml:space="preserve">
<g>
	<g>
		<path fill="#FFFFFF" d="M11.67,9.36c-0.2,0-0.41,0.03-0.59,0.09L8.95,5.12c0.53-0.43,0.88-1.07,0.88-1.8C9.82,2.04,8.78,1,7.5,1
			C6.22,1,5.18,2.04,5.18,3.32c0,0.74,0.36,1.39,0.89,1.82L3.94,9.45C3.74,9.4,3.54,9.36,3.32,9.36C2.04,9.36,1,10.4,1,11.68
			C1,12.96,2.04,14,3.32,14c1.22,0,2.2-0.94,2.3-2.13h3.76c0.1,1.19,1.08,2.13,2.3,2.13c1.28,0,2.33-1.04,2.33-2.32
			C14,10.4,12.96,9.36,11.67,9.36z M9.72,10.46H5.28c-0.05-0.07-0.09-0.14-0.14-0.21l2.27-4.61c0.02,0,0.06,0.01,0.09,0.01
			c0.04,0,0.08-0.01,0.11-0.01l2.26,4.6C9.82,10.3,9.77,10.38,9.72,10.46z"/>
	</g>
</g>
</svg>
