<?xml version="1.0" encoding="iso-8859-1"?>
<!-- Generator: Adobe Illustrator 13.0.2, SVG Export Plug-In . SVG Version: 6.00 Build 14948)  -->
<!DOCTYPE svg PUBLIC "-//W3C//DTD SVG 1.1//EN" "http://www.w3.org/Graphics/SVG/1.1/DTD/svg11.dtd">
<svg version="1.1" id="Ebene_1" xmlns="http://www.w3.org/2000/svg" xmlns:xlink="http://www.w3.org/1999/xlink" x="0px" y="0px"
	 width="23.96px" height="23.96px" viewBox="0 0 23.96 23.96" enable-background="new 0 0 23.96 23.96" xml:space="preserve">
<rect x="2.76" y="2.77" fill="none" width="18.43" height="18.43"/>
<path fill="#FFFFFF" d="M19.33,8.06c0.25-0.24-0.33-1.21-1.28-2.16c-0.95-0.95-1.92-1.52-2.16-1.28l-8.46,8.46l-2.87,6.3l6.3-2.86
	L19.33,8.06z M6.35,17.58c-0.11-0.11-0.04-0.27-0.04-0.27l1.75-3.74c0,0,1.15-0.08,1.83,0.68c0.58,0.65,0.58,1.64,0.58,1.64
	l-3.79,1.77C6.67,17.65,6.46,17.68,6.35,17.58z"/>
</svg>
