<?xml version="1.0" encoding="iso-8859-1"?>
<!-- Generator: Adobe Illustrator 13.0.2, SVG Export Plug-In . SVG Version: 6.00 Build 14948)  -->
<!DOCTYPE svg PUBLIC "-//W3C//DTD SVG 1.1//EN" "http://www.w3.org/Graphics/SVG/1.1/DTD/svg11.dtd">
<svg version="1.1" id="Ebene_1" xmlns="http://www.w3.org/2000/svg" xmlns:xlink="http://www.w3.org/1999/xlink" x="0px" y="0px"
	 width="15px" height="15px" viewBox="0 0 15 15" enable-background="new 0 0 15 15" xml:space="preserve">
<path fill="#B4101D" d="M13,1H2C1.59,1,1,1.59,1,2v11c0,0.41,0.59,1,1,1h11c0.41,0,1-0.59,1-1V2C14,1.59,13.41,1,13,1z M12,9h-2v4H8
	V9H7.01L7,7h1c0,0,0-0.96,0-1.73C8,4,8.45,3,11,3c0.7,0,1,0,1,0v1.66c0,0-0.43,0-1,0c-0.89,0-1,0.34-1,0.82V7h2V9z"/>
</svg>
