<?xml version="1.0" encoding="iso-8859-1"?>
<!-- Generator: Adobe Illustrator 13.0.2, SVG Export Plug-In . SVG Version: 6.00 Build 14948)  -->
<!DOCTYPE svg PUBLIC "-//W3C//DTD SVG 1.1//EN" "http://www.w3.org/Graphics/SVG/1.1/DTD/svg11.dtd">
<svg version="1.1" id="Ebene_1" xmlns="http://www.w3.org/2000/svg" xmlns:xlink="http://www.w3.org/1999/xlink" x="0px" y="0px"
	 width="15px" height="15px" viewBox="0 0 15 15" enable-background="new 0 0 15 15" xml:space="preserve">
<g>
	<path fill="#333333" d="M12,1H3C2.05,1,1,2.05,1,3c0,0,0,6.75,0,9c0,0.95,1.05,2,2,2h9c0.95,0,2-1.05,2-2V3C14,2.05,12.95,1,12,1z
		 M12,4.66c0,0-0.43,0-1,0c-0.89,0-1,0.34-1,0.82V7h2v2h-2v4H8V9H7.01L7,7h1c0,0,0-0.96,0-1.73C8,4,8.45,3,11,3c0.7,0,1,0,1,0V4.66z
		"/>
</g>
</svg>
