<?xml version="1.0" encoding="utf-8"?>
<!-- Generator: Adobe Illustrator 14.0.0, SVG Export Plug-In . SVG Version: 6.00 Build 43363)  -->
<!DOCTYPE svg PUBLIC "-//W3C//DTD SVG 1.1//EN" "http://www.w3.org/Graphics/SVG/1.1/DTD/svg11.dtd">
<svg version="1.1" id="Layer_1" xmlns="http://www.w3.org/2000/svg" xmlns:xlink="http://www.w3.org/1999/xlink" x="0px" y="0px"
	 width="27px" height="27px" viewBox="0 0 27 27" enable-background="new 0 0 27 27" xml:space="preserve">
<rect x="2.0039063" y="0.9941406" opacity="0.22" width="23" height="1"/>
<rect x="3.0039063" y="21.9941406" opacity="0.22" width="21.0019531" height="1"/>
<rect x="2.0043945" y="22.9941406" opacity="0.2" width="23.0004883" height="1"/>
<rect x="2.0043945" y="23.9941406" opacity="0.15" width="23.0004883" height="1"/>
<rect x="1.0043945" y="24.9941406" opacity="0.08" width="25.0004883" height="1"/>
<rect x="2.0039063" y="1.9941406" opacity="0.15" width="1" height="21.0019531"/>
<rect x="1.0039063" y="1.9941406" opacity="0.08" width="1" height="23.0019531"/>
<rect x="24.0039063" y="1.9941406" opacity="0.15" width="1" height="21.0019531"/>
<rect x="25.0039063" y="1.9921875" opacity="0.08" width="1" height="23.0019531"/>
<rect x="3.0039063" y="1.9785156" fill="#FFFFFF" width="21" height="20"/>
<rect x="2.0039063" y="-0.0058594" opacity="0.03" width="23" height="1"/>
<polygon opacity="0.03" points="1.0039063,4.0019531 1.0039063,25.9570313 25.9960938,25.9570313 25.9960938,3.9863281 
	26.9960938,3.9863281 26.9960938,27.0019531 0.0039063,27.0019531 0.0039063,4.0019531 "/>
</svg>
