<?xml version="1.0" encoding="iso-8859-1"?>
<!-- Generator: Adobe Illustrator 13.0.0, SVG Export Plug-In . SVG Version: 6.00 Build 14948)  -->
<!DOCTYPE svg PUBLIC "-//W3C//DTD SVG 1.1//EN" "http://www.w3.org/Graphics/SVG/1.1/DTD/svg11.dtd">
<svg version="1.1" id="Layer_1" xmlns="http://www.w3.org/2000/svg" xmlns:xlink="http://www.w3.org/1999/xlink" x="0px" y="0px"
	 width="27px" height="27px" viewBox="0 0 27 27" enable-background="new 0 0 27 27" xml:space="preserve">
<rect x="2" y="0.99" opacity="0.22" enable-background="new    " width="23" height="1"/>
<rect x="3" y="21.99" opacity="0.22" enable-background="new    " width="21" height="1"/>
<rect x="2" y="22.99" opacity="0.2" enable-background="new    " width="23" height="1"/>
<rect x="2" y="23.99" opacity="0.15" enable-background="new    " width="23" height="1"/>
<rect x="1" y="24.99" opacity="0.08" enable-background="new    " width="25" height="1"/>
<rect x="2" y="1.99" opacity="0.15" enable-background="new    " width="1" height="21"/>
<rect x="1" y="1.99" opacity="0.08" enable-background="new    " width="1" height="23"/>
<rect x="24" y="1.99" opacity="0.15" enable-background="new    " width="1" height="21"/>
<rect x="25" y="1.99" opacity="0.08" enable-background="new    " width="1" height="23"/>
<rect x="3" y="1.98" fill="#D36666" width="21" height="20"/>
<rect x="2" y="-0.01" opacity="0.03" enable-background="new    " width="23" height="1"/>
<polygon opacity="0.03" enable-background="new    " points="1,4 1,25.96 26,25.96 26,3.99 27,3.99 27,27 0,27 0,4 "/>
</svg>
