<?xml version="1.0" encoding="iso-8859-1"?>
<!-- Generator: Adobe Illustrator 13.0.2, SVG Export Plug-In . SVG Version: 6.00 Build 14948)  -->
<!DOCTYPE svg PUBLIC "-//W3C//DTD SVG 1.1//EN" "http://www.w3.org/Graphics/SVG/1.1/DTD/svg11.dtd">
<svg version="1.1" id="Ebene_1" xmlns="http://www.w3.org/2000/svg" xmlns:xlink="http://www.w3.org/1999/xlink" x="0px" y="0px"
	 width="15px" height="15px" viewBox="0 0 15 15" enable-background="new 0 0 15 15" xml:space="preserve">
<g>
	<path fill="#333333" d="M8.08,8.91c-0.13,0-0.92,0.03-1.54,0.23C6.22,9.26,5.29,9.6,5.29,10.63c0,1.02,1.01,1.76,2.58,1.76
		c1.41,0,2.15-0.66,2.15-1.56c0-0.74-0.48-1.12-1.59-1.91C8.3,8.91,8.23,8.91,8.08,8.91z"/>
	<path fill="#333333" d="M7.37,2.48c-0.38,0-0.79,0.19-1.03,0.48c-0.25,0.3-0.32,0.69-0.32,1.07c0,0.97,0.57,2.57,1.83,2.57
		c0.36,0,0.76-0.17,0.99-0.4c0.34-0.33,0.37-0.79,0.37-1.06C9.21,4.09,8.58,2.48,7.37,2.48z"/>
	<path fill="#333333" d="M12,1H3C2.05,1,1,2.05,1,3c0,0,0,6.75,0,9c0,0.95,1.05,2,2,2h9c0.95,0,2-1.05,2-2V3C14,2.05,12.95,1,12,1z
		 M10.5,4.47c0,1.07-0.61,1.57-1.23,2.05C9.08,6.71,8.86,6.91,8.86,7.22c0,0.32,0.22,0.49,0.38,0.62l0.53,0.41
		C10.41,8.79,11,9.27,11,10.27C11,11.63,9.66,13,7.15,13C5.02,13,4,12,4,10.93c0-0.52,0.26-1.25,1.13-1.76
		c0.9-0.55,2.14-0.62,2.79-0.67C7.72,8.25,7.48,7.97,7.48,7.53c0-0.25,0.07-0.39,0.15-0.56C7.47,6.98,7.31,6.99,7.16,6.99
		c-1.55,0-2.43-1.14-2.43-2.27c0-0.66,0.31-1.4,0.94-1.93C6.5,2.11,7.5,2,8.29,2h3.01l-0.93,0.52H9.46
		C9.79,2.79,10.5,3.37,10.5,4.47z"/>
	<path fill="#FFFFFF" d="M11.3,2H8.29C7.5,2,6.5,2.11,5.67,2.79C5.04,3.33,4.73,4.06,4.73,4.73c0,1.13,0.88,2.27,2.43,2.27
		c0.15,0,0.31-0.02,0.47-0.03C7.56,7.14,7.48,7.28,7.48,7.53c0,0.45,0.23,0.72,0.44,0.98C7.26,8.55,6.03,8.63,5.13,9.17
		C4.26,9.68,4,10.42,4,10.93C4,12,5.02,13,7.15,13C9.66,13,11,11.63,11,10.27c0-1-0.59-1.49-1.23-2.02L9.24,7.84
		c-0.16-0.12-0.38-0.3-0.38-0.62c0-0.32,0.22-0.52,0.41-0.71c0.62-0.48,1.23-0.98,1.23-2.05c0-1.1-0.7-1.68-1.04-1.95h0.91L11.3,2z
		 M10.01,10.83c0,0.9-0.75,1.56-2.15,1.56c-1.56,0-2.58-0.73-2.58-1.76c0-1.03,0.94-1.37,1.26-1.49c0.61-0.2,1.41-0.23,1.54-0.23
		c0.15,0,0.22,0,0.34,0.01C9.53,9.71,10.01,10.1,10.01,10.83z M8.84,6.19c-0.23,0.23-0.63,0.4-0.99,0.4c-1.26,0-1.83-1.6-1.83-2.57
		c0-0.38,0.07-0.76,0.32-1.07c0.23-0.29,0.64-0.48,1.03-0.48c1.21,0,1.84,1.62,1.84,2.65C9.21,5.39,9.18,5.85,8.84,6.19z"/>
</g>
</svg>
