<?xml version="1.0" encoding="iso-8859-1"?>
<!-- Generator: Adobe Illustrator 13.0.2, SVG Export Plug-In . SVG Version: 6.00 Build 14948)  -->
<!DOCTYPE svg PUBLIC "-//W3C//DTD SVG 1.1//EN" "http://www.w3.org/Graphics/SVG/1.1/DTD/svg11.dtd">
<svg version="1.1" id="Ebene_1" xmlns="http://www.w3.org/2000/svg" xmlns:xlink="http://www.w3.org/1999/xlink" x="0px" y="0px"
	 width="15px" height="15px" viewBox="0 0 15 15" enable-background="new 0 0 15 15" xml:space="preserve">
<g>
	<g>
		<path fill="#FFFFFF" d="M5.48,6.4C5.08,5.88,3.41,6.82,3.01,7.66C2.6,8.49,3.37,3.19,3.37,3.19S2.4,2.59,2.28,3.53
			C2.16,4.47,1.06,10.79,1,11.4s1.19,0,1.19,0s0.06-2.37,1.57-3.59c1.52-1.21-0.35,4.14,0.32,4.17c0.67,0.03,1.25-0.4,1.25-0.4
			l-0.18-0.49C5.16,11.08,5.89,6.92,5.48,6.4z"/>
	</g>
	<g>
		<path fill="#FFFFFF" d="M7.24,6.4c-0.44,0.26-1.29,4.43-1.11,5.09c0.18,0.67,1.11-0.38,1.11-0.38s-0.04-0.93,0.14-2.17
			c0.18-1.24,0.35-2.4,0.35-2.4S7.68,6.14,7.24,6.4z"/>
	</g>
	<g>
		<path fill="#FFFFFF" d="M13.98,3.17c-0.03-0.02-0.06-0.03-0.1-0.04c-0.04-0.01-0.08-0.01-0.13,0.01c-0.04,0.01-0.08,0.03-0.1,0.05
			c-0.05,0.06-0.12,0.14-0.21,0.23c-0.09,0.09-0.2,0.13-0.33,0.13h-2.87c-0.15,0.54-0.3,1.09-0.45,1.64
			c-0.15,0.56-0.4,1.4-0.55,1.97C9.19,7.29,9.19,7.37,9.21,7.42C9.23,7.48,9.31,7.5,9.45,7.5c0.02,0,0.25-0.24,0.42-0.3
			c0.17-0.05,1.56-0.5,2.32,0.36c0.25,0.33,0.26,0.82,0.11,1.51c-0.07,0.34-0.17,0.67-0.29,0.96c-0.12,0.3-0.27,0.56-0.45,0.78
			c-0.18,0.22-0.39,0.39-0.64,0.52c-0.24,0.13-0.52,0.19-0.83,0.19c-0.12,0-0.24-0.01-0.36-0.02c-0.12-0.01-0.23-0.04-0.33-0.07
			c-0.1-0.03-0.18-0.07-0.23-0.12C9.1,11.27,9.08,11.2,9.1,11.13c0.02-0.08,0.23-0.49,0.28-0.54c0.05-0.05,0.08-0.11,0.1-0.2
			c0.03-0.13,0-0.23-0.08-0.31c-0.08-0.07-0.19-0.11-0.31-0.11c-0.17,0-0.33,0.05-0.48,0.17c-0.15,0.11-0.43,0.63-0.48,0.83
			c-0.05,0.2-0.03,0.36,0.06,0.49c0.09,0.13,0.22,0.23,0.39,0.32c0.17,0.08,0.36,0.14,0.58,0.17C9.37,11.98,9.58,12,9.78,12
			c0.51,0,0.98-0.07,1.42-0.21c0.44-0.14,0.82-0.34,1.15-0.6c0.33-0.25,0.6-0.56,0.83-0.92c0.22-0.36,0.37-0.76,0.46-1.19
			c0.09-0.44,0.53-2.8-0.78-3.01c-1.12-0.33-2.84,0.56-2.96,0.62c0.11-0.37,0.21-0.73,0.3-1.1c0.09-0.36,0.19-0.72,0.29-1.07l3.44,0
			C13.98,4.43,14,3.24,14,3.24S14.01,3.18,13.98,3.17z"/>
	</g>
	<g>
		<polygon fill="#FFFFFF" points="7.2,5.99 7.71,5.73 8.21,6 8.15,5.48 8.53,5.14 7.99,5 7.71,4.54 7.42,5 6.89,5.13 7.26,5.48 		
			"/>
	</g>
</g>
</svg>
