<?xml version="1.0" encoding="iso-8859-1"?>
<!-- Generator: Adobe Illustrator 13.0.2, SVG Export Plug-In . SVG Version: 6.00 Build 14948)  -->
<!DOCTYPE svg PUBLIC "-//W3C//DTD SVG 1.1//EN" "http://www.w3.org/Graphics/SVG/1.1/DTD/svg11.dtd">
<svg version="1.1" id="Ebene_1" xmlns="http://www.w3.org/2000/svg" xmlns:xlink="http://www.w3.org/1999/xlink" x="0px" y="0px"
	 width="15px" height="15px" viewBox="0 0 15 15" enable-background="new 0 0 15 15" xml:space="preserve">
<g>
	<path fill="#FFFFFF" d="M12,1H3C2.05,1,1,2.05,1,3c0,0,0,6.75,0,9c0,0.95,1.05,2,2,2h9c0.95,0,2-1.05,2-2V3C14,2.05,12.95,1,12,1z
		 M11.89,10.75L11.23,11c-0.17,0.06-0.96,0.12-1.26,0.18c-0.26,0.04-0.42,0.06-0.51,0.06c-0.2,0.01-0.37-0.07-0.56-0.24
		c-0.18-0.17-0.28-0.63-0.28-0.74c-0.01-0.11,0.11-0.2,0.33-0.29L9.1,9.94c0.16-0.03,0.1-0.06,0.14-0.07
		c0.02-0.02,0.04-0.08,0.06-0.2c0.01-0.01,0-0.11-0.03-0.27C9.25,9.32,9.24,9.38,9.24,9.26C9.23,9.13,9.21,9.04,9.21,8.97L9.18,8.52
		C9.18,8.5,9.17,8.49,9.13,8.47L8.67,8.5C8.48,8.52,8.32,8.55,8.21,8.57L7.54,8.7c-0.1,0.01-0.23,0.03-0.41,0.08L6.52,8.96
		C6.23,9.07,6.2,9.14,6.15,9.19c-0.07,0.05-0.1,0.16-0.1,0.34L6.06,9.9c0,0.17,0,0.13,0.02,0.25c0.01,0.2,0.02,0.3,0.07,0.33
		c0.02,0.04,0.09,0.06,0.2,0.07h0.07c0.05,0,0.09,0.01,0.12,0.02c0.04,0.02,0.12,0.07,0.25,0.16s0.18,0.2,0.19,0.31
		c0,0.16-0.1,0.44-0.27,0.52c-0.19,0.1-0.33,0.16-0.41,0.18c-0.07,0.02-0.18,0.06-0.32,0.08l-1.16,0.11
		C4.77,11.96,4.66,11.98,4.48,12C4.29,12.01,4.14,11.97,4,11.88L3.9,11.79c-0.15-0.14-0.23-0.57-0.24-0.68
		c0-0.15,0.15-0.28,0.47-0.39l0.39-0.08c0.04-0.02,0.06-0.07,0.04-0.2c-0.03-0.19-0.07-0.22-0.08-0.4l-0.05-0.5
		C4.4,9.39,4.39,9.16,4.38,8.83L4.23,7.04L4.17,5.78c0-0.16-0.01-0.25-0.02-0.29C4.14,5.43,4.12,5.4,4.11,5.38L4.06,5.35
		c-0.17-0.01-0.5-0.05-0.7-0.13l-0.14-0.1c-0.18-0.19-0.25-0.52-0.2-0.65C3.04,4.39,3.1,4.32,3.19,4.26
		c0.13-0.07,0.44-0.14,0.63-0.19l1.23-0.21C5.33,3.8,5.8,3.75,6,3.73c0.17,0,0.35,0.06,0.54,0.18c0.17,0.13,0.27,0.45,0.27,0.64
		c0,0.14-0.03,0.23-0.1,0.26L6.53,4.9c-0.06,0.02-0.1,0.03-0.12,0.04L5.96,5.08c-0.04,0-0.07,0.07-0.07,0.21l0.04,1.75l0.02,0.2
		C5.98,7.4,6.03,7.48,6.12,7.47c0.08,0,0.18-0.05,0.58-0.15c0.36-0.1,0.81-0.19,1.34-0.29L8.9,6.91C9.01,6.9,9.09,6.87,9.13,6.83
		c0.04-0.05,0.06-0.14,0.06-0.27L9.15,6.12C9.14,5.89,9.14,5.87,9.13,5.73C9.11,5.65,9.11,5.49,9.11,5.25
		C9.1,4.93,9.1,4.92,9.09,4.89C9.09,4.75,9.04,4.65,8.98,4.63L8.86,4.59C8.8,4.58,8.75,4.56,8.7,4.55C8.65,4.53,8.55,4.48,8.41,4.36
		c-0.13-0.1-0.21-0.4-0.22-0.57c-0.01-0.11,0.02-0.2,0.09-0.24L8.5,3.42c0.14-0.06,0.24-0.11,0.32-0.13l0.59-0.17l1.07-0.09
		c0.04-0.01,0.15-0.02,0.35-0.03c0.17-0.01,0.15,0.01,0.25,0.04c0.09,0.03,0.47,0.13,0.55,0.32c0.08,0.18,0.12,0.47,0.12,0.53
		c0.01,0.06-0.01,0.1-0.04,0.12l-0.47,0.25l-0.44,0.08c-0.06,0.09-0.1,0.18-0.12,0.29c0,0.11,0,0.23,0.03,0.68l0.17,4.35
		c0.02,0.09,0.35,0.14,0.47,0.14l0.18-0.02c0.07,0,0.15,0.05,0.25,0.15c0.11,0.1,0.17,0.38,0.21,0.52
		C12.02,10.57,11.98,10.67,11.89,10.75z"/>
</g>
</svg>
