<?xml version="1.0" encoding="iso-8859-1"?>
<!-- Generator: Adobe Illustrator 13.0.2, SVG Export Plug-In . SVG Version: 6.00 Build 14948)  -->
<!DOCTYPE svg PUBLIC "-//W3C//DTD SVG 1.1//EN" "http://www.w3.org/Graphics/SVG/1.1/DTD/svg11.dtd">
<svg version="1.1" id="Ebene_1" xmlns="http://www.w3.org/2000/svg" xmlns:xlink="http://www.w3.org/1999/xlink" x="0px" y="0px"
	 width="15px" height="15px" viewBox="0 0 15 15" enable-background="new 0 0 15 15" xml:space="preserve">
<g>
	<path fill="#333333" d="M10.85,1.77c0.1,0.21,0.17,0.46,0.17,0.73l-0.07,0.46c-0.08,0.23-0.19,0.44-0.32,0.62L8.72,5.87
		c-0.19-0.14-0.4-0.25-0.61-0.35L7.9,3.17L7.88,2.33L7.9,2.13C8,1.71,8.3,1.4,8.68,1.19c0.38-0.21,0.81-0.25,1.21-0.1
		C10.34,1.19,10.66,1.42,10.85,1.77L10.85,1.77z"/>
	<path fill="#333333" d="M4.26,2.19c0.02-0.37,0.17-0.62,0.42-0.77C4.81,1.32,5,1.32,5.17,1.4c0.38,0.1,0.7,0.37,0.96,0.9
		C6.24,2.5,6.34,2.71,6.38,2.96l0.43,2.45l-0.32,0.1L4.6,3.5L4.49,3.29C4.32,2.92,4.22,2.56,4.26,2.19L4.26,2.19z"/>
	<path fill="#333333" d="M3.11,4.62l0.57,0.23l1.87,1.33C5.39,6.39,5.28,6.6,5.22,6.81L2.15,7.18L1.94,7.14
		C1.56,7.08,1.3,6.91,1.13,6.6C0.96,6.29,0.96,5.98,1.09,5.66c0.15-0.39,0.42-0.71,0.83-0.87C2.3,4.58,2.69,4.52,3.11,4.62
		L3.11,4.62z"/>
	<path fill="#333333" d="M5.13,8.02l0.15,0.42l0.06,0.15C5.02,8.85,4.79,9.1,4.54,9.33L3.9,9.85l-0.17,0.1
		c-0.41,0.19-0.75,0.25-1.11,0.21c-0.32-0.02-0.57-0.12-0.68-0.31L1.88,9.62l0.04-0.19C2.02,9.12,2.3,8.81,2.79,8.58
		c0.25-0.1,0.47-0.21,0.64-0.25L5.13,8.02L5.13,8.02z"/>
	<path fill="#333333" d="M11.77,4.64c0.38-0.17,0.74-0.21,1.13-0.17c0.36,0.04,0.62,0.21,0.74,0.46l0.09,0.27l-0.04,0.21
		c-0.15,0.38-0.47,0.67-1,0.89c-0.21,0.11-0.45,0.15-0.7,0.19L9.36,6.81L9.32,6.66L9.28,6.6l0.08-0.1l2.15-1.75L11.77,4.64
		L11.77,4.64z"/>
	<path fill="#333333" d="M6.34,6.62c0.25-0.23,0.6-0.37,1-0.37c0.38,0,0.74,0.15,0.98,0.37c0.3,0.29,0.42,0.6,0.42,0.98
		c0,0.38-0.13,0.73-0.42,0.98C8.04,8.85,7.73,8.99,7.34,8.99c-0.4,0-0.74-0.15-1-0.42C6.07,8.33,5.92,7.97,5.92,7.6
		C5.92,7.22,6.07,6.91,6.34,6.62L6.34,6.62z"/>
	<path fill="#333333" d="M6.83,9.64c0.04,0.71,0.11,1.46,0.21,2.27v0.83l-0.02,0.21c-0.15,0.37-0.4,0.69-0.79,0.85
		c-0.38,0.21-0.79,0.25-1.17,0.15c-0.43-0.1-0.75-0.35-0.91-0.69c-0.11-0.21-0.19-0.46-0.19-0.71l0.1-0.48
		c0.04-0.21,0.15-0.42,0.32-0.58l1.79-2.08C6.38,9.51,6.6,9.62,6.83,9.64L6.83,9.64z"/>
	<path fill="#333333" d="M8.47,9.37l0.89,0.9l0.55,0.67l0.11,0.21c0.19,0.35,0.29,0.69,0.26,1.08c-0.04,0.38-0.17,0.64-0.43,0.75
		c-0.15,0.1-0.32,0.1-0.49,0.08c-0.4-0.11-0.72-0.42-0.96-0.92l-0.26-0.69L7.83,9.64l0.36-0.12L8.47,9.37L8.47,9.37z"/>
	<path fill="#333333" d="M9.43,8.08l2.4-0.21l0.85-0.02l0.21,0.02c0.32,0.1,0.62,0.29,0.79,0.6C13.89,8.7,14,9.01,14,9.37
		l-0.06,0.42c-0.1,0.42-0.36,0.73-0.72,0.89c-0.38,0.21-0.76,0.25-1.19,0.11c-0.25-0.06-0.42-0.17-0.57-0.33L9.21,8.64l0.15-0.31
		L9.43,8.08L9.43,8.08z"/>
</g>
</svg>
