<?xml version="1.0" encoding="iso-8859-1"?>
<!-- Generator: Adobe Illustrator 13.0.2, SVG Export Plug-In . SVG Version: 6.00 Build 14948)  -->
<!DOCTYPE svg PUBLIC "-//W3C//DTD SVG 1.1//EN" "http://www.w3.org/Graphics/SVG/1.1/DTD/svg11.dtd">
<svg version="1.1" id="Ebene_1" xmlns="http://www.w3.org/2000/svg" xmlns:xlink="http://www.w3.org/1999/xlink" x="0px" y="0px"
	 width="15px" height="15px" viewBox="0 0 15 15" enable-background="new 0 0 15 15" xml:space="preserve">
<path fill="#B4101D" d="M12,1H3C1.85,1,1,1.85,1,3v9c0,1.15,0.85,2,2,2h9c1.16,0,2-0.85,2-2V3C14,1.85,13.16,1,12,1z"/>
<g>
	<circle fill="#FFFFFF" cx="4.01" cy="4.16" r="1.16"/>
	<rect x="3" y="5.98" fill="#FFFFFF" width="2" height="6.02"/>
	<path fill="#FFFFFF" d="M12.01,7.84H12C11.9,7.44,11.43,6,9.62,6c-0.9,0-1.54,0.65-1.75,0.88v-0.9H6V12h1.87V7.8
		c0.21-0.13,0.86-0.5,1.36-0.5c0.6,0,0.92,0.54,0.92,0.54V12h1.87V7.94h0.01c0,0,0-0.02-0.01-0.04V7.84z"/>
</g>
</svg>
