<?xml version="1.0" encoding="iso-8859-1"?>
<!-- Generator: Adobe Illustrator 13.0.2, SVG Export Plug-In . SVG Version: 6.00 Build 14948)  -->
<!DOCTYPE svg PUBLIC "-//W3C//DTD SVG 1.1//EN" "http://www.w3.org/Graphics/SVG/1.1/DTD/svg11.dtd">
<svg version="1.1" id="Ebene_1" xmlns="http://www.w3.org/2000/svg" xmlns:xlink="http://www.w3.org/1999/xlink" x="0px" y="0px"
	 width="15px" height="15px" viewBox="0 0 15 15" enable-background="new 0 0 15 15" xml:space="preserve">
<g>
	<path fill="#FFFFFF" d="M12,1H3C1.85,1,1,1.85,1,3v9c0,1.15,0.85,2,2,2h9c1.16,0,2-0.85,2-2V3C14,1.85,13.16,1,12,1z M5,12H3V5.98
		h2V12z M4.01,5.31c-0.64,0-1.16-0.52-1.16-1.15C2.85,3.52,3.37,3,4.01,3c0.64,0,1.16,0.52,1.16,1.16C5.17,4.8,4.65,5.31,4.01,5.31z
		 M12.01,7.94V12h-1.87V7.84c0,0-0.32-0.54-0.92-0.54c-0.5,0-1.14,0.37-1.36,0.5V12H6V5.98h1.87v0.9C8.08,6.64,8.72,6,9.62,6
		C11.43,6,11.9,7.44,12,7.84h0.01V7.9C12.02,7.92,12.02,7.94,12.01,7.94L12.01,7.94z"/>
</g>
</svg>
