<?xml version="1.0" encoding="iso-8859-1"?>
<!-- Generator: Adobe Illustrator 13.0.2, SVG Export Plug-In . SVG Version: 6.00 Build 14948)  -->
<!DOCTYPE svg PUBLIC "-//W3C//DTD SVG 1.1//EN" "http://www.w3.org/Graphics/SVG/1.1/DTD/svg11.dtd">
<svg version="1.1" id="Ebene_1" xmlns="http://www.w3.org/2000/svg" xmlns:xlink="http://www.w3.org/1999/xlink" x="0px" y="0px"
	 width="15px" height="15px" viewBox="0 0 15 15" enable-background="new 0 0 15 15" xml:space="preserve">
<g>
	<circle fill="#B4101D" cx="10.95" cy="3.5" r="2.5"/>
	<path fill="#B4101D" d="M11,6.42C9.83,6.42,8,7,8,9.11V8c0-1-0.47-2-2-2C4,6,4,7.5,4,8.5v-2C3.91,5.72,3.31,5.16,2.53,5.16
		C1.75,5.16,1.09,5.72,1,6.5h0V9h3v2h4v3h6V9.11C13.82,7.59,12.56,6.42,11,6.42z"/>
	<circle fill="#B4101D" cx="5.95" cy="3.5" r="1.75"/>
	<circle fill="#B4101D" cx="2.53" cy="3.5" r="1.25"/>
</g>
</svg>
