<?xml version="1.0" encoding="iso-8859-1"?>
<!-- Generator: Adobe Illustrator 13.0.0, SVG Export Plug-In . SVG Version: 6.00 Build 14948)  -->
<!DOCTYPE svg PUBLIC "-//W3C//DTD SVG 1.1//EN" "http://www.w3.org/Graphics/SVG/1.1/DTD/svg11.dtd">
<svg version="1.1" id="Ebene_1" xmlns="http://www.w3.org/2000/svg" xmlns:xlink="http://www.w3.org/1999/xlink" x="0px" y="0px"
	 width="21px" height="21px" viewBox="0 0 21 21" style="enable-background:new 0 0 21 21;" xml:space="preserve">
<g>
	<rect style="fill:none;" width="21" height="21"/>
	<rect style="fill:none;" width="21" height="21"/>
	<rect x="2.42" y="2.42" style="fill:none;" width="16.15" height="16.15"/>
	<path style="fill:#FFFFFF;" d="M13.33,5.25V3.24L7.67,3.23v2.02H4.04v2.02h1.21v10.5h10.5V7.27h1.21V5.25H13.33z M8.48,14.94
		c0,0.45-0.36,0.81-0.81,0.81c-0.45,0-0.81-0.36-0.81-0.81V8.08c0-0.44,0.36-0.81,0.81-0.81c0.45,0,0.81,0.36,0.81,0.81V14.94z
		 M11.31,14.94c0,0.45-0.36,0.81-0.81,0.81s-0.81-0.36-0.81-0.81V8.08c0-0.44,0.36-0.81,0.81-0.81s0.81,0.36,0.81,0.81V14.94z
		 M12.11,5.25H8.88V4.04h3.23V5.25z M14.14,14.94c0,0.45-0.36,0.81-0.81,0.81c-0.44,0-0.81-0.36-0.81-0.81V8.08
		c0-0.44,0.36-0.81,0.81-0.81c0.45,0,0.81,0.36,0.81,0.81V14.94z"/>
</g>
</svg>
