<?xml version="1.0" encoding="iso-8859-1"?>
<!-- Generator: Adobe Illustrator 13.0.2, SVG Export Plug-In . SVG Version: 6.00 Build 14948)  -->
<!DOCTYPE svg PUBLIC "-//W3C//DTD SVG 1.1//EN" "http://www.w3.org/Graphics/SVG/1.1/DTD/svg11.dtd">
<svg version="1.1" id="Ebene_1" xmlns="http://www.w3.org/2000/svg" xmlns:xlink="http://www.w3.org/1999/xlink" x="0px" y="0px"
	 width="13px" height="15px" viewBox="0 0 13 15" enable-background="new 0 0 13 15" xml:space="preserve">
<path fill="#999999" d="M6.5,2C3.46,2,1,4.46,1,7.49C1,10.54,3.46,13,6.5,13S12,10.54,12,7.51C12,4.46,9.54,2,6.5,2z M6.5,11.59
	c-2.25,0-4.07-1.82-4.07-4.08c0-2.26,1.82-4.08,4.07-4.08s4.09,1.82,4.09,4.08C10.57,9.75,8.75,11.57,6.5,11.59z M9.03,5.93
	L8.04,4.9L6.46,6.43L4.88,4.9L3.88,5.93l1.54,1.51L3.88,8.95l1.01,1.03l1.58-1.54l1.58,1.54l1.01-1.03L7.49,7.44L9.03,5.93z"/>
</svg>
