<?xml version="1.0" encoding="iso-8859-1"?>
<!-- Generator: Adobe Illustrator 14.0.0, SVG Export Plug-In . SVG Version: 6.00 Build 43363)  -->
<!DOCTYPE svg PUBLIC "-//W3C//DTD SVG 1.1 Basic//EN" "http://www.w3.org/Graphics/SVG/1.1/DTD/svg11-basic.dtd">
<svg version="1.1" baseProfile="basic" id="Ebene_1"
	 xmlns="http://www.w3.org/2000/svg" xmlns:xlink="http://www.w3.org/1999/xlink" x="0px" y="0px" width="24px" height="24px"
	 viewBox="0 0 24 24" xml:space="preserve">
<g>
	<circle fill="#FFFFFF" cx="17.01" cy="17.01" r="2.5"/>
	<path fill="#FFFFFF" d="M8.25,8.72c1.84,0,3.33-1.51,3.33-3.36c0-1.86-1.5-3.35-3.33-3.35c-1.84,0-3.33,1.5-3.33,3.34
		C4.91,7.21,6.41,8.72,8.25,8.72z"/>
	<path fill="#FFFFFF" d="M8.25,9.72c-2.89,0-5.24,3.59-5.24,8.01c0,3.02,4.9,3.98,8,2.87c-0.63-1.05-1-2.27-1-3.58
		c0-1.89,0.76-3.61,1.99-4.87C11.04,10.64,9.72,9.72,8.25,9.72z"/>
	<path fill="#FFFFFF" d="M17.01,12.01c-2.76,0-5,2.24-5,5c0,2.76,2.24,5,5,5s5-2.24,5-5C22.01,14.25,19.77,12.01,17.01,12.01z
		 M17.01,21.07c-2.24,0-4.06-1.82-4.06-4.06c0-2.24,1.82-4.06,4.06-4.06s4.06,1.82,4.06,4.06C21.07,19.25,19.25,21.07,17.01,21.07z"
		/>
</g>
</svg>
