<?xml version="1.0" encoding="iso-8859-1"?>
<!-- Generator: Adobe Illustrator 13.0.2, SVG Export Plug-In . SVG Version: 6.00 Build 14948)  -->
<!DOCTYPE svg PUBLIC "-//W3C//DTD SVG 1.1//EN" "http://www.w3.org/Graphics/SVG/1.1/DTD/svg11.dtd">
<svg version="1.1" id="Ebene_1" xmlns="http://www.w3.org/2000/svg" xmlns:xlink="http://www.w3.org/1999/xlink" x="0px" y="0px"
	 width="24px" height="24px" viewBox="0 0 24 24" enable-background="new 0 0 24 24" xml:space="preserve">
<g>
	<g>
		<path fill="#FFFFFF" d="M17.78,14.57c-0.28,0-0.56,0.05-0.82,0.12L14,8.71c0.74-0.59,1.21-1.48,1.21-2.5C15.22,4.44,13.77,3,12,3
			c-1.78,0-3.22,1.44-3.22,3.21c0,1.02,0.49,1.93,1.23,2.52L7.08,14.7c-0.28-0.08-0.56-0.13-0.86-0.13C4.44,14.57,3,16.01,3,17.79
			C3,19.56,4.44,21,6.22,21c1.69,0,3.04-1.29,3.18-2.94h5.2c0.14,1.65,1.49,2.94,3.18,2.94c1.78,0,3.22-1.44,3.22-3.21
			C21,16.01,19.56,14.57,17.78,14.57z M15.08,16.09H8.92c-0.07-0.1-0.12-0.2-0.19-0.29l3.15-6.39c0.03,0,0.09,0.01,0.12,0.01
			c0.05,0,0.11-0.01,0.16-0.01l3.13,6.37C15.22,15.88,15.15,15.99,15.08,16.09z"/>
	</g>
</g>
</svg>
