<?xml version="1.0" encoding="iso-8859-1"?>
<!-- Generator: Adobe Illustrator 13.0.0, SVG Export Plug-In . SVG Version: 6.00 Build 14948)  -->
<!DOCTYPE svg PUBLIC "-//W3C//DTD SVG 1.1//EN" "http://www.w3.org/Graphics/SVG/1.1/DTD/svg11.dtd">
<svg version="1.1" id="Ebene_1" xmlns="http://www.w3.org/2000/svg" xmlns:xlink="http://www.w3.org/1999/xlink" x="0px" y="0px"
	 width="24px" height="24px" viewBox="-0.5 -0.5 24 24" enable-background="new -0.5 -0.5 24 24" xml:space="preserve">
<rect x="-0.5" y="-0.5" fill="none" width="24" height="24"/>
<path fill="#FFFFFF" d="M11.36,4.95c-0.36,0-0.71,0.04-1.06,0.09c-0.22-0.47-0.69-0.79-1.24-0.79c-0.76,0-1.37,0.61-1.37,1.37
	c0,0.14,0.03,0.27,0.07,0.4C5.98,7.19,4.8,9.21,4.8,11.51c0,1.62,0.59,3.09,1.56,4.24c-0.15,0.22-0.23,0.48-0.23,0.76
	c0,0.76,0.61,1.37,1.37,1.37c0.41,0,0.77-0.18,1.02-0.46c0.86,0.42,1.83,0.66,2.85,0.66c3.63,0,6.57-2.94,6.57-6.57
	C17.93,7.88,14.99,4.95,11.36,4.95z M11.36,17.59c-0.93,0-1.81-0.22-2.6-0.59c0.06-0.15,0.1-0.32,0.1-0.49
	c0-0.76-0.61-1.37-1.37-1.37c-0.3,0-0.57,0.1-0.8,0.26c-0.88-1.05-1.41-2.41-1.41-3.89c0-2.11,1.08-3.97,2.71-5.06
	c0.25,0.32,0.64,0.53,1.08,0.53c0.76,0,1.37-0.61,1.37-1.37c0-0.04-0.01-0.07-0.01-0.11c0.31-0.05,0.62-0.08,0.94-0.08
	c3.36,0.01,6.07,2.72,6.08,6.08C17.44,14.87,14.72,17.58,11.36,17.59z M11.37,8.54c-1.64,0-2.98,1.33-2.98,2.97s1.33,2.97,2.98,2.97
	c1.64,0,2.97-1.33,2.97-2.97S13.01,8.54,11.37,8.54z M11.37,14c-1.38,0-2.49-1.11-2.49-2.49c0-1.38,1.12-2.49,2.49-2.49
	c1.37,0,2.49,1.11,2.49,2.49C13.85,12.89,12.74,14,11.37,14z M16.02,12.19c0.03-0.22,0.07-0.45,0.07-0.68
	c0-2.61-2.12-4.73-4.73-4.73c-2.61,0-4.73,2.12-4.73,4.73c0,2.61,2.12,4.73,4.73,4.73c1.39,0,2.63-0.61,3.5-1.57
	c0.17,0.08,0.36,0.12,0.56,0.12c0.76,0,1.37-0.61,1.37-1.37C16.79,12.88,16.48,12.41,16.02,12.19z M15.55,12.06
	c-0.04,0-0.08-0.01-0.13-0.01c-0.76,0-1.37,0.61-1.37,1.37c0,0.38,0.16,0.72,0.41,0.97c-0.77,0.83-1.87,1.36-3.09,1.36
	c-2.34,0-4.24-1.9-4.24-4.24c0-2.34,1.9-4.24,4.24-4.24c2.34,0,4.24,1.9,4.24,4.24C15.61,11.7,15.57,11.88,15.55,12.06z
	 M11.37,10.14c-0.76,0-1.37,0.61-1.37,1.37c0,0.76,0.61,1.37,1.37,1.37c0.76,0,1.37-0.61,1.37-1.37
	C12.74,10.75,12.12,10.14,11.37,10.14z"/>
</svg>
