<?xml version="1.0" encoding="iso-8859-1"?>
<!-- Generator: Adobe Illustrator 13.0.2, SVG Export Plug-In . SVG Version: 6.00 Build 14948)  -->
<!DOCTYPE svg PUBLIC "-//W3C//DTD SVG 1.1//EN" "http://www.w3.org/Graphics/SVG/1.1/DTD/svg11.dtd">
<svg version="1.1" id="Ebene_1" xmlns="http://www.w3.org/2000/svg" xmlns:xlink="http://www.w3.org/1999/xlink" x="0px" y="0px"
	 width="24px" height="24px" viewBox="0 0 24 24" enable-background="new 0 0 24 24" xml:space="preserve">
<path fill="none" d="M21.6,21.6h-9.57c-0.02,0-0.03,0-0.05,0H2.4V2.4H21.6V21.6z"/>
<path fill="#FFFFFF" d="M12.03,12h-0.05C11.99,12,12.01,12,12.03,12z"/>
<g>
	<path fill="#FFFFFF" d="M12,9.44c1.7,0,3.07-1.43,3.07-3.15c0-1.71-1.38-3.1-3.07-3.1s-3.07,1.39-3.07,3.1
		C8.93,8.01,10.3,9.44,12,9.44z"/>
	<path fill="#FFFFFF" d="M16.83,17.74c0-3.91-1.97-7.11-4.48-7.38c0.17,0.09,0.29,0.24,0.29,0.41c0,0.28-0.29,0.51-0.66,0.51
		c-0.36,0-0.66-0.23-0.66-0.51c0-0.17,0.12-0.31,0.29-0.41c-2.49,0.3-4.45,3.49-4.45,7.38c0,2.04,2.4,3.06,4.81,3.07h0.05
		C14.43,20.8,16.83,19.78,16.83,17.74z M12,17.75c-0.44,0-1.25-0.33-1.25-0.99c0-0.54,0.36-3.43,0.42-3.83
		c0.09-0.59,0.31-0.96,0.82-0.96c0.53,0,0.74,0.4,0.83,1.02c0.06,0.39,0.33,3.26,0.33,3.78C13.15,17.42,12.45,17.75,12,17.75z"/>
</g>
</svg>
