<?xml version="1.0" encoding="iso-8859-1"?>
<!-- Generator: Adobe Illustrator 13.0.0, SVG Export Plug-In . SVG Version: 6.00 Build 14948)  -->
<!DOCTYPE svg PUBLIC "-//W3C//DTD SVG 1.1//EN" "http://www.w3.org/Graphics/SVG/1.1/DTD/svg11.dtd">
<svg version="1.1" id="Ebene_1" xmlns="http://www.w3.org/2000/svg" xmlns:xlink="http://www.w3.org/1999/xlink" x="0px" y="0px"
	 width="24px" height="24px" viewBox="-1 -1 24 24" enable-background="new -1 -1 24 24" xml:space="preserve">
<rect x="-0.5" y="-0.5" fill="none" width="24" height="24"/>
<path fill="#FFFFFF" d="M11.34,4.01c-0.41,0-0.81,0.04-1.21,0.11c-0.25-0.53-0.79-0.9-1.41-0.9c-0.86,0-1.57,0.7-1.57,1.57
	c0,0.16,0.03,0.31,0.08,0.46C5.19,6.59,3.84,8.9,3.84,11.52c0,1.85,0.67,3.54,1.78,4.84c-0.17,0.25-0.26,0.55-0.26,0.87
	c0,0.86,0.7,1.57,1.57,1.57c0.46,0,0.88-0.21,1.16-0.53c0.99,0.48,2.09,0.75,3.26,0.75c4.15,0,7.5-3.36,7.5-7.5
	C18.85,7.37,15.49,4.01,11.34,4.01z M11.34,18.46c-1.06,0-2.07-0.25-2.97-0.68c0.07-0.17,0.11-0.36,0.11-0.56
	c0-0.86-0.7-1.57-1.57-1.57c-0.34,0-0.66,0.11-0.91,0.3c-1-1.2-1.61-2.75-1.61-4.44c0-2.41,1.23-4.53,3.1-5.78
	C7.78,6.1,8.22,6.34,8.72,6.34c0.87,0,1.57-0.7,1.57-1.57c0-0.04-0.01-0.08-0.01-0.12c0.35-0.05,0.71-0.09,1.07-0.09
	c3.84,0.01,6.94,3.11,6.95,6.95C18.29,15.35,15.18,18.45,11.34,18.46z M11.35,8.11c-1.88,0-3.4,1.52-3.4,3.4
	c0,1.88,1.52,3.4,3.4,3.4c1.88,0,3.4-1.52,3.4-3.4C14.75,9.63,13.22,8.11,11.35,8.11z M11.35,14.36c-1.57,0-2.84-1.27-2.85-2.85
	c0-1.57,1.28-2.84,2.85-2.85c1.57,0,2.84,1.27,2.84,2.85C14.19,13.08,12.92,14.35,11.35,14.36z M16.67,12.29
	c0.04-0.26,0.08-0.51,0.08-0.78c0-2.98-2.42-5.4-5.4-5.4s-5.4,2.42-5.4,5.4c0,2.98,2.42,5.4,5.4,5.4c1.59,0,3.01-0.7,4-1.8
	c0.2,0.09,0.41,0.14,0.64,0.14c0.87,0,1.57-0.7,1.57-1.57C17.55,13.07,17.19,12.54,16.67,12.29z M16.13,12.14
	c-0.05,0-0.09-0.01-0.14-0.01c-0.86,0-1.56,0.7-1.56,1.57c0,0.44,0.18,0.83,0.46,1.11c-0.88,0.95-2.14,1.55-3.54,1.56
	c-2.68,0-4.84-2.17-4.85-4.85c0-2.68,2.17-4.85,4.85-4.85c2.68,0,4.84,2.17,4.85,4.85C16.19,11.73,16.15,11.93,16.13,12.14z
	 M11.35,9.95c-0.86,0-1.57,0.7-1.57,1.57c0,0.86,0.7,1.57,1.57,1.57s1.57-0.7,1.57-1.57C12.91,10.65,12.21,9.95,11.35,9.95z"/>
<rect x="-0.5" y="-0.5" fill="none" width="24" height="24"/>
<path fill="#FFFFFF" d="M11.34,4.01c-0.41,0-0.81,0.04-1.21,0.11c-0.25-0.53-0.79-0.9-1.41-0.9c-0.86,0-1.57,0.7-1.57,1.57
	c0,0.16,0.03,0.31,0.08,0.46C5.19,6.59,3.84,8.9,3.84,11.52c0,1.85,0.67,3.54,1.78,4.84c-0.17,0.25-0.26,0.55-0.26,0.87
	c0,0.86,0.7,1.57,1.57,1.57c0.46,0,0.88-0.21,1.16-0.53c0.99,0.48,2.09,0.75,3.26,0.75c4.15,0,7.5-3.36,7.5-7.5
	C18.85,7.37,15.49,4.01,11.34,4.01z M11.34,18.46c-1.06,0-2.07-0.25-2.97-0.68c0.07-0.17,0.11-0.36,0.11-0.56
	c0-0.86-0.7-1.57-1.57-1.57c-0.34,0-0.66,0.11-0.91,0.3c-1-1.2-1.61-2.75-1.61-4.44c0-2.41,1.23-4.53,3.1-5.78
	C7.78,6.1,8.22,6.34,8.72,6.34c0.87,0,1.57-0.7,1.57-1.57c0-0.04-0.01-0.08-0.01-0.12c0.35-0.05,0.71-0.09,1.07-0.09
	c3.84,0.01,6.94,3.11,6.95,6.95C18.29,15.35,15.18,18.45,11.34,18.46z M11.35,8.11c-1.88,0-3.4,1.52-3.4,3.4
	c0,1.88,1.52,3.4,3.4,3.4c1.88,0,3.4-1.52,3.4-3.4C14.75,9.63,13.22,8.11,11.35,8.11z M11.35,14.36c-1.57,0-2.84-1.27-2.85-2.85
	c0-1.57,1.28-2.84,2.85-2.85c1.57,0,2.84,1.27,2.84,2.85C14.19,13.08,12.92,14.35,11.35,14.36z M16.67,12.29
	c0.04-0.26,0.08-0.51,0.08-0.78c0-2.98-2.42-5.4-5.4-5.4s-5.4,2.42-5.4,5.4c0,2.98,2.42,5.4,5.4,5.4c1.59,0,3.01-0.7,4-1.8
	c0.2,0.09,0.41,0.14,0.64,0.14c0.87,0,1.57-0.7,1.57-1.57C17.55,13.07,17.19,12.54,16.67,12.29z M16.13,12.14
	c-0.05,0-0.09-0.01-0.14-0.01c-0.86,0-1.56,0.7-1.56,1.57c0,0.44,0.18,0.83,0.46,1.11c-0.88,0.95-2.14,1.55-3.54,1.56
	c-2.68,0-4.84-2.17-4.85-4.85c0-2.68,2.17-4.85,4.85-4.85c2.68,0,4.84,2.17,4.85,4.85C16.19,11.73,16.15,11.93,16.13,12.14z
	 M11.35,9.95c-0.86,0-1.57,0.7-1.57,1.57c0,0.86,0.7,1.57,1.57,1.57s1.57-0.7,1.57-1.57C12.91,10.65,12.21,9.95,11.35,9.95z"/>
</svg>
