<?xml version="1.0" encoding="iso-8859-1"?>
<!-- Generator: Adobe Illustrator 13.0.0, SVG Export Plug-In . SVG Version: 6.00 Build 14948)  -->
<!DOCTYPE svg PUBLIC "-//W3C//DTD SVG 1.1//EN" "http://www.w3.org/Graphics/SVG/1.1/DTD/svg11.dtd">
<svg version="1.1" id="Layer_1" xmlns="http://www.w3.org/2000/svg" xmlns:xlink="http://www.w3.org/1999/xlink" x="0px" y="0px"
	 width="24px" height="24px" viewBox="0 0 24 24" enable-background="new 0 0 24 24" xml:space="preserve">
<g>
	<path fill="#FFFFFF" d="M18.33,5.68c-1.69-1.7-3.94-2.63-6.33-2.63c-4.93,0-8.95,4.01-8.95,8.95c0,4.93,4.02,8.95,8.95,8.95
		c4.93,0,8.95-4.02,8.95-8.95C20.95,9.62,20.02,7.37,18.33,5.68z M16.89,12.27c0,0.75-0.18,1.5-0.52,2.16
		c-0.22,0.44-0.51,0.84-0.86,1.19c-0.12,0.13-0.26,0.25-0.4,0.36c-0.51,0.4-1.08,0.7-1.69,0.87C13,16.95,12.55,17,12.09,17
		c-0.17,0-0.34-0.01-0.5-0.03c-0.25-0.03-0.51-0.08-0.76-0.16c-0.82-0.23-1.57-0.68-2.18-1.31C8.4,15.25,8.19,14.99,8,14.69
		c-0.29-0.44-0.5-0.93-0.65-1.43c-0.01-0.03-0.02-0.08-0.03-0.12c-0.07-0.28-0.12-0.58-0.15-0.88c-0.03-0.3-0.04-0.62-0.03-0.92
		v-0.09c0.02-0.44,0.09-0.86,0.19-1.26c0.4-1.64,1.36-3.03,2.49-3.99c0.76-0.65,1.61-1.11,2.43-1.43c0.26-0.1,0.49-0.18,0.74-0.24
		c0.15-0.05,0.31-0.09,0.44-0.15c0.4-0.1,0.78-0.17,1.12-0.2c0.29-0.03,0.56-0.03,0.78-0.03c0.23,0.01,0.43,0.07,0.08,0.2
		c-1.42,0.5-2.43,1.86-2.43,3.43v0.11c0.73,0.16,1.35,0.41,1.87,0.74c0.5,0.31,0.91,0.69,1.23,1.14c0.03,0.03,0.05,0.07,0.08,0.1
		c0.23,0.35,0.41,0.73,0.53,1.14c0.14,0.4,0.19,0.83,0.22,1.29V12.27z"/>
</g>
</svg>
