<?xml version="1.0" encoding="iso-8859-1"?>
<!-- Generator: Adobe Illustrator 13.0.2, SVG Export Plug-In . SVG Version: 6.00 Build 14948)  -->
<!DOCTYPE svg PUBLIC "-//W3C//DTD SVG 1.1//EN" "http://www.w3.org/Graphics/SVG/1.1/DTD/svg11.dtd">
<svg version="1.1" id="Ebene_1" xmlns="http://www.w3.org/2000/svg" xmlns:xlink="http://www.w3.org/1999/xlink" x="0px" y="0px"
	 width="24px" height="24px" viewBox="0 0 24 24" enable-background="new 0 0 24 24" xml:space="preserve">
<rect x="2.4" y="2.4" fill="none" width="19.19" height="19.2"/>
<g>
	<g>
		<g>
			<path fill="#FFFFFF" d="M13.33,12.64c1.44,0,2.62-1.22,2.62-2.68c0-1.46-1.17-2.64-2.62-2.64c-1.45,0-2.62,1.18-2.62,2.64
				C10.71,11.43,11.88,12.64,13.33,12.64z M13.33,13.4c-2.27,0-4.11,2.82-4.11,6.31s8.22,3.48,8.22,0S15.6,13.4,13.33,13.4z"/>
		</g>
	</g>
	<g>
		<g>
			<path fill="#FFFFFF" d="M10.94,12.95c-0.45-0.38-0.81-0.84-1.06-1.38c-0.72-0.56-1.53-0.88-2.38-0.88c-2.92,0-5.28,3.63-5.28,8.1
				c0,2.59,3.54,3.67,6.52,3.26C8.28,21.56,8,20.97,8,20.26C8,17.06,9.19,14.3,10.94,12.95z"/>
		</g>
		<g>
			<path fill="#FFFFFF" d="M10.72,7.17c0.08-0.29,0.13-0.59,0.13-0.9c0-1.87-1.5-3.39-3.36-3.39c-1.86,0-3.36,1.52-3.36,3.39
				c0,1.88,1.5,3.44,3.36,3.44c0.85,0,1.62-0.34,2.21-0.88C9.9,8.19,10.25,7.62,10.72,7.17z"/>
		</g>
		<g>
			<path fill="#FFFFFF" d="M16.9,8.69c1.64-0.29,2.9-1.76,2.9-3.5c0-1.94-1.56-3.51-3.48-3.51s-3.48,1.57-3.48,3.51
				c0,0.33,0.06,0.65,0.15,0.96c0.11-0.01,0.22-0.03,0.34-0.03C14.98,6.12,16.38,7.2,16.9,8.69z"/>
		</g>
		<g>
			<path fill="#FFFFFF" d="M21.79,18.14c0-4.21-2.03-7.69-4.67-8.28c0,0.03,0.01,0.06,0.01,0.1c0,1.2-0.56,2.28-1.41,3
				c1.74,1.34,2.94,4.11,2.94,7.3c0,0.42-0.12,0.78-0.28,1.12C20.27,20.94,21.79,19.86,21.79,18.14z"/>
		</g>
	</g>
</g>
</svg>
