<?xml version="1.0" encoding="iso-8859-1"?>
<!-- Generator: Adobe Illustrator 14.0.0, SVG Export Plug-In . SVG Version: 6.00 Build 43363)  -->
<!DOCTYPE svg PUBLIC "-//W3C//DTD SVG 1.1 Basic//EN" "http://www.w3.org/Graphics/SVG/1.1/DTD/svg11-basic.dtd">
<svg version="1.1" baseProfile="basic" id="Ebene_1"
	 xmlns="http://www.w3.org/2000/svg" xmlns:xlink="http://www.w3.org/1999/xlink" x="0px" y="0px" width="24px" height="24px"
	 viewBox="0 0 24 24" xml:space="preserve">
<g>
	<path fill="#FFFFFF" d="M8.76,9.11c1.62,0,2.93-1.33,2.93-2.95c0-1.63-1.32-2.95-2.93-2.95c-1.62,0-2.93,1.32-2.93,2.94
		C5.83,7.79,7.14,9.11,8.76,9.11z"/>
	<path fill="#FFFFFF" d="M8.76,9.99c-2.54,0-4.61,3.16-4.61,7.05c0,2.66,4.31,3.5,7.04,2.52c-0.55-0.92-0.88-2-0.88-3.16
		c0-1.67,0.67-3.18,1.75-4.29C11.22,10.81,10.05,9.99,8.76,9.99z"/>
	<circle fill="#FFFFFF" cx="16.46" cy="16.41" r="2.2"/>
	<path fill="#FFFFFF" d="M16.46,12.01c-2.43,0-4.4,1.97-4.4,4.4c0,2.43,1.97,4.4,4.4,4.4c2.43,0,4.4-1.97,4.4-4.4
		C20.87,13.98,18.89,12.01,16.46,12.01z M16.46,19.98c-1.97,0-3.57-1.6-3.57-3.58c0-1.97,1.6-3.57,3.57-3.57
		c1.97,0,3.58,1.6,3.58,3.57C20.04,18.38,18.44,19.98,16.46,19.98z"/>
</g>
</svg>
