<?xml version="1.0" encoding="iso-8859-1"?>
<!-- Generator: Adobe Illustrator 13.0.2, SVG Export Plug-In . SVG Version: 6.00 Build 14948)  -->
<!DOCTYPE svg PUBLIC "-//W3C//DTD SVG 1.1//EN" "http://www.w3.org/Graphics/SVG/1.1/DTD/svg11.dtd">
<svg version="1.1" id="Ebene_1" xmlns="http://www.w3.org/2000/svg" xmlns:xlink="http://www.w3.org/1999/xlink" x="0px" y="0px"
	 width="24px" height="24px" viewBox="0 0 24 24" enable-background="new 0 0 24 24" xml:space="preserve">
<g>
	<path fill="#FFFFFF" d="M12.38,9.37H7.86c1.27-1.55,3.25-2.75,5.92-2.63c0.38,0.02,0.68,0.06,0.86,0.09
		c0.1,0.02,0.18,0.03,0.23,0.04l0.14,0.02l0.52-1.87L15.42,5c-3.3-0.78-6.4,0.29-8.68,2.87V3.72H4.85v7.52h7.53V9.37z M11.62,12.75
		v1.88h4.51c-1.27,1.55-3.25,2.75-5.92,2.63c-0.38-0.02-0.68-0.06-0.87-0.09c-0.1-0.02-0.18-0.03-0.23-0.04l-0.14-0.02l-0.52,1.87
		L8.58,19c3.3,0.78,6.39-0.29,8.68-2.87v4.14h1.88v-7.52H11.62z"/>
</g>
</svg>
