<?xml version="1.0" encoding="iso-8859-1"?>
<!-- Generator: Adobe Illustrator 13.0.2, SVG Export Plug-In . SVG Version: 6.00 Build 14948)  -->
<!DOCTYPE svg PUBLIC "-//W3C//DTD SVG 1.1//EN" "http://www.w3.org/Graphics/SVG/1.1/DTD/svg11.dtd">
<svg version="1.1" id="Ebene_1" xmlns="http://www.w3.org/2000/svg" xmlns:xlink="http://www.w3.org/1999/xlink" x="0px" y="0px"
	 width="24px" height="24px" viewBox="0 0 24 24" enable-background="new 0 0 24 24" xml:space="preserve">
<g>
	<path fill="#FFFFFF" d="M9.28,19C4.41,19,1,16.39,1,12.64C1,8.9,4.41,6.29,9.28,6.29c4.87,0,8.28,2.61,8.28,6.35
		C17.56,16.39,14.16,19,9.28,19z"/>
	<polygon fill="#FFFFFF" points="20.75,18.76 18.5,18.47 18.75,16.43 21,16.71 	"/>
	<polygon fill="#FFFFFF" points="19.17,6 19.18,15.14 20.83,15.35 23,6.5 	"/>
	<path fill="#666666" d="M14.11,11.07c-0.18,0.02-0.92,0.19-1.17,0.24c-0.27,0.07-2.72,2.02-2.88,2.49
		C10.02,13.97,10,14.23,10,14.47l-0.02,0.38c0,0.28,0.08,0.72,0.11,0.96c0.16,0.04,1.33,0,1.54,0.04l-0.03,0.49
		c-0.21-0.02-1.69-0.01-2.54-0.01c-0.43,0-1.81,0.05-2.24,0.04l0.08-0.47c0.23-0.02,1.19,0.04,1.41-0.19
		c0.11-0.12,0.07-0.24,0.07-0.9V14.5c0-0.15,0-0.42-0.03-0.68c-0.09-0.28-2.25-3.04-2.81-3.48c-0.16-0.05-1.17-0.16-1.42-0.21
		L4.12,9.71c0.13-0.06,1.25,0.02,2.34-0.02c0.71-0.03,2.35,0,2.55,0.02l-0.05,0.37c-0.21,0.05-1.25,0.07-1.52,0.15
		c0.7,1.06,1.8,2.43,2.16,2.97c0.2-0.29,1.93-1.51,1.98-1.94c-0.27-0.06-1.16-0.19-1.3-0.19l-0.09-0.48c0.24-0.04,1.52,0,2.16,0
		c0.55,0,1.72,0,2.06,0.03L14.11,11.07z"/>
</g>
</svg>
