<?xml version="1.0" encoding="iso-8859-1"?>
<!-- Generator: Adobe Illustrator 13.0.2, SVG Export Plug-In . SVG Version: 6.00 Build 14948)  -->
<!DOCTYPE svg PUBLIC "-//W3C//DTD SVG 1.1//EN" "http://www.w3.org/Graphics/SVG/1.1/DTD/svg11.dtd">
<svg version="1.1" id="Ebene_1" xmlns="http://www.w3.org/2000/svg" xmlns:xlink="http://www.w3.org/1999/xlink" x="0px" y="0px"
	 width="24px" height="24px" viewBox="0 0 24 24" enable-background="new 0 0 24 24" xml:space="preserve">
<path fill="#FFFFFF" d="M14.78,9.35c-0.76,0-1.47,0.29-2.11,0.78c2.08,1.5,3.49,4.52,3.49,8.12c0,0.34-0.04,0.66-0.12,0.97
	c1.82-0.29,3.35-1.23,3.35-2.82C19.38,12.51,17.32,9.35,14.78,9.35z M13.82,8.3c0.3,0.1,0.61,0.16,0.95,0.16
	c1.62,0,2.94-1.32,2.94-2.96c0-1.64-1.31-2.96-2.94-2.96c-0.64,0-1.23,0.21-1.71,0.56c0.77,0.83,1.25,1.94,1.25,3.16
	C14.3,7,14.13,7.69,13.82,8.3z M9.7,10.49c-2.8,0-5.08,3.48-5.08,7.76c0,4.28,10.15,4.29,10.15,0S12.49,10.49,9.7,10.49z M9.7,9.52
	c1.78,0,3.23-1.46,3.23-3.25c0-1.8-1.45-3.25-3.23-3.25c-1.78,0-3.23,1.45-3.23,3.24C6.46,8.06,7.92,9.52,9.7,9.52z"/>
</svg>
