<?xml version="1.0" encoding="iso-8859-1"?>
<!-- Generator: Adobe Illustrator 13.0.2, SVG Export Plug-In . SVG Version: 6.00 Build 14948)  -->
<!DOCTYPE svg PUBLIC "-//W3C//DTD SVG 1.1//EN" "http://www.w3.org/Graphics/SVG/1.1/DTD/svg11.dtd">
<svg version="1.1" id="Ebene_1" xmlns="http://www.w3.org/2000/svg" xmlns:xlink="http://www.w3.org/1999/xlink" x="0px" y="0px"
	 width="24px" height="24px" viewBox="0 0 24 24" enable-background="new 0 0 24 24" xml:space="preserve">
<g>
	<g>
		<path fill="#FFFFFF" d="M12.07,9.94c1.58,0,2.87-1.44,2.87-3c0-1.55-1.29-2.81-2.87-2.81c-1.58,0-2.86,1.26-2.86,2.81
			C9.21,8.5,10.49,9.94,12.07,9.94z"/>
	</g>
	<g>
		<path fill="#FFFFFF" d="M12.07,10.79c-2.49,0-4.5,3-4.5,6.71c0,3.71,9.01,3.71,9.01,0C16.58,13.79,14.56,10.79,12.07,10.79z"/>
	</g>
	<g>
		<path fill="#FFFFFF" d="M15.74,8.95c0.26,0.09,0.54,0.14,0.84,0.14c1.44,0,2.61-1.35,2.61-2.78c0-1.43-1.17-2.59-2.61-2.59
			c-0.57,0-1.09,0.18-1.52,0.49c0.68,0.73,1.11,1.7,1.11,2.76C16.17,7.62,16.01,8.41,15.74,8.95z"/>
	</g>
	<g>
		<path fill="#FFFFFF" d="M16.58,9.87c-0.67,0-1.3,0.25-1.87,0.68c1.85,1.31,3.1,3.96,3.1,7.1c0,0.3-0.04,0.58-0.11,0.85
			c1.61-0.26,2.97-1.08,2.97-2.47C20.67,12.63,18.84,9.87,16.58,9.87z"/>
	</g>
	<g>
		<path fill="#FFFFFF" d="M7.83,6.97c0-1.07,0.42-2.04,1.11-2.76C8.52,3.9,7.99,3.72,7.42,3.72c-1.44,0-2.61,1.16-2.61,2.59
			c0,1.43,1.17,2.78,2.61,2.78c0.29,0,0.57-0.05,0.84-0.14C7.99,8.41,7.83,7.62,7.83,6.97z"/>
	</g>
	<g>
		<path fill="#FFFFFF" d="M3.33,16.04c0,1.39,1.36,2.21,2.97,2.47c-0.07-0.27-0.1-0.56-0.1-0.85c0-3.14,1.25-5.79,3.1-7.1
			c-0.56-0.43-1.2-0.68-1.87-0.68C5.16,9.87,3.33,12.63,3.33,16.04z"/>
	</g>
</g>
</svg>
