<?xml version="1.0" encoding="iso-8859-1"?>
<!-- Generator: Adobe Illustrator 14.0.0, SVG Export Plug-In . SVG Version: 6.00 Build 43363)  -->
<!DOCTYPE svg PUBLIC "-//W3C//DTD SVG 1.1 Basic//EN" "http://www.w3.org/Graphics/SVG/1.1/DTD/svg11-basic.dtd">
<svg version="1.1" baseProfile="basic" id="Ebene_1"
	 xmlns="http://www.w3.org/2000/svg" xmlns:xlink="http://www.w3.org/1999/xlink" x="0px" y="0px" width="24px" height="24px"
	 viewBox="0 0 24 24" xml:space="preserve">
<path fill="#FFFFFF" d="M19.98,3H4.03C3.47,3,3.01,3.46,3.01,4.03v15.94c0,0.57,0.46,1.03,1.03,1.03h15.94
	c0.57,0,1.03-0.46,1.03-1.03V4.03C21.01,3.46,20.54,3,19.98,3z M18.01,13.1h-2.47v5.89h-2.52V13.1h-1.75v-2.38h1.75
	c0,0,0-0.98,0-2.04c0-1.6,1.03-3.07,3.42-3.07c0.96,0,1.68,0.09,1.68,0.09l-0.06,2.22c0,0-0.73-0.01-1.52-0.01c-0.86,0-1,0.4-1,1.05
	v1.74h2.59L18.01,13.1z"/>
</svg>
