<?xml version="1.0" encoding="iso-8859-1"?>
<!-- Generator: Adobe Illustrator 13.0.2, SVG Export Plug-In . SVG Version: 6.00 Build 14948)  -->
<!DOCTYPE svg PUBLIC "-//W3C//DTD SVG 1.1//EN" "http://www.w3.org/Graphics/SVG/1.1/DTD/svg11.dtd">
<svg version="1.1" id="Ebene_1" xmlns="http://www.w3.org/2000/svg" xmlns:xlink="http://www.w3.org/1999/xlink" x="0px" y="0px"
	 width="24px" height="24px" viewBox="0 0 24 24" enable-background="new 0 0 24 24" xml:space="preserve">
<rect x="2.4" y="2.4" fill="none" width="19.2" height="19.2"/>
<rect fill="none" width="24" height="24"/>
<g>
	<path fill="#FFFFFF" d="M11.98,10.94c-2.68,0-4.85,3.33-4.85,7.44c0,4.11,9.7,4.11,9.7,0C16.84,14.27,14.67,10.94,11.98,10.94z"/>
	<g>
		<path fill="#FFFFFF" d="M13.84,5.59c-2,0.22-4.02-0.71-5.24,1.3c-1.76-2.28,2.84-6.3,5.62-3.27C18.72,4.83,16.74,5.27,13.84,5.59z
			"/>
	</g>
	<g>
		<path fill="#FFFFFF" d="M8.93,7.5c0.28,1.44,1.53,2.54,3.03,2.54c1.71,0,3.09-1.44,3.09-3.16c0-0.12-0.02-0.24-0.04-0.36
			c-0.37,0.05-0.77,0.1-1.2,0.15C11.99,6.87,10.16,6.13,8.93,7.5z"/>
	</g>
</g>
</svg>
