<?xml version="1.0" encoding="iso-8859-1"?>
<!-- Generator: Adobe Illustrator 13.0.0, SVG Export Plug-In . SVG Version: 6.00 Build 14948)  -->
<!DOCTYPE svg PUBLIC "-//W3C//DTD SVG 1.1//EN" "http://www.w3.org/Graphics/SVG/1.1/DTD/svg11.dtd">
<svg version="1.1" id="Layer_1" xmlns="http://www.w3.org/2000/svg" xmlns:xlink="http://www.w3.org/1999/xlink" x="0px" y="0px"
	 width="24px" height="24px" viewBox="0 0 24 24" enable-background="new 0 0 24 24" xml:space="preserve">
<g>
	<path fill="#FFFFFF" d="M19.04,4.97C17.16,3.08,14.66,2.05,12,2.05c-5.49,0-9.95,4.46-9.95,9.95c0,5.49,4.46,9.95,9.95,9.95
		s9.95-4.46,9.95-9.95C21.95,9.35,20.92,6.85,19.04,4.97z M17.44,12.3c0,0.83-0.2,1.67-0.57,2.4c-0.25,0.49-0.57,0.93-0.96,1.32
		c-0.14,0.14-0.29,0.28-0.45,0.4c-0.56,0.45-1.2,0.77-1.88,0.96c-0.47,0.13-0.97,0.18-1.48,0.18c-0.19,0-0.37-0.01-0.56-0.04
		c-0.28-0.04-0.57-0.09-0.85-0.17c-0.91-0.26-1.74-0.76-2.43-1.46c-0.28-0.27-0.51-0.57-0.72-0.91c-0.32-0.49-0.56-1.03-0.72-1.59
		c-0.01-0.04-0.02-0.09-0.03-0.13c-0.08-0.31-0.14-0.64-0.16-0.98c-0.03-0.34-0.05-0.68-0.03-1.02v-0.1
		c0.02-0.48,0.1-0.96,0.21-1.41c0.45-1.83,1.52-3.37,2.77-4.44c0.85-0.72,1.79-1.23,2.7-1.59c0.29-0.11,0.55-0.2,0.82-0.27
		c0.16-0.05,0.34-0.1,0.49-0.16c0.45-0.11,0.87-0.19,1.24-0.23c0.33-0.04,0.62-0.04,0.86-0.04c0.26,0.01,0.48,0.07,0.09,0.22
		c-1.58,0.56-2.7,2.06-2.7,3.82V7.2c0.81,0.17,1.5,0.46,2.08,0.82c0.56,0.35,1.01,0.77,1.37,1.27c0.04,0.04,0.06,0.07,0.09,0.11
		c0.26,0.39,0.46,0.81,0.6,1.27c0.15,0.45,0.21,0.92,0.24,1.43V12.3z"/>
</g>
</svg>
