<?xml version="1.0" encoding="iso-8859-1"?>
<!-- Generator: Adobe Illustrator 13.0.2, SVG Export Plug-In . SVG Version: 6.00 Build 14948)  -->
<!DOCTYPE svg PUBLIC "-//W3C//DTD SVG 1.1//EN" "http://www.w3.org/Graphics/SVG/1.1/DTD/svg11.dtd">
<svg version="1.1" id="Ebene_1" xmlns="http://www.w3.org/2000/svg" xmlns:xlink="http://www.w3.org/1999/xlink" x="0px" y="0px"
	 width="24px" height="24px" viewBox="0 0 24 24" enable-background="new 0 0 24 24" xml:space="preserve">
<path fill="none" d="M21.6,21.6h-9.57c-0.02,0-0.03,0-0.05,0H2.4V2.4H21.6V21.6z"/>
<path fill="#FFFFFF" d="M12.03,12h-0.05C11.99,12,12.01,12,12.03,12z"/>
<g>
	<path fill="#FFFFFF" d="M12,9.08c1.94,0,3.51-1.63,3.51-3.6c0-1.96-1.57-3.54-3.51-3.54c-1.94,0-3.51,1.59-3.51,3.54
		C8.49,7.45,10.06,9.08,12,9.08z"/>
	<path fill="#FFFFFF" d="M17.51,18.56c0-4.47-2.25-8.12-5.11-8.43c0.2,0.1,0.34,0.27,0.34,0.47c0,0.32-0.34,0.58-0.75,0.58
		s-0.75-0.26-0.75-0.58c0-0.2,0.14-0.36,0.33-0.46c-2.85,0.34-5.08,3.98-5.08,8.43c0,2.33,2.74,3.49,5.49,3.5h0.05
		C14.77,22.05,17.51,20.89,17.51,18.56z M12,18.56c-0.51,0-1.42-0.38-1.42-1.13c0-0.62,0.41-3.92,0.48-4.37
		c0.1-0.67,0.35-1.1,0.94-1.1c0.6,0,0.85,0.46,0.95,1.16c0.06,0.45,0.37,3.73,0.37,4.32C13.32,18.18,12.51,18.56,12,18.56z"/>
</g>
</svg>
