<?xml version="1.0" encoding="iso-8859-1"?>
<!-- Generator: Adobe Illustrator 13.0.2, SVG Export Plug-In . SVG Version: 6.00 Build 14948)  -->
<!DOCTYPE svg PUBLIC "-//W3C//DTD SVG 1.1//EN" "http://www.w3.org/Graphics/SVG/1.1/DTD/svg11.dtd">
<svg version="1.1" id="Ebene_1" xmlns="http://www.w3.org/2000/svg" xmlns:xlink="http://www.w3.org/1999/xlink" x="0px" y="0px"
	 width="24px" height="24px" viewBox="0 0 24 24" enable-background="new 0 0 24 24" xml:space="preserve">
<path fill="#FFFFFF" d="M14.42,9.67c-0.67,0-1.29,0.25-1.84,0.68c1.82,1.31,3.05,3.96,3.05,7.11c0,0.3-0.04,0.58-0.11,0.85
	c1.59-0.26,2.93-1.08,2.93-2.47C18.47,12.44,16.66,9.67,14.42,9.67z M13.59,8.76c0.26,0.09,0.54,0.14,0.83,0.14
	C15.84,8.9,17,7.74,17,6.31c0-1.43-1.15-2.59-2.57-2.59c-0.56,0-1.07,0.18-1.5,0.49c0.68,0.73,1.09,1.7,1.09,2.76
	C14.01,7.61,13.87,8.22,13.59,8.76z M9.99,10.67c-2.45,0-4.44,3.04-4.44,6.79s8.89,3.75,8.89,0S12.44,10.67,9.99,10.67z M9.99,9.82
	c1.56,0,2.82-1.27,2.82-2.85c0-1.57-1.26-2.85-2.82-2.85S7.16,5.39,7.16,6.97C7.16,8.54,8.43,9.82,9.99,9.82z"/>
</svg>
