<?xml version="1.0" encoding="iso-8859-1"?>
<!-- Generator: Adobe Illustrator 13.0.0, SVG Export Plug-In . SVG Version: 6.00 Build 14948)  -->
<!DOCTYPE svg PUBLIC "-//W3C//DTD SVG 1.1//EN" "http://www.w3.org/Graphics/SVG/1.1/DTD/svg11.dtd">
<svg version="1.1" id="Layer_1" xmlns="http://www.w3.org/2000/svg" xmlns:xlink="http://www.w3.org/1999/xlink" x="0px" y="0px"
	 width="24px" height="24px" viewBox="0 0 24 24" enable-background="new 0 0 24 24" xml:space="preserve">
<g>
	<path fill="#FFFFFF" d="M10.2,4.44c-1.83,0-3.08,0.71-3.08,0.71s-1.14,3.91-1.45,5.33c0,0,1.79-0.77,3.33-0.66
		c1.33,0.1,2.33,0.92,2.33,0.92l1.51-5.23C12.85,5.52,12.03,4.44,10.2,4.44z"/>
	<path fill="#FFFFFF" d="M8.29,11.21c-1.83,0-3.07,0.71-3.07,0.71s-1.11,3.92-1.45,5.33c0,0,1.79-0.77,3.33-0.65
		c1.35,0.1,2.34,0.92,2.34,0.92l1.51-5.23C10.94,12.28,10.12,11.21,8.29,11.21z"/>
	<path fill="#FFFFFF" d="M13.84,19.54c1.83,0,3.08-0.71,3.08-0.71s1.11-3.96,1.45-5.33c0,0-1.79,0.75-3.33,0.65
		c-1.31-0.08-2.74-1.01-2.74-1.01l-1.51,5.23C10.79,18.38,12.02,19.54,13.84,19.54z"/>
	<path fill="#FFFFFF" d="M15.76,12.79c1.83,0,3.07-0.71,3.07-0.71s1.11-3.97,1.45-5.33c0,0-1.79,0.72-3.33,0.65
		c-1.41-0.06-2.74-1-2.74-1l-1.51,5.23C12.7,11.62,13.93,12.79,15.76,12.79z"/>
</g>
</svg>
