<?xml version="1.0" encoding="iso-8859-1"?>
<!-- Generator: Adobe Illustrator 13.0.2, SVG Export Plug-In . SVG Version: 6.00 Build 14948)  -->
<!DOCTYPE svg PUBLIC "-//W3C//DTD SVG 1.1//EN" "http://www.w3.org/Graphics/SVG/1.1/DTD/svg11.dtd">
<svg version="1.1" id="Ebene_1" xmlns="http://www.w3.org/2000/svg" xmlns:xlink="http://www.w3.org/1999/xlink" x="0px" y="0px"
	 width="24px" height="24px" viewBox="0 0 24 24" enable-background="new 0 0 24 24" xml:space="preserve">
<rect x="2.4" y="2.4" fill="none" width="19.2" height="19.2"/>
<rect x="0" fill="none" width="24" height="24"/>
<g>
	<path fill="#FFFFFF" d="M11.99,11.07c-2.35,0-4.24,2.92-4.24,6.51c0,3.59,8.49,3.59,8.49,0C16.23,13.99,14.33,11.07,11.99,11.07z"
		/>
	<g>
		<path fill="#FFFFFF" d="M13.61,6.39c-1.75,0.19-3.52-0.62-4.59,1.14c-1.54-1.99,2.49-5.51,4.92-2.86
			C17.88,5.73,16.15,6.11,13.61,6.39z"/>
	</g>
	<g>
		<path fill="#FFFFFF" d="M9.31,8.06c0.25,1.26,1.34,2.22,2.65,2.22c1.49,0,2.7-1.26,2.7-2.77c0-0.11-0.02-0.21-0.03-0.31
			c-0.32,0.05-0.67,0.09-1.05,0.13C11.99,7.52,10.39,6.87,9.31,8.06z"/>
	</g>
</g>
</svg>
