<?xml version="1.0" encoding="iso-8859-1"?>
<!-- Generator: Adobe Illustrator 13.0.2, SVG Export Plug-In . SVG Version: 6.00 Build 14948)  -->
<!DOCTYPE svg PUBLIC "-//W3C//DTD SVG 1.1//EN" "http://www.w3.org/Graphics/SVG/1.1/DTD/svg11.dtd">
<svg version="1.1" id="Ebene_1" xmlns="http://www.w3.org/2000/svg" xmlns:xlink="http://www.w3.org/1999/xlink" x="0px" y="0px"
	 width="24px" height="24px" viewBox="-0.5 -0.5 24 24" enable-background="new -0.5 -0.5 24 24" xml:space="preserve">
<path fill="#FFFFFF" d="M18.09,2.5H4.91C3.59,2.5,2.5,3.59,2.5,4.92v13.15c0,1.33,1.09,2.43,2.41,2.43h13.18
	c1.32,0,2.41-1.09,2.41-2.43V4.92C20.5,3.59,19.41,2.5,18.09,2.5z M15.44,14.94l-0.73,0.28c-0.2,0.07-0.46,0.14-0.79,0.21
	c-0.29,0.05-0.47,0.07-0.57,0.07c-0.22,0.01-0.42-0.08-0.62-0.27c-0.2-0.19-0.32-0.35-0.32-0.47c-0.01-0.12,0.12-0.23,0.37-0.32
	l0.16-0.05c0.18-0.04,0.28-0.06,0.33-0.08c0.03-0.02,0.04-0.09,0.07-0.23c0.01-0.01,0-0.12-0.03-0.31
	c-0.02-0.08-0.04-0.19-0.04-0.32c-0.01-0.15-0.03-0.25-0.03-0.33l-0.04-0.73c0.01-0.02-0.01-0.04-0.05-0.06l-0.68,0.03
	c-0.21,0.03-0.39,0.06-0.52,0.08l-0.74,0.15c-0.11,0.01-0.26,0.04-0.46,0.09l-0.68,0.21c-0.33,0.12-0.52,0.2-0.58,0.26
	c-0.07,0.06-0.11,0.19-0.11,0.39l0.02,0.41c0,0.2,0,0.37,0.02,0.51c0.01,0.22,0.03,0.35,0.07,0.37c0.03,0.05,0.1,0.07,0.22,0.08
	h0.23c0.06,0,0.1,0.01,0.14,0.03c0.04,0.02,0.14,0.07,0.28,0.19c0.14,0.11,0.2,0.22,0.21,0.35c0,0.18-0.11,0.31-0.31,0.41
	c-0.21,0.11-0.37,0.19-0.45,0.21c-0.08,0.03-0.21,0.06-0.35,0.09l-0.76,0.13c-0.06,0.01-0.18,0.04-0.38,0.05
	c-0.21,0.01-0.39-0.04-0.54-0.14l-0.12-0.09c-0.17-0.16-0.26-0.29-0.27-0.41c0-0.17,0.17-0.32,0.52-0.45l0.26-0.09
	c0.05-0.02,0.06-0.08,0.05-0.23c-0.04-0.21-0.08-0.42-0.09-0.62l-0.06-0.57c-0.03-0.17-0.04-0.44-0.04-0.81l-0.17-2.03L7.8,9.3
	c0-0.18-0.01-0.29-0.03-0.32c-0.01-0.07-0.03-0.1-0.04-0.12L7.67,8.82C7.48,8.81,7.28,8.76,7.06,8.67L6.9,8.56
	C6.7,8.34,6.62,8.16,6.68,8C6.7,7.92,6.77,7.83,6.87,7.77C7.02,7.68,7.2,7.61,7.41,7.55l1.02-0.24C8.74,7.24,9,7.19,9.24,7.16
	c0.19,0,0.39,0.06,0.6,0.2c0.19,0.15,0.29,0.32,0.31,0.54c0,0.16-0.04,0.26-0.11,0.3l-0.21,0.1C9.76,8.33,9.72,8.34,9.7,8.35
	L9.29,8.51c-0.04,0-0.07,0.07-0.07,0.23l0.05,2.54l0.03,0.22c0.02,0.19,0.08,0.28,0.18,0.27c0.09,0,0.35-0.06,0.81-0.17
	c0.41-0.11,0.91-0.21,1.49-0.32l1.12-0.14c0.13-0.01,0.21-0.05,0.26-0.09c0.05-0.06,0.06-0.16,0.06-0.31l-0.04-0.7
	c-0.01-0.26-0.01-0.46-0.03-0.61c-0.02-0.09-0.02-0.27-0.02-0.55c-0.01-0.35-0.01-0.55-0.02-0.58C13.1,8.13,13.06,8.03,12.98,8
	l-0.29-0.05c-0.07-0.01-0.12-0.03-0.19-0.05c-0.05-0.02-0.16-0.08-0.32-0.21c-0.15-0.11-0.23-0.27-0.24-0.46
	c-0.01-0.13,0.02-0.22,0.1-0.27l0.24-0.15c0.16-0.07,0.27-0.12,0.36-0.15l0.66-0.19l0.64-0.1c0.04-0.01,0.17-0.02,0.39-0.04
	c0.19-0.01,0.35,0.01,0.46,0.05c0.1,0.04,0.19,0.15,0.28,0.36c0.09,0.2,0.14,0.34,0.14,0.42c0.01,0.06-0.01,0.11-0.04,0.14
	l-0.53,0.28l-0.12,0.09c-0.06,0.1-0.11,0.2-0.13,0.32c0,0.12,0,0.44,0.03,0.96l0.19,4.92c0.03,0.1,0.1,0.16,0.24,0.16l0.2-0.03
	c0.07,0,0.17,0.06,0.28,0.17c0.12,0.11,0.19,0.24,0.23,0.41C15.59,14.72,15.54,14.84,15.44,14.94z"/>
</svg>
