<?xml version="1.0" encoding="iso-8859-1"?>
<!-- Generator: Adobe Illustrator 13.0.2, SVG Export Plug-In . SVG Version: 6.00 Build 14948)  -->
<!DOCTYPE svg PUBLIC "-//W3C//DTD SVG 1.1//EN" "http://www.w3.org/Graphics/SVG/1.1/DTD/svg11.dtd">
<svg version="1.1" id="Ebene_1" xmlns="http://www.w3.org/2000/svg" xmlns:xlink="http://www.w3.org/1999/xlink" x="0px" y="0px"
	 width="24px" height="24px" viewBox="0 0 24 24" enable-background="new 0 0 24 24" xml:space="preserve">
<rect x="2.4" y="2.4" fill="none" width="19.19" height="19.2"/>
<g>
	<g>
		<g>
			<path fill="#FFFFFF" d="M13.16,12.56c1.26,0,2.29-1.06,2.29-2.34c0-1.27-1.03-2.31-2.29-2.31c-1.27,0-2.29,1.04-2.29,2.31
				C10.87,11.5,11.9,12.56,13.16,12.56z M13.16,13.23c-1.99,0-3.6,2.47-3.6,5.52s7.19,3.05,7.19,0S15.15,13.23,13.16,13.23z"/>
		</g>
	</g>
	<g>
		<g>
			<path fill="#FFFFFF" d="M11.07,12.84c-0.39-0.33-0.71-0.74-0.92-1.21c-0.63-0.49-1.33-0.77-2.09-0.77
				c-2.55,0-4.62,3.17-4.62,7.08c0,2.27,3.09,3.21,5.7,2.85c-0.39-0.43-0.64-0.94-0.64-1.56C8.5,16.43,9.54,14.01,11.07,12.84z"/>
		</g>
		<g>
			<path fill="#FFFFFF" d="M10.88,7.78C10.95,7.53,11,7.27,11,6.99c0-1.64-1.31-2.96-2.94-2.96c-1.62,0-2.94,1.33-2.94,2.96
				C5.12,8.63,6.43,10,8.06,10c0.75,0,1.42-0.3,1.94-0.77C10.17,8.67,10.47,8.17,10.88,7.78z"/>
		</g>
		<g>
			<path fill="#FFFFFF" d="M16.29,9.1c1.44-0.25,2.54-1.54,2.54-3.06c0-1.7-1.36-3.07-3.04-3.07c-1.68,0-3.04,1.38-3.04,3.07
				c0,0.29,0.05,0.57,0.13,0.84c0.1-0.01,0.19-0.03,0.29-0.03C14.61,6.85,15.83,7.8,16.29,9.1z"/>
		</g>
		<g>
			<path fill="#FFFFFF" d="M20.56,17.37c0-3.69-1.77-6.73-4.08-7.25c0,0.03,0.01,0.06,0.01,0.09c0,1.05-0.49,1.99-1.23,2.62
				c1.52,1.18,2.57,3.59,2.57,6.39c0,0.37-0.1,0.68-0.25,0.98C19.24,19.82,20.56,18.88,20.56,17.37z"/>
		</g>
	</g>
</g>
</svg>
