<?xml version="1.0" encoding="iso-8859-1"?>
<!-- Generator: Adobe Illustrator 13.0.2, SVG Export Plug-In . SVG Version: 6.00 Build 14948)  -->
<!DOCTYPE svg PUBLIC "-//W3C//DTD SVG 1.1//EN" "http://www.w3.org/Graphics/SVG/1.1/DTD/svg11.dtd">
<svg version="1.1" id="Ebene_1" xmlns="http://www.w3.org/2000/svg" xmlns:xlink="http://www.w3.org/1999/xlink" x="0px" y="0px"
	 width="24px" height="24px" viewBox="0 0 24 24" enable-background="new 0 0 24 24" xml:space="preserve">
<g>
	<path fill="#FFFFFF" d="M12.43,8.98H7.25c1.46-1.77,3.73-3.15,6.8-3.02c0.43,0.02,0.78,0.07,0.99,0.1
		c0.12,0.02,0.21,0.04,0.26,0.05l0.16,0.03l0.6-2.15l-0.14-0.03C12.13,3.07,8.58,4.3,5.95,7.25V2.5H3.79v8.64h8.64V8.98z
		 M11.57,12.86v2.16h5.18c-1.46,1.77-3.73,3.15-6.8,3.02c-0.43-0.02-0.78-0.07-0.99-0.1c-0.12-0.02-0.2-0.04-0.26-0.05l-0.16-0.03
		l-0.59,2.15l0.14,0.03c3.79,0.89,7.34-0.33,9.97-3.29v4.75h2.16v-8.64H11.57z"/>
</g>
</svg>
