<?xml version="1.0" encoding="iso-8859-1"?>
<!-- Generator: Adobe Illustrator 14.0.0, SVG Export Plug-In . SVG Version: 6.00 Build 43363)  -->
<!DOCTYPE svg PUBLIC "-//W3C//DTD SVG 1.1 Basic//EN" "http://www.w3.org/Graphics/SVG/1.1/DTD/svg11-basic.dtd">
<svg version="1.1" baseProfile="basic" id="Ebene_1"
	 xmlns="http://www.w3.org/2000/svg" xmlns:xlink="http://www.w3.org/1999/xlink" x="0px" y="0px" width="24px" height="24px"
	 viewBox="0 0 24 24" xml:space="preserve">
<path fill="#FFFFFF" d="M19.02,4.08H4.99c-0.5,0-0.91,0.41-0.91,0.91v14.03c0,0.5,0.41,0.9,0.91,0.9h14.03c0.5,0,0.9-0.41,0.9-0.9
	V4.98C19.93,4.49,19.52,4.08,19.02,4.08z M17.42,12.96h-2.18v5.04h-2.22v-5.04h-1.54v-2.1h1.54c0,0,0-0.86,0-1.79
	c0-1.41,0.91-2.7,3.01-2.7c0.85,0,1.48,0.08,1.48,0.08l-0.05,1.96c0,0-0.64-0.01-1.34-0.01c-0.76,0-0.88,0.35-0.88,0.93v1.53h2.28
	L17.42,12.96z"/>
</svg>
