<?xml version="1.0" encoding="iso-8859-1"?>
<!-- Generator: Adobe Illustrator 13.0.0, SVG Export Plug-In . SVG Version: 6.00 Build 14948)  -->
<!DOCTYPE svg PUBLIC "-//W3C//DTD SVG 1.1//EN" "http://www.w3.org/Graphics/SVG/1.1/DTD/svg11.dtd">
<svg version="1.1" id="Layer_1" xmlns="http://www.w3.org/2000/svg" xmlns:xlink="http://www.w3.org/1999/xlink" x="0px" y="0px"
	 width="24px" height="24px" viewBox="0 0 24 24" enable-background="new 0 0 24 24" xml:space="preserve">
<g>
	<path fill="#FFFFFF" d="M9.94,3.36c-2.09,0-3.52,0.81-3.52,0.81s-1.3,4.47-1.66,6.1c0,0,2.04-0.89,3.8-0.75
		c1.52,0.12,2.67,1.05,2.67,1.05l1.73-5.98C12.97,4.6,12.03,3.36,9.94,3.36z"/>
	<path fill="#FFFFFF" d="M7.76,11.09c-2.09,0-3.51,0.81-3.51,0.81s-1.26,4.48-1.66,6.09c0,0,2.04-0.88,3.8-0.75
		c1.55,0.12,2.67,1.05,2.67,1.05l1.73-5.98C10.78,12.32,9.85,11.09,7.76,11.09z"/>
	<path fill="#FFFFFF" d="M14.11,20.62c2.09,0,3.51-0.81,3.51-0.81s1.27-4.53,1.66-6.1c0,0-2.04,0.86-3.8,0.75
		c-1.5-0.09-3.14-1.15-3.14-1.15l-1.73,5.98C10.61,19.29,12.02,20.62,14.11,20.62z"/>
	<path fill="#FFFFFF" d="M16.29,12.9c2.09,0,3.51-0.82,3.51-0.82s1.27-4.54,1.66-6.09c0,0-2.04,0.82-3.8,0.75
		c-1.61-0.07-3.13-1.15-3.13-1.15l-1.73,5.98C12.8,11.56,14.21,12.9,16.29,12.9z"/>
</g>
</svg>
