<?xml version="1.0" encoding="iso-8859-1"?>
<!-- Generator: Adobe Illustrator 13.0.2, SVG Export Plug-In . SVG Version: 6.00 Build 14948)  -->
<!DOCTYPE svg PUBLIC "-//W3C//DTD SVG 1.1//EN" "http://www.w3.org/Graphics/SVG/1.1/DTD/svg11.dtd">
<svg version="1.1" id="Ebene_1" xmlns="http://www.w3.org/2000/svg" xmlns:xlink="http://www.w3.org/1999/xlink" x="0px" y="0px"
	 width="24px" height="24px" viewBox="0 0 24 24" enable-background="new 0 0 24 24" xml:space="preserve">
<g>
	<path fill="#FFFFFF" d="M7.99,3.01C6.89,3.15,6.06,4.11,6.08,5.24v8.89v0.02v0.04c0.05,1.72,0.65,3.37,1.76,4.67
		c1.11,1.3,2.85,2.21,4.77,2.14h4.29c0.78,0.02,1.5-0.42,1.89-1.1c0.39-0.69,0.39-1.52,0-2.19c-0.39-0.69-1.11-1.11-1.89-1.1h-4.36
		h-0.04h-0.04c-0.6,0.02-0.97-0.19-1.35-0.63c-0.38-0.45-0.67-1.17-0.69-1.92V12.2h6.49c0.78,0.01,1.5-0.41,1.89-1.09
		c0.39-0.69,0.39-1.52,0-2.21c-0.39-0.68-1.11-1.1-1.89-1.09h-6.49V5.24C10.42,4.6,10.15,4,9.69,3.57C9.23,3.15,8.62,2.94,7.99,3.01
		"/>
</g>
</svg>
