<?xml version="1.0" encoding="iso-8859-1"?>
<!-- Generator: Adobe Illustrator 13.0.2, SVG Export Plug-In . SVG Version: 6.00 Build 14948)  -->
<!DOCTYPE svg PUBLIC "-//W3C//DTD SVG 1.1//EN" "http://www.w3.org/Graphics/SVG/1.1/DTD/svg11.dtd">
<svg version="1.1" id="Ebene_1" xmlns="http://www.w3.org/2000/svg" xmlns:xlink="http://www.w3.org/1999/xlink" x="0px" y="0px"
	 width="24px" height="24px" viewBox="0 0 24 24" enable-background="new 0 0 24 24" xml:space="preserve">
<g>
	<g>
		<path fill="#FFFFFF" d="M12.08,9.64c1.81,0,3.28-1.65,3.28-3.43c0-1.78-1.47-3.21-3.28-3.21c-1.81,0-3.27,1.44-3.27,3.21
			C8.81,7.99,10.28,9.64,12.08,9.64z"/>
	</g>
	<g>
		<path fill="#FFFFFF" d="M12.08,10.61c-2.84,0-5.15,3.44-5.15,7.67c0,4.24,10.3,4.24,10.3,0C17.23,14.05,14.93,10.61,12.08,10.61z"
			/>
	</g>
	<g>
		<path fill="#FFFFFF" d="M16.28,8.51c0.3,0.1,0.62,0.16,0.96,0.16c1.64,0,2.98-1.54,2.98-3.18c0-1.63-1.34-2.96-2.98-2.96
			c-0.65,0-1.25,0.21-1.73,0.56c0.78,0.83,1.27,1.94,1.27,3.16C16.76,6.99,16.58,7.89,16.28,8.51z"/>
	</g>
	<g>
		<path fill="#FFFFFF" d="M17.23,9.56c-0.77,0-1.49,0.29-2.14,0.78c2.11,1.5,3.54,4.52,3.54,8.12c0,0.34-0.04,0.66-0.12,0.98
			c1.84-0.29,3.4-1.23,3.4-2.82C21.91,12.72,19.82,9.56,17.23,9.56z"/>
	</g>
	<g>
		<path fill="#FFFFFF" d="M7.24,6.25c0-1.22,0.48-2.33,1.27-3.16C8.02,2.74,7.42,2.54,6.77,2.54c-1.64,0-2.98,1.33-2.98,2.96
			c0,1.64,1.34,3.18,2.98,3.18c0.33,0,0.66-0.06,0.96-0.16C7.42,7.89,7.24,6.99,7.24,6.25z"/>
	</g>
	<g>
		<path fill="#FFFFFF" d="M2.09,16.62c0,1.59,1.56,2.53,3.4,2.82c-0.08-0.31-0.12-0.64-0.12-0.98c0-3.6,1.43-6.62,3.54-8.12
			c-0.65-0.5-1.37-0.78-2.14-0.78C4.18,9.56,2.09,12.72,2.09,16.62z"/>
	</g>
</g>
</svg>
