<?xml version="1.0" encoding="iso-8859-1"?>
<!-- Generator: Adobe Illustrator 13.0.2, SVG Export Plug-In . SVG Version: 6.00 Build 14948)  -->
<!DOCTYPE svg PUBLIC "-//W3C//DTD SVG 1.1//EN" "http://www.w3.org/Graphics/SVG/1.1/DTD/svg11.dtd">
<svg version="1.1" id="Ebene_1" xmlns="http://www.w3.org/2000/svg" xmlns:xlink="http://www.w3.org/1999/xlink" x="0px" y="0px"
	 width="24px" height="24px" viewBox="0 0 24 24" enable-background="new 0 0 24 24" xml:space="preserve">
<g>
	<g>
		<path fill="#FFFFFF" d="M18.63,21H5.38C4.07,21,3,19.94,3,18.62V5.37C3,4.06,4.07,3,5.38,3h13.25C19.93,3,21,4.06,21,5.37v13.25
			C21,19.94,19.93,21,18.63,21L18.63,21z"/>
	</g>
	<path fill="#666666" d="M14.37,5.37c0.44,0.37,1.36,1.13,1.36,2.59c0,1.42-0.8,2.09-1.61,2.73c-0.25,0.25-0.54,0.52-0.54,0.94
		s0.29,0.66,0.5,0.83L14.77,13c0.84,0.71,1.61,1.36,1.61,2.69c0,1.8-1.75,3.63-5.05,3.63c-2.78,0-4.13-1.33-4.13-2.75
		c0-0.69,0.35-1.67,1.48-2.34c1.19-0.73,2.8-0.82,3.67-0.88c-0.27-0.34-0.58-0.71-0.58-1.3c0-0.33,0.09-0.52,0.19-0.75
		c-0.21,0.02-0.42,0.04-0.62,0.04c-2.03,0-3.19-1.52-3.19-3.02c0-0.88,0.4-1.86,1.23-2.57c1.09-0.9,2.4-1.05,3.43-1.05h3.95
		l-1.23,0.69H14.37z M13.01,13.9c-0.16-0.02-0.25-0.02-0.44-0.02c-0.17,0-1.21,0.04-2.02,0.31c-0.42,0.16-1.65,0.62-1.65,1.98
		c0,1.36,1.33,2.34,3.38,2.34c1.85,0,2.82-0.88,2.82-2.07C15.1,15.46,14.47,14.94,13.01,13.9z M13.56,10.26
		c0.44-0.44,0.48-1.05,0.48-1.4c0-1.38-0.82-3.53-2.41-3.53c-0.5,0-1.04,0.25-1.35,0.63C9.96,6.36,9.86,6.87,9.86,7.37
		c0,1.29,0.74,3.42,2.4,3.42C12.74,10.79,13.25,10.56,13.56,10.26z"/>
</g>
</svg>
