<?xml version="1.0" encoding="iso-8859-1"?>
<!-- Generator: Adobe Illustrator 14.0.0, SVG Export Plug-In . SVG Version: 6.00 Build 43363)  -->
<!DOCTYPE svg PUBLIC "-//W3C//DTD SVG 1.1 Basic//EN" "http://www.w3.org/Graphics/SVG/1.1/DTD/svg11-basic.dtd">
<svg version="1.1" baseProfile="basic" id="Ebene_1"
	 xmlns="http://www.w3.org/2000/svg" xmlns:xlink="http://www.w3.org/1999/xlink" x="0px" y="0px" width="32px" height="32px"
	 viewBox="0 0 32 32" xml:space="preserve">
<g>
	<path fill="#FFFFFF" d="M16,14c1.94,0,3.5-1.74,3.5-3.61C19.5,8.52,17.93,7,16,7s-3.5,1.52-3.5,3.39C12.5,12.26,14.06,14,16,14z"/>
	<path fill="#FFFFFF" d="M16,15c-3.14,0-5.68,3.8-5.68,8.48c0,4.69,11.36,4.69,11.36,0C21.68,18.81,19.14,15,16,15z"/>
	<rect x="7.94" y="9.37" fill="#FFFFFF" width="3.02" height="1.51"/>
	<polygon fill="#FFFFFF" points="11.75,6.57 9.16,5 8.38,6.29 10.96,7.86 	"/>
	
		<rect x="21.18" y="4.92" transform="matrix(0.5175 0.8557 -0.8557 0.5175 16.0846 -15.6667)" fill="#FFFFFF" width="1.51" height="3.03"/>
	<polygon fill="#FFFFFF" points="10.96,12.39 8.41,14 9.22,15.28 11.78,13.67 	"/>
	<rect x="21.04" y="9.37" fill="#FFFFFF" width="3.02" height="1.51"/>
	<polygon fill="#FFFFFF" points="20.23,13.67 22.79,15.28 23.6,14 21.05,12.39 	"/>
</g>
</svg>
