<?xml version="1.0" encoding="iso-8859-1"?>
<!-- Generator: Adobe Illustrator 13.0.2, SVG Export Plug-In . SVG Version: 6.00 Build 14948)  -->
<!DOCTYPE svg PUBLIC "-//W3C//DTD SVG 1.1//EN" "http://www.w3.org/Graphics/SVG/1.1/DTD/svg11.dtd">
<svg version="1.1" id="Ebene_1" xmlns="http://www.w3.org/2000/svg" xmlns:xlink="http://www.w3.org/1999/xlink" x="0px" y="0px"
	 width="32px" height="32px" viewBox="0 0 32 32" enable-background="new 0 0 32 32" xml:space="preserve">
<g>
	<g>
		<rect fill="none" width="32" height="32"/>
		<rect fill="none" width="32" height="32"/>
		<rect x="3.69" y="3.69" fill="none" width="24.62" height="24.62"/>
		<path fill="#FFFFFF" d="M19.35,12.96c-0.94,0-1.82,0.35-2.6,0.97c2.57,1.85,4.32,5.59,4.32,10.04c0,0.42-0.05,0.82-0.15,1.2
			c2.25-0.36,4.14-1.52,4.14-3.49C25.06,16.86,22.51,12.96,19.35,12.96z M18.19,11.66c0.37,0.13,0.76,0.2,1.17,0.2
			c2.01,0,3.63-1.64,3.63-3.65c0-2.02-1.62-3.66-3.63-3.66c-0.79,0-1.51,0.26-2.11,0.69c0.95,1.02,1.54,2.4,1.54,3.91
			C18.78,10.05,18.57,10.9,18.19,11.66z M13.08,14.37c-3.46,0-6.27,4.3-6.27,9.59s12.55,5.3,12.55,0
			C19.36,18.66,16.54,14.37,13.08,14.37z M13.08,13.16c2.2,0,3.99-1.8,3.99-4.02c0-2.22-1.79-4.02-3.99-4.02
			c-2.2,0-3.99,1.8-3.99,4.02C9.09,11.36,10.88,13.16,13.08,13.16z"/>
	</g>
	<rect fill="none" width="32" height="32"/>
</g>
</svg>
