<?xml version="1.0" encoding="iso-8859-1"?>
<!-- Generator: Adobe Illustrator 13.0.2, SVG Export Plug-In . SVG Version: 6.00 Build 14948)  -->
<!DOCTYPE svg PUBLIC "-//W3C//DTD SVG 1.1//EN" "http://www.w3.org/Graphics/SVG/1.1/DTD/svg11.dtd">
<svg version="1.1" id="Ebene_1" xmlns="http://www.w3.org/2000/svg" xmlns:xlink="http://www.w3.org/1999/xlink" x="0px" y="0px"
	 width="32px" height="32px" viewBox="0 0 32 32" enable-background="new 0 0 32 32" xml:space="preserve">
<g>
	<g>
		<rect x="2" y="2" fill="none" width="28" height="28"/>
		<rect x="2" y="2" fill="none" width="28" height="28"/>
		<rect x="5.23" y="5.23" fill="none" width="21.54" height="21.54"/>
		<path fill="#FFFFFF" d="M18.93,13.34c-0.82,0-1.59,0.31-2.28,0.85c2.25,1.62,3.78,4.89,3.78,8.78c0,0.37-0.05,0.72-0.13,1.05
			c1.97-0.32,3.62-1.33,3.62-3.05C23.93,16.75,21.69,13.34,18.93,13.34z M17.91,12.2c0.32,0.11,0.67,0.17,1.02,0.17
			c1.76,0,3.18-1.43,3.18-3.2c0-1.77-1.42-3.2-3.18-3.2c-0.69,0-1.33,0.23-1.85,0.6c0.83,0.9,1.35,2.1,1.35,3.42
			C18.44,10.79,18.25,11.54,17.91,12.2z M13.45,14.57c-3.03,0-5.49,3.76-5.49,8.39s10.98,4.64,10.98,0S16.48,14.57,13.45,14.57z
			 M13.45,13.52c1.93,0,3.49-1.58,3.49-3.52c0-1.94-1.57-3.52-3.49-3.52c-1.93,0-3.49,1.58-3.49,3.52
			C9.95,11.94,11.52,13.52,13.45,13.52z"/>
	</g>
	<rect fill="none" width="32" height="32"/>
</g>
</svg>
