<?xml version="1.0" encoding="utf-8"?>
<!-- Generator: Adobe Illustrator 14.0.0, SVG Export Plug-In . SVG Version: 6.00 Build 43363)  -->
<!DOCTYPE svg PUBLIC "-//W3C//DTD SVG 1.1//EN" "http://www.w3.org/Graphics/SVG/1.1/DTD/svg11.dtd">
<svg version="1.1" id="Ebene_1" xmlns="http://www.w3.org/2000/svg" xmlns:xlink="http://www.w3.org/1999/xlink" x="0px" y="0px"
	 width="32px" height="32px" viewBox="0 0 32 32" enable-background="new 0 0 32 32" xml:space="preserve">
<path fill="none" d="M15.934,8.372c2.41,0,4.367,1.966,4.367,4.396s-1.957,4.396-4.367,4.396c-2.408,0-4.365-1.967-4.365-4.396
	S13.525,8.372,15.934,8.372z"/>
<path fill="#FFFFFF" d="M15.962,3.488C9.251,3.24,5.457,10.003,5.313,15.932c-0.15,6.192,4.123,12.333,10.596,12.572
	c6.709,0.248,10.505-6.513,10.648-12.44C26.407,9.871,22.644,3.736,15.962,3.488z M22.143,24.54
	c-1.094-3.573-3.456-6.056-6.209-6.056c-2.778,0-5.161,2.528-6.24,6.16c-1.84-2.495-2.821-5.925-2.886-8.581
	c-0.124-5.113,2.93-10.898,8.289-11.897c6.427-1.198,9.844,6.708,9.967,11.766C24.99,18.96,24.039,22.186,22.143,24.54z"/>
<path fill="#FFFFFF" d="M15.934,17.164c2.41,0,4.367-1.967,4.367-4.396s-1.957-4.396-4.367-4.396c-2.408,0-4.365,1.966-4.365,4.396
	S13.525,17.164,15.934,17.164z"/>
</svg>
