<?xml version="1.0" encoding="utf-8"?>
<!-- Generator: Adobe Illustrator 14.0.0, SVG Export Plug-In . SVG Version: 6.00 Build 43363)  -->
<!DOCTYPE svg PUBLIC "-//W3C//DTD SVG 1.1//EN" "http://www.w3.org/Graphics/SVG/1.1/DTD/svg11.dtd">
<svg version="1.1" id="Ebene_1" xmlns="http://www.w3.org/2000/svg" xmlns:xlink="http://www.w3.org/1999/xlink" x="0px" y="0px"
	 width="32px" height="32px" viewBox="0 0 32 32" enable-background="new 0 0 32 32" xml:space="preserve">
<g>
	<g>
		<path fill="#FFFFFF" d="M13.66,10.998c1.879,0,3.41-1.542,3.41-3.429c0-1.891-1.521-3.43-3.41-3.43
			c-1.889,0-3.408,1.54-3.408,3.43C10.252,9.456,11.782,10.998,13.66,10.998z"/>
		<path fill="#FFFFFF" d="M11.957,23.061c0-3.641,2.761-6.639,6.304-7.014c-0.932-2.399-2.643-4.015-4.601-4.015
			c-2.955,0-5.361,3.673-5.361,8.19c0,1.778,1.664,2.854,3.677,3.231C11.969,23.323,11.957,23.193,11.957,23.061z"/>
	</g>
	<path fill="#FFFFFF" d="M23.451,20.013c-0.396-0.696-0.96-1.258-1.672-1.662c-0.724-0.409-1.591-0.609-2.585-0.615
		c-0.012,0-0.027,0-0.036,0c-1.058,0-1.977,0.221-2.75,0.67c-0.78,0.448-1.385,1.101-1.801,1.931
		c-0.416,0.827-0.621,1.719-0.626,2.678l0,0c0,0.027,0,0.041,0,0.052c0,0.949,0.2,1.847,0.605,2.68
		c0.411,0.845,1.016,1.507,1.807,1.958c0.784,0.451,1.646,0.683,2.57,0.683c0.01,0,0.01,0,0.02,0h0.005
		c0.848,0,1.657-0.2,2.417-0.594l0.118-0.058l0.004-1.487l-0.332,0.216c-0.75,0.485-1.483,0.728-2.222,0.728
		c-0.01,0-0.015,0-0.015,0c-0.611-0.004-1.232-0.173-1.869-0.528c-0.621-0.344-1.072-0.848-1.369-1.539
		c-0.302-0.697-0.452-1.406-0.452-2.145c0,0,0-0.006,0-0.016c0.006-0.77,0.17-1.472,0.488-2.114c0.318-0.64,0.774-1.107,1.38-1.439
		c0.606-0.331,1.267-0.493,1.995-0.493c0.006,0,0.012,0,0.021,0c0.683,0.004,1.308,0.152,1.887,0.452
		c0.575,0.296,1.011,0.702,1.32,1.23c0.302,0.523,0.461,1.119,0.461,1.812c0,0.014,0,0.021,0,0.021
		c-0.005,0.614-0.139,1.071-0.385,1.396c-0.256,0.339-0.514,0.473-0.796,0.473h-0.015c-0.189-0.006-0.313-0.063-0.441-0.217
		c-0.103-0.114-0.194-0.458-0.189-1c0-0.006,0-0.01,0-0.01l0.015-2.919l-1.431-0.007c-0.016,0-0.036,0-0.047,0
		c-0.8,0-1.42,0.104-1.867,0.328c-0.446,0.227-0.811,0.602-1.071,1.104c-0.262,0.487-0.396,0.995-0.401,1.515
		c0,0.014,0,0.02,0,0.024c0,0.396,0.072,0.77,0.227,1.113c0.148,0.348,0.395,0.641,0.707,0.847c0.313,0.204,0.646,0.313,1,0.317
		h0.036h0.006c0.34-0.004,0.667-0.128,0.98-0.339c0.209-0.144,0.4-0.317,0.573-0.522c0.114,0.272,0.293,0.497,0.534,0.646
		c0.339,0.215,0.729,0.322,1.138,0.328h0.027h0.005c0.466-0.006,0.907-0.144,1.308-0.41c0.411-0.278,0.729-0.657,0.959-1.124
		c0.237-0.478,0.35-1.025,0.35-1.632v-0.011c0,0,0,0,0-0.009C24.041,21.48,23.846,20.705,23.451,20.013z M19.819,22.907
		c-0.386,0.554-0.698,0.909-0.929,1.071c-0.23,0.158-0.456,0.237-0.667,0.237c-0.185,0-0.354-0.082-0.513-0.248
		c-0.158-0.162-0.236-0.451-0.236-0.855c0-0.359,0.057-0.682,0.169-0.964c0.113-0.278,0.287-0.52,0.539-0.72
		c0.132-0.106,0.293-0.184,0.462-0.234c0.175-0.048,0.435-0.067,0.78-0.067h0.399L19.819,22.907z"/>
</g>
</svg>
