<?xml version="1.0" encoding="iso-8859-1"?>
<!-- Generator: Adobe Illustrator 13.0.2, SVG Export Plug-In . SVG Version: 6.00 Build 14948)  -->
<!DOCTYPE svg PUBLIC "-//W3C//DTD SVG 1.1//EN" "http://www.w3.org/Graphics/SVG/1.1/DTD/svg11.dtd">
<svg version="1.1" id="Ebene_1" xmlns="http://www.w3.org/2000/svg" xmlns:xlink="http://www.w3.org/1999/xlink" x="0px" y="0px"
	 width="32px" height="32px" viewBox="0 0 32 32" enable-background="new 0 0 32 32" xml:space="preserve">
<rect fill="none" width="32" height="32"/>
<rect x="3.66" y="3.66" fill="none" width="24.69" height="24.69"/>
<path fill="#FFFFFF" d="M26.51,14.17c-0.94,0-1.74,0.57-2.09,1.37h-2.94c-0.36,0-0.68,0.2-0.83,0.53l-2.16,4.62L15.05,8.44
	c-0.1-0.36-0.41-0.62-0.78-0.66c-0.37-0.04-0.73,0.15-0.91,0.48l-3.86,7.29H7.58c-0.35-0.81-1.16-1.37-2.09-1.37
	c-1.26,0-2.29,1.02-2.29,2.29c0,1.26,1.03,2.28,2.29,2.28c0.94,0,1.74-0.56,2.09-1.37h2.48c0.34,0,0.65-0.19,0.81-0.49l3.04-5.75
	l3.5,12.43c0.1,0.37,0.43,0.63,0.81,0.66c0.02,0,0.05,0,0.07,0c0.35,0,0.68-0.21,0.83-0.53l2.95-6.33h2.35
	c0.35,0.81,1.16,1.37,2.09,1.37c1.26,0,2.29-1.02,2.29-2.28C28.8,15.2,27.78,14.17,26.51,14.17z"/>
</svg>
