<?xml version="1.0" encoding="iso-8859-1"?>
<!-- Generator: Adobe Illustrator 13.0.2, SVG Export Plug-In . SVG Version: 6.00 Build 14948)  -->
<!DOCTYPE svg PUBLIC "-//W3C//DTD SVG 1.1//EN" "http://www.w3.org/Graphics/SVG/1.1/DTD/svg11.dtd">
<svg version="1.1" id="Ebene_1" xmlns="http://www.w3.org/2000/svg" xmlns:xlink="http://www.w3.org/1999/xlink" x="0px" y="0px"
	 width="32px" height="32px" viewBox="0 0 32 32" enable-background="new 0 0 32 32" xml:space="preserve">
<rect fill="none" width="32" height="32"/>
<rect x="3.66" y="3.66" fill="none" width="24.69" height="24.69"/>
<path fill="#CCCCCC" d="M25.04,14.43c-0.8,0-1.5,0.49-1.8,1.18h-2.52c-0.31,0-0.58,0.18-0.71,0.45l-1.86,3.97L15.19,9.5
	c-0.09-0.31-0.36-0.54-0.67-0.57c-0.32-0.03-0.63,0.13-0.78,0.41l-3.31,6.26H8.76c-0.3-0.69-0.99-1.18-1.8-1.18
	C5.88,14.43,5,15.31,5,16.39c0,1.08,0.88,1.96,1.96,1.96c0.8,0,1.5-0.48,1.8-1.18h2.13c0.29,0,0.56-0.16,0.69-0.42l2.62-4.94
	l3,10.68c0.09,0.32,0.37,0.54,0.69,0.57c0.02,0,0.04,0,0.06,0c0.3,0,0.58-0.18,0.71-0.45l2.54-5.44h2.02
	c0.3,0.69,0.99,1.18,1.8,1.18c1.08,0,1.96-0.88,1.96-1.96C27,15.31,26.12,14.43,25.04,14.43z"/>
</svg>
