<?xml version="1.0" encoding="iso-8859-1"?>
<!-- Generator: Adobe Illustrator 14.0.0, SVG Export Plug-In . SVG Version: 6.00 Build 43363)  -->
<!DOCTYPE svg PUBLIC "-//W3C//DTD SVG 1.1 Basic//EN" "http://www.w3.org/Graphics/SVG/1.1/DTD/svg11-basic.dtd">
<svg version="1.1" baseProfile="basic" id="Ebene_1"
	 xmlns="http://www.w3.org/2000/svg" xmlns:xlink="http://www.w3.org/1999/xlink" x="0px" y="0px" width="32px" height="32px"
	 viewBox="0 0 32 32" xml:space="preserve">
<path fill="#CCCCCC" d="M16,14.01c1.94,0,3.5-1.74,3.5-3.61c0-1.87-1.57-3.39-3.5-3.39s-3.5,1.51-3.5,3.39
	C12.5,12.27,14.07,14.01,16,14.01z"/>
<path fill="#CCCCCC" d="M16,15.02c-3.14,0-5.68,3.79-5.68,8.47s11.36,4.68,11.36,0C21.68,18.82,19.14,15.02,16,15.02z"/>
<rect x="7.94" y="9.11" fill="#CCCCCC" width="3.02" height="1.51"/>
<polygon fill="#CCCCCC" points="11.75,6.3 9.16,4.74 8.38,6.03 10.96,7.6 "/>
<rect x="21.18" y="4.65" transform="matrix(0.5175 0.8557 -0.8557 0.5175 15.8582 -15.7944)" fill="#CCCCCC" width="1.51" height="3.03"/>
<polygon fill="#CCCCCC" points="10.96,12.13 8.41,13.74 9.22,15.02 11.78,13.41 "/>
<rect x="21.04" y="9.11" fill="#CCCCCC" width="3.02" height="1.51"/>
<polygon fill="#CCCCCC" points="20.23,13.41 22.79,15.02 23.59,13.74 21.04,12.13 "/>
</svg>
