<?xml version="1.0" encoding="iso-8859-1"?>
<!-- Generator: Adobe Illustrator 14.0.0, SVG Export Plug-In . SVG Version: 6.00 Build 43363)  -->
<!DOCTYPE svg PUBLIC "-//W3C//DTD SVG 1.1//EN" "http://www.w3.org/Graphics/SVG/1.1/DTD/svg11.dtd">
<svg version="1.1" id="Ebene_1" xmlns="http://www.w3.org/2000/svg" xmlns:xlink="http://www.w3.org/1999/xlink" x="0px" y="0px"
	 width="32px" height="32px" viewBox="0 0 32 32" enable-background="new 0 0 32 32" xml:space="preserve">
<path fill="none" d="M15.941,9.284c2.122,0,3.845,1.73,3.845,3.869c0,2.138-1.723,3.871-3.845,3.871
	c-2.119,0-3.843-1.733-3.843-3.871C12.099,11.015,13.822,9.284,15.941,9.284z"/>
<path fill="#FFFFFF" d="M15.941,17.024c2.122,0,3.845-1.733,3.845-3.871c0-2.139-1.723-3.869-3.845-3.869
	c-2.119,0-3.843,1.73-3.843,3.869C12.099,15.291,13.822,17.024,15.941,17.024z"/>
<path fill="#FFFFFF" d="M15.937,5.049c-5.83,0.253-9.032,5.546-9.186,10.964c-0.144,5.06,3.565,11.174,9.2,10.93
	c5.828-0.254,9.032-5.545,9.187-10.963C24.993,10.934,21.769,4.796,15.937,5.049z M21.466,23.71c-0.935-3.25-3.05-5.524-5.524-5.524
	c-2.482,0-4.605,2.296-5.533,5.57C8.687,21.571,7.821,18.49,7.75,15.98c-0.139-4.878,3.222-10.745,8.688-10.507
	c5.134,0.223,7.577,6.234,7.699,10.541C24.062,18.665,23.173,21.61,21.466,23.71z"/>
</svg>
