<?xml version="1.0" encoding="iso-8859-1"?>
<!-- Generator: Adobe Illustrator 13.0.0, SVG Export Plug-In . SVG Version: 6.00 Build 14948)  -->
<!DOCTYPE svg PUBLIC "-//W3C//DTD SVG 1.1//EN" "http://www.w3.org/Graphics/SVG/1.1/DTD/svg11.dtd">
<svg version="1.1" id="Ebene_1" xmlns="http://www.w3.org/2000/svg" xmlns:xlink="http://www.w3.org/1999/xlink" x="0px" y="0px"
	 width="24px" height="24px" viewBox="-0.5 -0.5 24 24" enable-background="new -0.5 -0.5 24 24" xml:space="preserve">
<rect x="-0.5" y="-0.5" fill="none" width="24" height="24"/>
<path fill="#FFFFFF" d="M13.23,8.41c1.25,0,2.26-1.02,2.26-2.28c0-1.26-1.01-2.28-2.26-2.28c-1.25,0-2.26,1.02-2.26,2.28
	C10.96,7.39,11.98,8.41,13.23,8.41z M15.57,14.48c0-3-1.59-5.44-3.56-5.44c-1.96,0-3.55,2.43-3.55,5.44
	C8.46,17.48,15.57,17.48,15.57,14.48z M16.48,13.64c0.02,0.13,0.06,0.26,0.06,0.4c0,0.11-0.03,0.2-0.04,0.29
	c2.2,0.32,3.64,0.84,3.64,1.43c0,0.97-3.86,1.76-8.62,1.76c-4.76,0-8.62-0.79-8.62-1.76c0-0.66,1.77-1.23,4.38-1.53
	c-0.01-0.07-0.03-0.12-0.03-0.2c0-0.17,0.04-0.34,0.07-0.51c-3.47,0.42-5.88,1.33-5.88,2.39c0,1.46,4.51,2.63,10.08,2.63
	s10.08-1.18,10.08-2.63C21.6,14.95,19.53,14.09,16.48,13.64z"/>
</svg>
