<?xml version="1.0" encoding="iso-8859-1"?>
<!-- Generator: Adobe Illustrator 13.0.2, SVG Export Plug-In . SVG Version: 6.00 Build 14948)  -->
<!DOCTYPE svg PUBLIC "-//W3C//DTD SVG 1.1//EN" "http://www.w3.org/Graphics/SVG/1.1/DTD/svg11.dtd">
<svg version="1.1" id="Ebene_1" xmlns="http://www.w3.org/2000/svg" xmlns:xlink="http://www.w3.org/1999/xlink" x="0px" y="0px"
	 width="24px" height="24px" viewBox="0 0 24 24" enable-background="new 0 0 24 24" xml:space="preserve">
<path fill="#FFFFFF" d="M11.5,12H18v1.5h-6.5V12z M18,9h-6.5v1.5H18V9z M3,18V6h18v12H3z M19.5,16.5v-9h-15v9H19.5z M9.5,14.33
	c0-1.56-0.78-2.83-1.75-2.83S6,12.77,6,14.33S9.5,15.89,9.5,14.33z M7.75,11C8.44,11,9,10.44,9,9.75S8.44,8.5,7.75,8.5
	S6.5,9.06,6.5,9.75S7.06,11,7.75,11z"/>
</svg>
