<?xml version="1.0" encoding="iso-8859-1"?>
<!-- Generator: Adobe Illustrator 13.0.0, SVG Export Plug-In . SVG Version: 6.00 Build 14948)  -->
<!DOCTYPE svg PUBLIC "-//W3C//DTD SVG 1.1//EN" "http://www.w3.org/Graphics/SVG/1.1/DTD/svg11.dtd">
<svg version="1.1" id="Ebene_1" xmlns="http://www.w3.org/2000/svg" xmlns:xlink="http://www.w3.org/1999/xlink" x="0px" y="0px"
	 width="24px" height="24px" viewBox="-0.5 -0.5 24 24" enable-background="new -0.5 -0.5 24 24" xml:space="preserve">
<rect x="-0.5" y="-0.5" fill="none" width="24" height="24"/>
<path fill="#FFFFFF" d="M13.47,7.97c1.43,0,2.58-1.17,2.58-2.61c0-1.44-1.16-2.6-2.58-2.6c-1.43,0-2.58,1.17-2.58,2.6
	C10.89,6.8,12.05,7.97,13.47,7.97z M16.15,14.9c0-3.43-1.82-6.21-4.06-6.21s-4.06,2.78-4.06,6.21C8.02,18.33,16.15,18.33,16.15,14.9
	z M17.19,13.95c0.03,0.15,0.06,0.3,0.06,0.46c0,0.13-0.04,0.22-0.05,0.34c2.52,0.36,4.16,0.96,4.16,1.64c0,1.11-4.41,2.01-9.85,2.01
	c-5.44,0-9.85-0.9-9.85-2.01c0-0.75,2.02-1.4,5-1.75c-0.01-0.08-0.03-0.14-0.03-0.23c0-0.2,0.04-0.39,0.08-0.58
	C2.76,14.31,0,15.35,0,16.57c0,1.66,5.16,3.01,11.52,3.01s11.52-1.35,11.52-3.01C23.04,15.44,20.68,14.46,17.19,13.95z"/>
</svg>
