<?xml version="1.0" encoding="utf-8"?>
<!-- Generator: Adobe Illustrator 14.0.0, SVG Export Plug-In . SVG Version: 6.00 Build 43363)  -->
<!DOCTYPE svg PUBLIC "-//W3C//DTD SVG 1.1//EN" "http://www.w3.org/Graphics/SVG/1.1/DTD/svg11.dtd">
<svg version="1.1" id="Ebene_1" xmlns="http://www.w3.org/2000/svg" xmlns:xlink="http://www.w3.org/1999/xlink" x="0px" y="0px"
	 width="16px" height="16px" viewBox="29 29 16 16" enable-background="new 29 29 16 16" xml:space="preserve">
<g>
	<path fill="#C7CACF" d="M29.766,37c0,3.955,3.217,7.171,7.171,7.171c3.955,0,7.168-3.217,7.168-7.171
		c0-3.955-3.216-7.168-7.168-7.168C32.983,29.828,29.766,33.047,29.766,37z"/>
	
		<radialGradient id="SVGID_1_" cx="623.0898" cy="806.3652" r="9.7823" gradientTransform="matrix(1 0 0 1 -587.5801 -771.5098)" gradientUnits="userSpaceOnUse">
		<stop  offset="0" style="stop-color:#FFFFFF"/>
		<stop  offset="0.1798" style="stop-color:#FFFFFF"/>
		<stop  offset="0.4101" style="stop-color:#FFFFFF"/>
		<stop  offset="0.4607" style="stop-color:#FBFAFA"/>
		<stop  offset="1" style="stop-color:#9A9A9A"/>
	</radialGradient>
	<path fill="url(#SVGID_1_)" d="M37.087,29.853c3.946,0,7.146,3.201,7.146,7.147c0,3.949-3.2,7.147-7.146,7.147
		c-3.946,0-7.147-3.202-7.147-7.147C29.943,33.053,33.141,29.853,37.087,29.853z"/>
	<path fill="#FFFFFF" d="M39.688,30.67c-0.581,0.177-1.941,0.967-1.95,2.838c0,0.006,0.069,0.018,0.069,0.027
		C37.802,32.257,38.454,31.202,39.688,30.67c0.002,0,0.015-0.003,0.021-0.009c0.013-0.003,0.019-0.006,0.031-0.009
		C39.721,30.652,39.705,30.661,39.688,30.67z"/>
	<path fill="#FFFFFF" d="M36.98,30.951c1.266-0.463,2.411-0.644,2.862-0.442l-1.938,0.791l-0.213,2.1
		c2.548,0.604,3.378,2.072,3.442,3.896c-0.006,1.913-1.254,3.449-2.951,3.843c-2.6,0.519-4.047-0.992-4.571-1.815
		c-1.486-2.314-0.656-5.433,1.495-7.249C35.656,31.613,36.315,31.223,36.98,30.951z"/>
	<path fill="#5A6F7C" d="M37.802,33.6l3.167,3.524l-3.852,3.937l-3.289-1.855l-0.064,0.04c0.918,1.45,2.472,1.893,3.351,1.893
		c1.724,0.048,4.015-1.328,3.93-4.017c-0.113-2.108-1.449-3.222-3.223-3.595L37.802,33.6z"/>
	<path fill="#8CA0AA" d="M36.76,41.149c2.92,0.311,4.483-2.239,4.342-3.989c-0.045-1.22-0.579-2.322-1.678-2.997L36.76,41.149z"/>
	<path fill="#5A6F7C" d="M39.867,30.533c-0.098-0.177-1.614-0.034-2.707,0.424c-1.172,0.409-2.03,1.187-1.999,1.16
		c-1.938,1.642-2.329,3.814-2.182,5.142c0.223,2.024,1.807,3.907,4.083,3.907c2.243,0.027,3.97-1.776,3.97-3.9
		c0-0.839-0.199-3.085-3.312-3.799c-0.009,0.009,0.019,0.168,0.019,0.168l3.137,3.631l-3.82,3.754l-3.931-3.775l2.133-5.007
		L39.867,30.533z"/>
	<path fill="#B01116" d="M37.023,41.046c2.533,0.027,4.538-2.387,3.723-5.011c-0.418-1.363-1.557-2.209-3.006-2.514
		c0-0.031-0.003-0.061-0.003-0.088c0-1.279,0.817-2.375,1.971-2.777c0.293-0.104,0.129-0.156-0.067-0.162
		c-1.229-0.021-3.091,0.482-4.46,1.648c-1.682,1.422-2.338,3.439-2.164,5.071C33.26,39.428,35.012,41.046,37.023,41.046z"/>
	<path fill="#FF0000" d="M37.71,33.661c2.578,0.58,3.069,2.344,3.069,3.555c0,2.026-1.642,3.717-3.756,3.692
		c-1.727-0.052-3.598-1.288-3.866-3.717c-0.141-1.303,0.259-3.396,2.112-4.958c1.26-1.089,2.99-1.563,4.122-1.608
		c-0.066,0.031-0.134,0.067-0.201,0.101c-0.974,0.541-1.605,1.569-1.605,2.701C37.594,33.435,37.542,33.597,37.71,33.661z"/>
	
		<radialGradient id="SVGID_2_" cx="623.7598" cy="807.7051" r="4.4362" gradientTransform="matrix(1 0 0 1 -587.5801 -771.5098)" gradientUnits="userSpaceOnUse">
		<stop  offset="0" style="stop-color:#FF0000"/>
		<stop  offset="0.6404" style="stop-color:#FF0000"/>
		<stop  offset="1" style="stop-color:#AA0000"/>
	</radialGradient>
	<path fill="url(#SVGID_2_)" d="M37.673,33.697c1.828,0.433,2.987,1.755,2.993,3.513c0,1.883-1.504,3.598-3.64,3.57
		c-1.401-0.04-3.036-0.906-3.598-2.835c-0.235-0.906-0.183-1.871-0.021-2.508C33.413,35.452,34.207,32.935,37.673,33.697z"/>
	
		<radialGradient id="SVGID_3_" cx="626.0908" cy="803.8486" r="1.439" gradientTransform="matrix(1 0 0 1 -587.5801 -771.5098)" gradientUnits="userSpaceOnUse">
		<stop  offset="0" style="stop-color:#BB0000"/>
		<stop  offset="0.5337" style="stop-color:#BB0000"/>
		<stop  offset="1" style="stop-color:#FF0000"/>
	</radialGradient>
	<path fill="url(#SVGID_3_)" d="M37.462,33.651c0-1.041,0.375-2.328,1.608-2.908c0,0-2.322-0.214-3.067,2.832L37.462,33.651z"/>
	
		<linearGradient id="SVGID_4_" gradientUnits="userSpaceOnUse" x1="622.0889" y1="804.4639" x2="622.9501" y2="805.1815" gradientTransform="matrix(1 0 0 1 -587.5801 -771.5098)">
		<stop  offset="0" style="stop-color:#FFFFFF"/>
		<stop  offset="0.1404" style="stop-color:#FFFFFF"/>
		<stop  offset="0.2309" style="stop-color:#FFEEEE"/>
		<stop  offset="0.4094" style="stop-color:#FFC3C3"/>
		<stop  offset="0.6588" style="stop-color:#FF7D7D"/>
		<stop  offset="0.9669" style="stop-color:#FF1E1E"/>
		<stop  offset="1" style="stop-color:#FF1313"/>
	</linearGradient>
	<path fill="url(#SVGID_4_)" d="M36.196,33.563c-0.491,0.571-2.853,2.927-2.853,2.927c-0.079-0.318,0.094-1.059,0.094-1.059
		c0.202-0.974,1.251-3.158,3.452-4.111c0,0,0.525-0.253,0.751-0.265C37.127,31.402,36.568,32.08,36.196,33.563z"/>
</g>
</svg>
