<?xml version="1.0" encoding="iso-8859-1"?>
<!-- Generator: Adobe Illustrator 13.0.0, SVG Export Plug-In . SVG Version: 6.00 Build 14948)  -->
<!DOCTYPE svg PUBLIC "-//W3C//DTD SVG 1.1//EN" "http://www.w3.org/Graphics/SVG/1.1/DTD/svg11.dtd">
<svg version="1.1" id="Ebene_1" xmlns="http://www.w3.org/2000/svg" xmlns:xlink="http://www.w3.org/1999/xlink" x="0px" y="0px"
	 width="24px" height="24px" viewBox="-0.5 -0.5 24 24" enable-background="new -0.5 -0.5 24 24" xml:space="preserve">
<rect x="-0.5" y="-0.5" fill="none" width="24" height="24"/>
<path fill="#FFFFFF" d="M16.33,15.68c0,0.01-0.01,0.02-0.02,0.04c-0.02,0.03-0.05,0.08-0.1,0.15c-0.09,0.13-0.24,0.31-0.43,0.51
	c-0.38,0.41-0.95,0.9-1.68,1.22c-0.79,0.36-1.71,0.45-2.37,0.45c-0.34,0-0.61-0.02-0.75-0.04l0-0.05l2.09-2.02l-0.93-0.9l-3.69,3.57
	l0,0l3.69,3.57l0.93-0.9l-2-1.94c0.18,0.01,0.4,0.02,0.66,0.02c0.78,0,1.88-0.09,2.95-0.57c1.91-0.86,2.81-2.41,2.85-2.47
	L16.33,15.68C16.34,15.68,16.34,15.68,16.33,15.68z M18.18,7.15l-0.93,0.9l2,1.94c-0.18-0.01-0.4-0.03-0.67-0.03
	c-0.78,0-1.88,0.1-2.95,0.57c-1.91,0.86-2.81,2.41-2.85,2.47l1.19,0.66c0,0,0,0,0-0.01c0-0.01,0.01-0.02,0.02-0.04
	c0.02-0.03,0.06-0.08,0.1-0.15c0.09-0.13,0.24-0.31,0.43-0.52c0.38-0.41,0.95-0.9,1.68-1.22c0.79-0.36,1.71-0.45,2.37-0.45
	c0.34,0,0.61,0.02,0.75,0.04v0.05l-2.09,2.02l0.93,0.9l3.69-3.57v0L18.18,7.15z M11.81,7.19c-0.72,0-1.41,0.26-2.01,0.71
	c1.11,0.76,2.01,1.97,2.6,3.45c0.58-0.65,1.46-1.42,2.67-1.97c0.01,0,0.03-0.01,0.04-0.01C14.3,8.04,13.13,7.19,11.81,7.19z
	 M10.91,6.24c0.28,0.09,0.59,0.15,0.9,0.15c1.55,0,2.8-1.2,2.8-2.69c0-1.48-1.25-2.68-2.8-2.68c-0.61,0-1.17,0.19-1.63,0.5
	c0.73,0.75,1.19,1.76,1.19,2.87C11.37,5.06,11.2,5.68,10.91,6.24z M6.97,7.34c1.7,0,3.08-1.32,3.08-2.95c0-1.63-1.38-2.95-3.08-2.95
	c-1.7,0-3.08,1.32-3.08,2.95C3.89,6.02,5.27,7.34,6.97,7.34z M11.56,13.79l0.04-0.57C11,10.33,9.15,8.23,6.97,8.23
	c-2.67,0-4.84,3.15-4.84,7.05c0,1.96,2.44,2.93,4.88,2.92l0.5-0.48l3.69-3.57L11.56,13.79z"/>
</svg>
