<?xml version="1.0" encoding="iso-8859-1"?>
<!-- Generator: Adobe Illustrator 13.0.0, SVG Export Plug-In . SVG Version: 6.00 Build 14948)  -->
<!DOCTYPE svg PUBLIC "-//W3C//DTD SVG 1.1//EN" "http://www.w3.org/Graphics/SVG/1.1/DTD/svg11.dtd">
<svg version="1.1" id="Ebene_1" xmlns="http://www.w3.org/2000/svg" xmlns:xlink="http://www.w3.org/1999/xlink" x="0px" y="0px"
	 width="24px" height="24px" viewBox="-0.5 -0.5 24 24" enable-background="new -0.5 -0.5 24 24" xml:space="preserve">
<rect x="-0.5" y="-0.5" fill="none" width="24" height="24"/>
<path fill="#FFFFFF" d="M15.73,15.16c0,0.01-0.01,0.02-0.02,0.03c-0.02,0.03-0.05,0.07-0.09,0.13c-0.08,0.11-0.21,0.27-0.37,0.45
	c-0.33,0.36-0.83,0.78-1.47,1.07c-0.7,0.31-1.5,0.39-2.07,0.39c-0.3,0-0.53-0.02-0.65-0.03l0-0.04l1.82-1.76l-0.81-0.79l-3.23,3.12
	l0,0l3.23,3.12l0.81-0.79l-1.75-1.69c0.15,0.01,0.35,0.02,0.58,0.02c0.68,0,1.64-0.08,2.58-0.5c1.67-0.75,2.46-2.11,2.49-2.16
	L15.73,15.16C15.73,15.16,15.73,15.16,15.73,15.16z M17.35,7.7l-0.81,0.79l1.75,1.69c-0.16-0.01-0.35-0.02-0.58-0.02
	c-0.68,0-1.64,0.08-2.58,0.5c-1.67,0.75-2.46,2.11-2.49,2.16l1.04,0.58c0,0,0,0,0-0.01c0,0,0.01-0.02,0.02-0.03
	c0.02-0.03,0.05-0.07,0.09-0.13c0.08-0.11,0.21-0.27,0.37-0.45c0.33-0.36,0.83-0.78,1.47-1.07c0.69-0.31,1.5-0.39,2.07-0.39
	c0.3,0,0.53,0.02,0.65,0.03v0.05l-1.83,1.76l0.81,0.79l3.23-3.12v0L17.35,7.7z M11.77,7.73c-0.63,0-1.23,0.23-1.76,0.62
	c0.97,0.67,1.76,1.72,2.27,3.02c0.51-0.57,1.27-1.24,2.33-1.73c0.01,0,0.03-0.01,0.04-0.01C13.95,8.47,12.92,7.73,11.77,7.73z
	 M10.98,6.9c0.25,0.08,0.51,0.13,0.79,0.13c1.35,0,2.45-1.05,2.45-2.35c0-1.3-1.1-2.35-2.45-2.35c-0.53,0-1.02,0.16-1.43,0.44
	c0.64,0.66,1.04,1.54,1.04,2.51C11.39,5.86,11.24,6.41,10.98,6.9z M7.54,7.86c1.49,0,2.69-1.16,2.69-2.58
	c0-1.43-1.21-2.58-2.69-2.58c-1.49,0-2.69,1.16-2.69,2.58C4.84,6.71,6.05,7.86,7.54,7.86z M11.55,13.51l0.03-0.5
	c-0.53-2.53-2.14-4.37-4.05-4.37c-2.34,0-4.24,2.76-4.24,6.17c0,1.71,2.14,2.56,4.27,2.55L8,16.94l3.23-3.12L11.55,13.51z"/>
</svg>
