<?xml version="1.0" encoding="iso-8859-1"?>
<!-- Generator: Adobe Illustrator 13.0.2, SVG Export Plug-In . SVG Version: 6.00 Build 14948)  -->
<!DOCTYPE svg PUBLIC "-//W3C//DTD SVG 1.1//EN" "http://www.w3.org/Graphics/SVG/1.1/DTD/svg11.dtd">
<svg version="1.1" id="Ebene_1" xmlns="http://www.w3.org/2000/svg" xmlns:xlink="http://www.w3.org/1999/xlink" x="0px" y="0px"
	 width="15px" height="15px" viewBox="0 0 15 15" enable-background="new 0 0 15 15" xml:space="preserve">
<g>
	<g>
		<path fill="#4C4C4C" d="M7.87,13v-2.44c0.63,0.02,1.24,0.07,1.82,0.16c-0.13,0.5-0.28,0.96-0.46,1.36
			c-0.12,0.27-0.26,0.53-0.42,0.77C8.52,12.93,8.2,12.98,7.87,13L7.87,13z M7.13,13c-0.32-0.02-0.64-0.07-0.95-0.15
			c-0.15-0.23-0.29-0.49-0.41-0.77c-0.18-0.41-0.33-0.86-0.46-1.36c0.59-0.09,1.2-0.15,1.82-0.16V13L7.13,13z M9.89,12.48
			c0.01-0.03,0.03-0.06,0.04-0.09c0.2-0.46,0.37-0.97,0.51-1.52c0.42,0.09,0.81,0.2,1.16,0.33C11.11,11.73,10.53,12.17,9.89,12.48
			L9.89,12.48z M5.11,12.48c-0.64-0.31-1.23-0.75-1.71-1.28c0.35-0.12,0.74-0.24,1.16-0.33c0.14,0.56,0.31,1.07,0.51,1.52
			C5.08,12.42,5.1,12.45,5.11,12.48L5.11,12.48z M12.08,10.58c-0.45-0.18-0.95-0.32-1.49-0.44c0.13-0.71,0.21-1.46,0.22-2.26H13
			C12.93,8.85,12.62,9.78,12.08,10.58L12.08,10.58z M2.92,10.58C2.38,9.77,2.06,8.85,2,7.87h2.19c0.02,0.79,0.09,1.55,0.22,2.26
			C3.87,10.25,3.37,10.4,2.92,10.58L2.92,10.58z M9.85,9.99c-0.64-0.1-1.3-0.16-1.98-0.18V7.87h2.19C10.04,8.62,9.97,9.33,9.85,9.99
			L9.85,9.99z M5.14,9.99C5.02,9.32,4.95,8.61,4.94,7.87h2.19v1.94C6.44,9.83,5.78,9.89,5.14,9.99L5.14,9.99z M13,7.13h-2.19
			c-0.02-0.79-0.1-1.55-0.22-2.26c0.54-0.12,1.04-0.27,1.49-0.44C12.62,5.22,12.93,6.15,13,7.13L13,7.13z M10.07,7.13H7.87V5.19
			c0.68-0.02,1.35-0.08,1.98-0.18C9.97,5.67,10.04,6.38,10.07,7.13L10.07,7.13z M7.13,7.13H4.94c0.02-0.74,0.09-1.45,0.21-2.12
			c0.63,0.1,1.3,0.16,1.98,0.18V7.13L7.13,7.13z M4.19,7.13H2c0.06-0.97,0.38-1.9,0.92-2.7C3.37,4.6,3.87,4.75,4.41,4.87
			C4.28,5.58,4.21,6.34,4.19,7.13L4.19,7.13z M7.87,4.44V2C8.2,2.02,8.52,2.07,8.83,2.15c0.16,0.24,0.29,0.5,0.42,0.77
			c0.18,0.4,0.33,0.86,0.46,1.36C9.12,4.37,8.5,4.42,7.87,4.44L7.87,4.44z M7.13,4.44C6.49,4.42,5.88,4.37,5.3,4.28
			c0.13-0.5,0.28-0.96,0.46-1.36c0.12-0.28,0.26-0.54,0.41-0.77C6.48,2.07,6.8,2.02,7.13,2V4.44L7.13,4.44z M4.56,4.14
			c-0.41-0.09-0.8-0.2-1.16-0.33c0.48-0.54,1.07-0.97,1.71-1.28C5.1,2.55,5.08,2.58,5.07,2.61C4.87,3.07,4.7,3.58,4.56,4.14
			L4.56,4.14z M10.43,4.14c-0.14-0.55-0.3-1.06-0.51-1.52C9.91,2.58,9.9,2.55,9.89,2.52c0.64,0.31,1.23,0.75,1.71,1.28
			C11.24,3.93,10.85,4.04,10.43,4.14L10.43,4.14z"/>
	</g>
</g>
</svg>
