<?xml version="1.0" encoding="iso-8859-1"?>
<!-- Generator: Adobe Illustrator 13.0.2, SVG Export Plug-In . SVG Version: 6.00 Build 14948)  -->
<!DOCTYPE svg PUBLIC "-//W3C//DTD SVG 1.1//EN" "http://www.w3.org/Graphics/SVG/1.1/DTD/svg11.dtd">
<svg version="1.1" id="Ebene_1" xmlns="http://www.w3.org/2000/svg" xmlns:xlink="http://www.w3.org/1999/xlink" x="0px" y="0px"
	 width="15px" height="15px" viewBox="0 0 15 15" enable-background="new 0 0 15 15" xml:space="preserve">
<g>
	<path fill="#4C4C4C" d="M6.06,6.03c1.11,0,2.02-1.03,2.02-2.15c0-1.11-0.9-2.01-2.02-2.01c-1.12,0-2.02,0.9-2.02,2.01
		C4.04,4.99,4.94,6.03,6.06,6.03z M6.06,6.63c-1.75,0-3.17,2.15-3.17,4.8s6.35,2.65,6.35,0S7.81,6.63,6.06,6.63z M8.64,5.32
		c0.19,0.06,0.38,0.1,0.59,0.1c1.01,0,1.83-0.96,1.83-1.98c0-1.02-0.82-1.85-1.83-1.85c-0.4,0-0.77,0.13-1.07,0.35
		c0.48,0.52,0.78,1.21,0.78,1.97C8.94,4.37,8.83,4.93,8.64,5.32z M9.23,5.97c-0.47,0-0.92,0.18-1.32,0.49
		c1.3,0.94,2.18,2.83,2.18,5.08c0,0.21-0.03,0.41-0.08,0.61c1.14-0.18,2.09-0.77,2.09-1.77C12.12,7.95,10.82,5.97,9.23,5.97z"/>
</g>
</svg>
