<?xml version="1.0" encoding="iso-8859-1"?>
<!-- Generator: Adobe Illustrator 13.0.2, SVG Export Plug-In . SVG Version: 6.00 Build 14948)  -->
<!DOCTYPE svg PUBLIC "-//W3C//DTD SVG 1.1//EN" "http://www.w3.org/Graphics/SVG/1.1/DTD/svg11.dtd">
<svg version="1.1" id="Ebene_1" xmlns="http://www.w3.org/2000/svg" xmlns:xlink="http://www.w3.org/1999/xlink" x="0px" y="0px"
	 width="15px" height="15px" viewBox="0 0 15 15" enable-background="new 0 0 15 15" xml:space="preserve">
<g>
	<polygon fill="#FFFFFF" points="12.67,11.85 11.34,11.67 11.49,10.41 12.82,10.59 	"/>
	<polygon fill="#FFFFFF" points="11.74,4 11.74,9.62 12.72,9.75 14,4.3 	"/>
	<path fill="#FFFFFF" d="M5.89,4.17C3.01,4.17,1,5.78,1,8.09C1,10.39,3.01,12,5.89,12c2.88,0,4.89-1.61,4.89-3.91
		C10.79,5.78,8.78,4.17,5.89,4.17z"/>
	<path fill="#666666" d="M8.75,7.12C8.64,7.13,8.2,7.24,8.05,7.27C7.9,7.32,6.45,8.51,6.35,8.8c-0.02,0.1-0.03,0.26-0.03,0.4
		L6.31,9.45c0,0.17,0.04,0.44,0.07,0.59c0.09,0.02,0.79,0,0.91,0.03l-0.02,0.3c-0.12-0.01-1-0.01-1.5-0.01
		c-0.25,0-1.07,0.03-1.32,0.02l0.05-0.29c0.14-0.01,0.71,0.03,0.83-0.11C5.39,9.9,5.37,9.83,5.37,9.42V9.23c0-0.09,0-0.26-0.02-0.42
		C5.3,8.64,4.02,6.94,3.69,6.67C3.6,6.64,3,6.58,2.85,6.54L2.85,6.28c0.07-0.04,0.74,0.01,1.38-0.02c0.42-0.02,1.39,0,1.51,0.02
		L5.7,6.51C5.58,6.54,4.96,6.56,4.81,6.6c0.41,0.66,1.06,1.5,1.28,1.82C6.2,8.24,7.22,7.5,7.26,7.24C7.1,7.2,6.57,7.12,6.49,7.12
		l-0.05-0.3c0.14-0.02,0.9,0,1.28,0c0.33,0,1.02,0,1.22,0.02L8.75,7.12z"/>
</g>
</svg>
