<?xml version="1.0" encoding="iso-8859-1"?>
<!-- Generator: Adobe Illustrator 13.0.0, SVG Export Plug-In . SVG Version: 6.00 Build 14948)  -->
<!DOCTYPE svg PUBLIC "-//W3C//DTD SVG 1.1//EN" "http://www.w3.org/Graphics/SVG/1.1/DTD/svg11.dtd">
<svg version="1.1" id="Ebene_1" xmlns="http://www.w3.org/2000/svg" xmlns:xlink="http://www.w3.org/1999/xlink" x="0px" y="0px"
	 width="24px" height="24px" viewBox="-0.5 -0.5 24 24" enable-background="new -0.5 -0.5 24 24" xml:space="preserve">
<rect x="-0.5" y="-0.5" fill="none" width="24" height="24"/>
<rect x="-0.5" y="-0.5" fill="none" width="24" height="24"/>
<rect x="-0.5" y="-0.5" fill="none" width="24" height="24"/>
<g>
	<path fill="#FFFFFF" d="M11.5,4.12c-4.08,0-7.39,3.31-7.39,7.38v7.38h7.39c4.08,0,7.38-3.31,7.38-7.38
		C18.88,7.42,15.58,4.12,11.5,4.12z M11.5,17.04H5.96V11.5c0-2.99,2.54-5.54,5.54-5.54s5.54,2.55,5.54,5.54
		C17.04,14.5,14.5,17.04,11.5,17.04z"/>
	<path fill="#FFFFFF" d="M11.5,11.18L8.85,8.47L7.81,9.68l2.95,3.07c0.15,0.29,0.44,0.58,0.79,0.58c0.36,0,0.68-0.3,0.82-0.62
		l2.36-2.46l-1.05-1.19L11.5,11.18z"/>
</g>
</svg>
