<?xml version="1.0" encoding="iso-8859-1"?>
<!-- Generator: Adobe Illustrator 13.0.2, SVG Export Plug-In . SVG Version: 6.00 Build 14948)  -->
<!DOCTYPE svg PUBLIC "-//W3C//DTD SVG 1.1//EN" "http://www.w3.org/Graphics/SVG/1.1/DTD/svg11.dtd">
<svg version="1.1" id="Ebene_1" xmlns="http://www.w3.org/2000/svg" xmlns:xlink="http://www.w3.org/1999/xlink" x="0px" y="0px"
	 width="15px" height="15px" viewBox="0 0 15 15" enable-background="new 0 0 15 15" xml:space="preserve">
<g>
	<rect fill="none" width="15" height="15"/>
	<rect fill="none" width="15" height="15"/>
	<rect x="1.25" y="1.25" fill="none" width="12.5" height="12.5"/>
	<path fill="#FFFFFF" d="M13.35,8.65c0.08-0.4,0.13-0.81,0.13-1.23c0-3.29-2.66-5.96-5.95-5.96c-0.44,0-0.86,0.05-1.27,0.14
		C5.8,1.38,5.28,1.25,4.74,1.25c-1.93,0-3.49,1.56-3.49,3.49c0,0.6,0.15,1.16,0.41,1.65C1.6,6.72,1.57,7.07,1.57,7.42
		c0,3.29,2.67,5.96,5.96,5.96c0.34,0,0.67-0.03,1-0.09c0.51,0.29,1.1,0.46,1.73,0.46c1.93,0,3.49-1.56,3.49-3.49
		C13.75,9.68,13.61,9.13,13.35,8.65z M8.76,11.34c-3.27,0.84-5.45-2.06-3.72-2.58c0.79-0.23,0.93,1.25,2.32,1.36
		c1.19,0.09,1.79-0.41,1.79-1c0-0.79-0.47-0.86-2.43-1.2C4.75,7.58,4.45,6.63,4.45,5.68c0-0.95,0.64-2.34,3.15-2.38
		c2.5-0.04,3.56,1.86,2.77,2.32C9.1,6.38,9.26,4.67,7.64,4.67c-0.99,0-1.47,0.39-1.47,0.82c0,0.59,0.54,0.82,1.52,1.04
		c0.97,0.21,3.25,0.39,3.25,2.47C10.94,10.46,10.09,11,8.76,11.34z"/>
</g>
</svg>
