<?xml version="1.0" encoding="iso-8859-1"?>
<!-- Generator: Adobe Illustrator 13.0.2, SVG Export Plug-In . SVG Version: 6.00 Build 14948)  -->
<!DOCTYPE svg PUBLIC "-//W3C//DTD SVG 1.1//EN" "http://www.w3.org/Graphics/SVG/1.1/DTD/svg11.dtd">
<svg version="1.1" id="Ebene_1" xmlns="http://www.w3.org/2000/svg" xmlns:xlink="http://www.w3.org/1999/xlink" x="0px" y="0px"
	 width="13px" height="13px" viewBox="0 0 13 13" enable-background="new 0 0 13 13" xml:space="preserve">
<g>
	<path fill="#FFFFFF" d="M5.09,5.79L3.65,7.22C3.44,5.84,3.73,4.29,5.03,3.11c0.18-0.17,0.34-0.29,0.44-0.36
		c0.06-0.04,0.1-0.07,0.12-0.09l0.07-0.06L5.04,1.5L4.98,1.55C3.1,2.72,2.15,4.64,2.12,7.06L0.85,5.79L0.14,6.5l2.83,2.83L5.79,6.5
		L5.09,5.79z"/>
	<path fill="#FFFFFF" d="M7.91,7.21L9.33,5.8c0.22,1.38-0.07,2.92-1.36,4.1c-0.18,0.17-0.34,0.29-0.44,0.36
		c-0.06,0.04-0.1,0.07-0.12,0.09l-0.08,0.06l0.62,1.1l0.06-0.04c1.88-1.17,2.82-3.08,2.87-5.52l1.27,1.27l0.71-0.71l-2.83-2.83
		L7.21,6.5L7.91,7.21z"/>
</g>
</svg>
