<?xml version="1.0" encoding="iso-8859-1"?>
<!-- Generator: Adobe Illustrator 13.0.2, SVG Export Plug-In . SVG Version: 6.00 Build 14948)  -->
<!DOCTYPE svg PUBLIC "-//W3C//DTD SVG 1.1//EN" "http://www.w3.org/Graphics/SVG/1.1/DTD/svg11.dtd">
<svg version="1.1" id="Ebene_1" xmlns="http://www.w3.org/2000/svg" xmlns:xlink="http://www.w3.org/1999/xlink" x="0px" y="0px"
	 width="13px" height="13px" viewBox="0 0 13 13" enable-background="new 0 0 13 13" xml:space="preserve">
<g>
	<path fill="#FFFFFF" d="M5.79,7.91l1.43,1.43C5.84,9.56,4.29,9.27,3.11,7.97C2.95,7.79,2.82,7.63,2.76,7.54
		c-0.04-0.06-0.07-0.1-0.09-0.12L2.61,7.34L1.5,7.96l0.04,0.06c1.18,1.88,3.1,2.84,5.51,2.87l-1.27,1.27l0.71,0.71l2.83-2.83
		L6.5,7.21L5.79,7.91z"/>
	<path fill="#FFFFFF" d="M7.21,5.09L5.8,3.67c1.38-0.22,2.92,0.07,4.1,1.36c0.17,0.18,0.29,0.34,0.35,0.44
		c0.04,0.06,0.07,0.1,0.09,0.12l0.06,0.08l1.1-0.62l-0.04-0.06c-1.17-1.88-3.08-2.82-5.52-2.87l1.27-1.27L6.5,0.14L3.67,2.96
		L6.5,5.79L7.21,5.09z"/>
</g>
</svg>
