<?xml version="1.0" encoding="iso-8859-1"?>
<!-- Generator: Adobe Illustrator 13.0.2, SVG Export Plug-In . SVG Version: 6.00 Build 14948)  -->
<!DOCTYPE svg PUBLIC "-//W3C//DTD SVG 1.1//EN" "http://www.w3.org/Graphics/SVG/1.1/DTD/svg11.dtd">
<svg version="1.1" id="Ebene_1" xmlns="http://www.w3.org/2000/svg" xmlns:xlink="http://www.w3.org/1999/xlink" x="0px" y="0px"
	 width="13px" height="13px" viewBox="0 0 13 13" enable-background="new 0 0 13 13" xml:space="preserve">
<g>
	<path fill="#999999" d="M5,7v2.02C3.86,8.2,2.98,6.9,3.06,5.15C3.07,4.9,3.1,4.7,3.12,4.58c0.01-0.07,0.02-0.12,0.02-0.15
		l0.01-0.09L1.94,4L1.92,4.07c-0.5,2.16,0.19,4.2,1.87,5.92H2V11h4V7H5z"/>
	<path fill="#999999" d="M8,6l0-2c1.13,0.82,2.02,2.11,1.94,3.85C9.93,8.1,9.9,8.3,9.88,8.42C9.87,8.49,9.86,8.54,9.86,8.57
		L9.85,8.66L11.06,9l0.01-0.07c0.5-2.15-0.19-4.17-1.87-5.93L11,3V2L7,2l0,4H8z"/>
</g>
</svg>
