<?xml version="1.0" encoding="iso-8859-1"?>
<!-- Generator: Adobe Illustrator 13.0.2, SVG Export Plug-In . SVG Version: 6.00 Build 14948)  -->
<!DOCTYPE svg PUBLIC "-//W3C//DTD SVG 1.1//EN" "http://www.w3.org/Graphics/SVG/1.1/DTD/svg11.dtd">
<svg version="1.1" id="Ebene_1" xmlns="http://www.w3.org/2000/svg" xmlns:xlink="http://www.w3.org/1999/xlink" x="0px" y="0px"
	 width="13px" height="13px" viewBox="0 0 13 13" enable-background="new 0 0 13 13" xml:space="preserve">
<g>
	<path fill="#999999" d="M6,5H3.98C4.8,3.86,6.1,2.98,7.85,3.06C8.1,3.07,8.3,3.1,8.42,3.12c0.07,0.01,0.12,0.02,0.15,0.02
		l0.09,0.01L9,1.93L8.93,1.92c-2.16-0.5-4.2,0.19-5.92,1.87V2H2v4h4V5z"/>
	<path fill="#999999" d="M7,8h2c-0.82,1.13-2.11,2.02-3.85,1.94C4.9,9.93,4.7,9.9,4.58,9.88C4.51,9.87,4.46,9.86,4.43,9.86
		L4.34,9.85L4,11.06l0.07,0.01c2.15,0.5,4.17-0.19,5.93-1.87V11h1V7H7V8z"/>
</g>
</svg>
