<?xml version="1.0" encoding="iso-8859-1"?>
<!-- Generator: Adobe Illustrator 13.0.0, SVG Export Plug-In . SVG Version: 6.00 Build 14948)  -->
<!DOCTYPE svg PUBLIC "-//W3C//DTD SVG 1.1//EN" "http://www.w3.org/Graphics/SVG/1.1/DTD/svg11.dtd">
<svg version="1.1" id="Ebene_1" xmlns="http://www.w3.org/2000/svg" xmlns:xlink="http://www.w3.org/1999/xlink" x="0px" y="0px"
	 width="24px" height="12px" viewBox="0 0 24 12" enable-background="new 0 0 24 12" xml:space="preserve">
<g>
	<g>
		<path fill="#FFFFFF" d="M1.66,10.82l3.32-9.34h0.87l3.37,9.34H8.06L7.01,7.93H3.76l-0.98,2.88H1.66z M4.11,6.94h2.55L5.37,3.08
			L4.11,6.94z"/>
		<path fill="#FFFFFF" d="M12.55,10.97c-0.48,0-0.92-0.05-1.3-0.16c-0.38-0.11-0.71-0.22-0.97-0.34V1.48h1.02v2.87
			c0.27-0.13,0.54-0.22,0.79-0.28c0.26-0.06,0.51-0.08,0.75-0.08c0.61,0,1.14,0.17,1.6,0.5s0.79,0.78,0.98,1.32s0.29,1.1,0.29,1.67
			c0,0.8-0.17,1.48-0.52,2.04s-0.77,0.94-1.25,1.14C13.46,10.87,13,10.97,12.55,10.97z M12.41,10.12c0.72,0,1.28-0.24,1.69-0.72
			c0.41-0.48,0.62-1.13,0.62-1.94c0-0.6-0.11-1.1-0.34-1.5c-0.22-0.4-0.49-0.68-0.81-0.85c-0.32-0.16-0.62-0.25-0.91-0.25
			c-0.21,0-0.44,0.03-0.67,0.09s-0.46,0.17-0.69,0.33v4.58c0.16,0.08,0.34,0.14,0.53,0.18C12.03,10.1,12.23,10.12,12.41,10.12z"/>
		<path fill="#FFFFFF" d="M20.04,10.97c-0.38,0-0.75-0.07-1.11-0.21c-0.36-0.14-0.67-0.35-0.94-0.64c-0.27-0.29-0.49-0.65-0.66-1.08
			s-0.25-0.95-0.25-1.53c0-0.89,0.17-1.61,0.52-2.18c0.34-0.56,0.74-0.93,1.18-1.1c0.44-0.17,0.83-0.25,1.19-0.25
			c0.47,0,0.88,0.09,1.23,0.27c0.35,0.18,0.61,0.38,0.78,0.59c0.16,0.21,0.28,0.39,0.36,0.52l-0.71,0.53
			c-0.21-0.32-0.43-0.57-0.67-0.76c-0.24-0.19-0.56-0.29-0.97-0.29c-0.39,0-0.74,0.13-1.05,0.4c-0.31,0.27-0.53,0.6-0.65,1
			c-0.13,0.4-0.19,0.81-0.19,1.23s0.05,0.79,0.16,1.12c0.11,0.33,0.25,0.6,0.43,0.83c0.18,0.22,0.39,0.39,0.64,0.51
			s0.5,0.17,0.77,0.17c0.43,0,0.79-0.07,1.07-0.2s0.54-0.3,0.76-0.52l0.29,0.88c-0.24,0.21-0.56,0.38-0.94,0.51
			S20.48,10.97,20.04,10.97z"/>
	</g>
</g>
</svg>
