<?xml version="1.0" encoding="iso-8859-1"?>
<!-- Generator: Adobe Illustrator 13.0.0, SVG Export Plug-In . SVG Version: 6.00 Build 14948)  -->
<!DOCTYPE svg PUBLIC "-//W3C//DTD SVG 1.1//EN" "http://www.w3.org/Graphics/SVG/1.1/DTD/svg11.dtd">
<svg version="1.1" id="Ebene_1" xmlns="http://www.w3.org/2000/svg" xmlns:xlink="http://www.w3.org/1999/xlink" x="0px" y="0px"
	 width="24px" height="12px" viewBox="0 0 24 12" enable-background="new 0 0 24 12" xml:space="preserve">
<g>
	<g>
		<path fill="#FFFFFF" d="M4.73,10.97c-0.28,0-0.55-0.04-0.8-0.13c-0.26-0.09-0.49-0.22-0.69-0.39c-0.21-0.17-0.37-0.39-0.49-0.65
			C2.62,9.54,2.56,9.23,2.56,8.89c0-0.65,0.24-1.17,0.71-1.55c0.48-0.38,1.01-0.62,1.61-0.71c0.6-0.1,1.11-0.15,1.53-0.15V6.39
			c0-0.56-0.11-0.96-0.34-1.2C5.84,4.95,5.52,4.83,5.1,4.83C4.8,4.83,4.5,4.88,4.19,5c-0.31,0.12-0.61,0.29-0.9,0.52L2.96,4.74
			C3.2,4.56,3.5,4.38,3.85,4.22c0.36-0.16,0.8-0.24,1.33-0.24c0.71,0,1.26,0.19,1.66,0.57c0.4,0.38,0.59,1.02,0.59,1.92v4.35H6.5
			l-0.04-0.57c-0.22,0.23-0.48,0.41-0.77,0.54S5.08,10.97,4.73,10.97z M4.86,10.09c0.31,0,0.59-0.07,0.85-0.2
			C5.96,9.75,6.2,9.59,6.41,9.4V7.33C5.82,7.35,5.3,7.41,4.87,7.52S4.11,7.8,3.91,8.04S3.6,8.56,3.6,8.9c0,0.3,0.09,0.55,0.26,0.76
			c0.17,0.21,0.35,0.33,0.53,0.37C4.56,10.07,4.72,10.09,4.86,10.09z"/>
		<path fill="#FFFFFF" d="M11.65,10.97c-0.49,0-0.92-0.05-1.3-0.16c-0.38-0.11-0.71-0.22-0.97-0.34V1.48h1.02v2.87
			c0.27-0.13,0.53-0.22,0.79-0.28c0.26-0.06,0.51-0.08,0.75-0.08c0.61,0,1.14,0.17,1.6,0.5s0.79,0.78,0.98,1.32s0.29,1.1,0.29,1.67
			c0,0.8-0.18,1.48-0.53,2.04s-0.77,0.94-1.25,1.14C12.56,10.87,12.1,10.97,11.65,10.97z M11.51,10.12c0.72,0,1.28-0.24,1.69-0.72
			s0.62-1.13,0.62-1.94c0-0.6-0.11-1.1-0.34-1.5c-0.22-0.4-0.5-0.68-0.81-0.85c-0.32-0.16-0.62-0.25-0.91-0.25
			c-0.21,0-0.44,0.03-0.66,0.09c-0.23,0.06-0.46,0.17-0.69,0.33v4.58c0.16,0.08,0.34,0.14,0.53,0.18
			C11.13,10.1,11.32,10.12,11.51,10.12z"/>
		<path fill="#FFFFFF" d="M19.14,10.97c-0.38,0-0.75-0.07-1.11-0.21c-0.35-0.14-0.67-0.35-0.94-0.64c-0.27-0.29-0.49-0.65-0.66-1.08
			s-0.25-0.95-0.25-1.53c0-0.89,0.17-1.61,0.52-2.18c0.35-0.56,0.74-0.93,1.18-1.1s0.83-0.25,1.19-0.25c0.47,0,0.88,0.09,1.23,0.27
			c0.35,0.18,0.61,0.38,0.78,0.59c0.16,0.21,0.28,0.39,0.36,0.52l-0.71,0.53c-0.21-0.32-0.43-0.57-0.67-0.76s-0.56-0.29-0.97-0.29
			c-0.39,0-0.74,0.13-1.05,0.4c-0.31,0.27-0.52,0.6-0.65,1c-0.13,0.4-0.19,0.81-0.19,1.23s0.05,0.79,0.16,1.12
			c0.11,0.33,0.25,0.6,0.43,0.83c0.18,0.22,0.39,0.39,0.64,0.51s0.5,0.17,0.77,0.17c0.43,0,0.79-0.07,1.07-0.2s0.54-0.3,0.76-0.52
			l0.29,0.88c-0.24,0.21-0.56,0.38-0.95,0.51C19.99,10.91,19.58,10.97,19.14,10.97z"/>
	</g>
</g>
</svg>
