<?xml version="1.0" encoding="iso-8859-1"?>
<!-- Generator: Adobe Illustrator 13.0.0, SVG Export Plug-In . SVG Version: 6.00 Build 14948)  -->
<!DOCTYPE svg PUBLIC "-//W3C//DTD SVG 1.1//EN" "http://www.w3.org/Graphics/SVG/1.1/DTD/svg11.dtd">
<svg version="1.1" id="Ebene_1" xmlns="http://www.w3.org/2000/svg" xmlns:xlink="http://www.w3.org/1999/xlink" x="0px" y="0px"
	 width="24px" height="12px" viewBox="0 0 24 12" enable-background="new 0 0 24 12" xml:space="preserve">
<g>
	<g>
		<path fill="#FFFFFF" d="M0.93,10.82l3.32-9.34h0.87l3.37,9.34H7.33L6.28,7.93H3.03l-0.98,2.88H0.93z M3.38,6.94h2.55L4.64,3.08
			L3.38,6.94z"/>
		<path fill="#FFFFFF" d="M9.71,10.82V1.48h2.52c0.9,0,1.57,0.21,2.02,0.64c0.45,0.43,0.67,1.01,0.67,1.74
			c0,0.6-0.16,1.06-0.48,1.38c-0.32,0.32-0.73,0.53-1.24,0.62c0.43,0.06,0.81,0.18,1.15,0.39c0.34,0.2,0.59,0.47,0.77,0.82
			c0.18,0.35,0.27,0.73,0.27,1.15c0,0.61-0.13,1.12-0.41,1.53c-0.27,0.41-0.61,0.69-1.01,0.85c-0.41,0.15-0.8,0.23-1.17,0.23H9.71z
			 M10.78,5.44h1.37c0.53,0,0.94-0.15,1.23-0.45s0.43-0.69,0.43-1.18c0-0.91-0.51-1.37-1.54-1.37h-1.5V5.44z M10.78,9.85h1.97
			c0.45,0,0.81-0.14,1.08-0.41s0.41-0.69,0.41-1.25c0-1.19-0.69-1.78-2.06-1.78h-1.41V9.85z"/>
		<path fill="#FFFFFF" d="M20.27,11c-0.52,0-1.01-0.09-1.46-0.27c-0.45-0.18-0.84-0.47-1.17-0.85c-0.33-0.39-0.59-0.88-0.79-1.49
			c-0.19-0.61-0.29-1.34-0.29-2.2c0-1.2,0.21-2.2,0.63-2.98s0.91-1.3,1.48-1.54c0.56-0.24,1.08-0.36,1.53-0.36
			c0.64,0,1.2,0.13,1.65,0.41c0.46,0.27,0.86,0.7,1.2,1.29l-0.78,0.64c-0.24-0.34-0.45-0.59-0.63-0.76c-0.18-0.17-0.4-0.3-0.67-0.41
			c-0.27-0.1-0.54-0.15-0.8-0.15c-0.79,0-1.4,0.34-1.83,1.01C17.91,4,17.69,4.96,17.69,6.2c0,0.61,0.07,1.15,0.2,1.62
			c0.13,0.47,0.32,0.87,0.54,1.19c0.23,0.32,0.5,0.56,0.82,0.73c0.32,0.16,0.66,0.25,1.02,0.25c0.54,0,0.98-0.08,1.32-0.25
			s0.66-0.4,0.96-0.7l0.39,1.01c-0.19,0.19-0.43,0.35-0.72,0.5c-0.29,0.15-0.62,0.26-0.97,0.34C20.92,10.96,20.58,11,20.27,11z"/>
	</g>
</g>
</svg>
