<?xml version="1.0" encoding="iso-8859-1"?>
<!-- Generator: Adobe Illustrator 13.0.0, SVG Export Plug-In . SVG Version: 6.00 Build 14948)  -->
<!DOCTYPE svg PUBLIC "-//W3C//DTD SVG 1.1//EN" "http://www.w3.org/Graphics/SVG/1.1/DTD/svg11.dtd">
<svg version="1.1" id="Ebene_1" xmlns="http://www.w3.org/2000/svg" xmlns:xlink="http://www.w3.org/1999/xlink" x="0px" y="0px"
	 width="24px" height="12px" viewBox="0 0 24 12" enable-background="new 0 0 24 12" xml:space="preserve">
<g>
	<g>
		<path fill="#FFFFFF" d="M4.62,10.82V2.85l-2,1.34L2.1,3.43l2.66-1.85H5.7v9.24H4.62z"/>
		<path fill="#FFFFFF" d="M9.16,10.82V10.2c0-0.55,0.09-0.98,0.26-1.3s0.49-0.69,0.96-1.12l1.23-1.12c0.52-0.48,0.91-0.86,1.16-1.16
			c0.25-0.3,0.4-0.56,0.47-0.78c0.06-0.22,0.1-0.46,0.1-0.7c0-0.53-0.13-0.94-0.4-1.21c-0.27-0.27-0.65-0.41-1.14-0.41
			c-0.35,0-0.7,0.08-1.04,0.25s-0.73,0.47-1.16,0.9l-0.53-0.8C9.33,2.46,9.62,2.21,9.94,2c0.31-0.21,0.63-0.37,0.96-0.46
			c0.33-0.09,0.67-0.14,1-0.14c0.6,0,1.1,0.13,1.5,0.41c0.41,0.27,0.69,0.59,0.84,0.97c0.15,0.37,0.23,0.74,0.23,1.11
			c0,0.6-0.13,1.12-0.4,1.58c-0.27,0.46-0.7,0.95-1.29,1.47L11.44,8.1C11,8.48,10.7,8.79,10.54,9.04s-0.24,0.53-0.24,0.83h4.4v0.95
			H9.16z"/>
		<path fill="#FFFFFF" d="M18.89,11c-0.61,0-1.13-0.09-1.58-0.26s-0.82-0.4-1.12-0.68l0.46-0.91c0.34,0.3,0.69,0.52,1.02,0.66
			c0.34,0.14,0.73,0.21,1.19,0.21c0.39,0,0.74-0.08,1.05-0.25c0.31-0.16,0.53-0.4,0.67-0.71c0.14-0.31,0.21-0.65,0.21-1.01
			c0-0.52-0.11-0.93-0.34-1.23s-0.51-0.49-0.85-0.58S18.92,6.1,18.61,6.1c-0.24,0-0.56,0.02-0.95,0.07V5.4
			c0.32-0.47,0.74-1,1.28-1.6c0.54-0.6,0.97-1.02,1.31-1.26h-3.92V1.59h5.14v1.09c-0.39,0.24-0.84,0.63-1.34,1.16
			c-0.5,0.53-0.92,1.01-1.26,1.46c0.04-0.01,0.13-0.01,0.27-0.01c0.61,0,1.13,0.12,1.56,0.36c0.43,0.24,0.74,0.57,0.93,0.99
			c0.19,0.42,0.28,0.86,0.28,1.33c0,0.68-0.17,1.27-0.5,1.76c-0.33,0.49-0.73,0.82-1.2,1C19.73,10.91,19.29,11,18.89,11z"/>
	</g>
</g>
</svg>
