<?xml version="1.0" encoding="iso-8859-1"?>
<!-- Generator: Adobe Illustrator 13.0.2, SVG Export Plug-In . SVG Version: 6.00 Build 14948)  -->
<!DOCTYPE svg PUBLIC "-//W3C//DTD SVG 1.1//EN" "http://www.w3.org/Graphics/SVG/1.1/DTD/svg11.dtd">
<svg version="1.1" id="Ebene_1" xmlns="http://www.w3.org/2000/svg" xmlns:xlink="http://www.w3.org/1999/xlink" x="0px" y="0px"
	 width="15px" height="15px" viewBox="0 0 15 15" enable-background="new 0 0 15 15" xml:space="preserve">
<g>
	<rect fill="none" width="15" height="15"/>
	<rect fill="none" width="15" height="15"/>
	<rect x="1.25" y="1.25" fill="none" width="12.5" height="12.5"/>
	<path fill="#FFFFFF" d="M4.3,1.47C3.55,1.56,2.99,2.2,3,2.95v5.93v0.01v0.03c0.04,1.15,0.44,2.25,1.19,3.12
		c0.76,0.87,1.93,1.47,3.23,1.43h2.91c0.53,0.01,1.02-0.28,1.28-0.73c0.27-0.46,0.27-1.01,0-1.47c-0.26-0.46-0.75-0.74-1.28-0.73
		H7.37H7.34H7.32c-0.41,0.01-0.66-0.12-0.92-0.42c-0.26-0.3-0.46-0.78-0.47-1.28V7.6h4.4c0.53,0.01,1.02-0.28,1.28-0.73
		c0.27-0.46,0.27-1.01,0-1.47c-0.26-0.46-0.75-0.74-1.28-0.73h-4.4V2.95c0.01-0.42-0.17-0.83-0.48-1.11
		C5.13,1.55,4.72,1.42,4.3,1.47z"/>
</g>
</svg>
