<?xml version="1.0" encoding="iso-8859-1"?>
<!-- Generator: Adobe Illustrator 13.0.2, SVG Export Plug-In . SVG Version: 6.00 Build 14948)  -->
<!DOCTYPE svg PUBLIC "-//W3C//DTD SVG 1.1//EN" "http://www.w3.org/Graphics/SVG/1.1/DTD/svg11.dtd">
<svg version="1.1" id="Ebene_1" xmlns="http://www.w3.org/2000/svg" xmlns:xlink="http://www.w3.org/1999/xlink" x="0px" y="0px"
	 width="15px" height="15px" viewBox="0 0 15 15" enable-background="new 0 0 15 15" xml:space="preserve">
<g>
	<rect x="0" fill="none" width="15" height="15"/>
	<rect x="0" fill="none" width="15" height="15"/>
	<rect x="1.25" y="1.25" fill="none" width="12.5" height="12.5"/>
	<path fill="#FFFFFF" d="M11.92,3.09C10.74,1.9,9.17,1.25,7.5,1.25c-3.45,0-6.25,2.8-6.25,6.25c0,3.45,2.8,6.25,6.25,6.25
		s6.25-2.8,6.25-6.25C13.75,5.84,13.1,4.27,11.92,3.09z M10.91,7.69c0,0.52-0.12,1.05-0.36,1.51c-0.15,0.3-0.36,0.59-0.6,0.83
		c-0.09,0.09-0.18,0.17-0.28,0.25c-0.35,0.28-0.75,0.48-1.18,0.6c-0.3,0.08-0.61,0.12-0.93,0.12c-0.12,0-0.24-0.01-0.35-0.02
		c-0.18-0.02-0.36-0.05-0.53-0.11c-0.57-0.17-1.09-0.48-1.52-0.91C4.98,9.77,4.84,9.59,4.7,9.38c-0.2-0.31-0.35-0.65-0.45-1
		C4.24,8.35,4.23,8.32,4.23,8.3c-0.05-0.2-0.09-0.4-0.1-0.62C4.1,7.47,4.1,7.25,4.1,7.04V6.98c0.01-0.3,0.06-0.6,0.13-0.88
		C4.52,4.95,5.19,3.98,5.98,3.3c0.53-0.45,1.13-0.77,1.7-1c0.18-0.07,0.34-0.12,0.51-0.17c0.1-0.03,0.21-0.06,0.3-0.1
		c0.28-0.07,0.55-0.12,0.78-0.14c0.2-0.02,0.39-0.02,0.54-0.02c0.16,0.01,0.3,0.05,0.05,0.14c-0.99,0.35-1.7,1.3-1.7,2.4v0.08
		C8.68,4.59,9.11,4.77,9.48,5c0.35,0.22,0.63,0.48,0.86,0.8c0.02,0.02,0.04,0.05,0.05,0.07c0.16,0.24,0.29,0.51,0.38,0.8
		c0.09,0.28,0.13,0.58,0.15,0.9V7.69z"/>
</g>
</svg>
