<?xml version="1.0" encoding="iso-8859-1"?>
<!-- Generator: Adobe Illustrator 13.0.0, SVG Export Plug-In . SVG Version: 6.00 Build 14948)  -->
<!DOCTYPE svg PUBLIC "-//W3C//DTD SVG 1.1//EN" "http://www.w3.org/Graphics/SVG/1.1/DTD/svg11.dtd">
<svg version="1.1" id="Ebene_1" xmlns="http://www.w3.org/2000/svg" xmlns:xlink="http://www.w3.org/1999/xlink" x="0px" y="0px"
	 width="15px" height="15px" viewBox="0 0 15 15" style="enable-background:new 0 0 15 15;" xml:space="preserve">
<g>
	<path style="fill:#FFFFFF;" d="M6.21,2.1c-1.31,0-2.2,0.51-2.2,0.51S3.2,5.4,2.98,6.42c0,0,1.28-0.55,2.38-0.47
		c0.95,0.07,1.67,0.65,1.67,0.65L8.1,2.87C8.1,2.87,7.52,2.1,6.21,2.1z"/>
	<path style="fill:#FFFFFF;" d="M4.85,6.93c-1.31,0-2.2,0.51-2.2,0.51s-0.79,2.8-1.04,3.81c0,0,1.28-0.55,2.38-0.47
		c0.97,0.07,1.67,0.65,1.67,0.65L6.74,7.7C6.74,7.7,6.15,6.93,4.85,6.93z"/>
	<path style="fill:#FFFFFF;" d="M8.82,12.89c1.31,0,2.2-0.51,2.2-0.51s0.79-2.83,1.04-3.81c0,0-1.28,0.54-2.38,0.47
		C8.73,8.98,7.71,8.32,7.71,8.32l-1.08,3.74C6.63,12.06,7.51,12.89,8.82,12.89z"/>
	<path style="fill:#FFFFFF;" d="M10.18,8.06c1.31,0,2.2-0.51,2.2-0.51s0.79-2.84,1.04-3.81c0,0-1.28,0.51-2.38,0.47
		c-1.01-0.04-1.96-0.72-1.96-0.72L8,7.23C8,7.23,8.88,8.06,10.18,8.06z"/>
	<rect x="0" style="fill:none;" width="15" height="15"/>
	<rect x="1.73" y="1.73" style="fill:none;" width="11.54" height="11.54"/>
</g>
</svg>
