<?xml version="1.0" encoding="iso-8859-1"?>
<!-- Generator: Adobe Illustrator 13.0.2, SVG Export Plug-In . SVG Version: 6.00 Build 14948)  -->
<!DOCTYPE svg PUBLIC "-//W3C//DTD SVG 1.1//EN" "http://www.w3.org/Graphics/SVG/1.1/DTD/svg11.dtd">
<svg version="1.1" id="Ebene_1" xmlns="http://www.w3.org/2000/svg" xmlns:xlink="http://www.w3.org/1999/xlink" x="0px" y="0px"
	 width="15px" height="15px" viewBox="0 0 15 15" enable-background="new 0 0 15 15" xml:space="preserve">
<g>
	<polygon fill="#FFFFFF" points="11.64,11.63 13.07,11.83 13.23,10.41 11.79,10.22 	"/>
	<polygon fill="#FFFFFF" points="13.12,9.47 14.5,3.34 12.06,3 12.07,9.33 	"/>
	<path fill="#FFFFFF" d="M5.77,3.2c-3.1,0-5.27,1.81-5.27,4.4c0,2.59,2.17,4.4,5.27,4.4c3.1,0,5.27-1.81,5.27-4.4
		C11.04,5.01,8.87,3.2,5.77,3.2z M8.85,6.51C8.73,6.52,8.26,6.64,8.1,6.68C7.93,6.73,6.37,8.07,6.26,8.41
		C6.24,8.52,6.23,8.7,6.23,8.86L6.22,9.13c0,0.19,0.05,0.49,0.07,0.66c0.1,0.02,0.85,0,0.98,0.03l-0.02,0.34
		c-0.13-0.01-1.08-0.01-1.61-0.01c-0.27,0-1.15,0.04-1.42,0.02l0.05-0.32c0.15-0.01,0.76,0.03,0.9-0.13
		C5.23,9.64,5.21,9.56,5.21,9.1V8.88c0-0.1,0-0.29-0.02-0.47C5.13,8.22,3.75,6.31,3.4,6.01C3.3,5.97,2.65,5.9,2.5,5.86L2.49,5.57
		c0.08-0.04,0.79,0.01,1.49-0.02c0.46-0.02,1.49,0,1.62,0.02L5.56,5.82C5.43,5.86,4.77,5.88,4.6,5.93c0.44,0.74,1.15,1.68,1.37,2.05
		C6.1,7.77,7.2,6.93,7.24,6.64C7.07,6.6,6.5,6.51,6.41,6.51L6.35,6.18c0.16-0.03,0.97,0,1.38,0c0.35,0,1.1,0,1.31,0.02L8.85,6.51z"
		/>
</g>
</svg>
