<?xml version="1.0" encoding="utf-8"?>
<!-- Generator: Adobe Illustrator 14.0.0, SVG Export Plug-In . SVG Version: 6.00 Build 43363)  -->
<!DOCTYPE svg PUBLIC "-//W3C//DTD SVG 1.1//EN" "http://www.w3.org/Graphics/SVG/1.1/DTD/svg11.dtd">
<svg version="1.1" id="Layer_1" xmlns="http://www.w3.org/2000/svg" xmlns:xlink="http://www.w3.org/1999/xlink" x="0px" y="0px"
	 width="50px" height="50px" viewBox="-135 215 50 50" enable-background="new -135 215 50 50" xml:space="preserve">
<g>
	<g>
		
			<image overflow="visible" enable-background="new    " width="64" height="64" xlink:href="8704CA3E.png"  transform="matrix(0.7812 0 0 0.7812 -135 215)">
		</image>
	</g>
	<path fill="#A81516" d="M-135,254.189v5.405c0,2.985,2.419,5.405,5.405,5.405h39.189c2.985,0,5.405-2.42,5.405-5.405v-5.405H-135z"
		/>
	<path fill="#FFFFFF" d="M-113.277,232.993c2.365,0,4.284-2.196,4.284-4.554c0-2.358-1.919-4.271-4.284-4.271
		s-4.284,1.913-4.284,4.271C-117.561,230.804-115.642,232.993-113.277,232.993z M-113.277,234.276
		c-3.723,0-6.737,4.562-6.737,10.183s13.472,5.621,13.472,0C-106.541,238.838-109.555,234.276-113.277,234.276z M-107.798,231.493
		c0.392,0.135,0.818,0.21,1.256,0.21c2.157,0,3.899-2.049,3.899-4.216c0-2.169-1.742-3.926-3.899-3.926
		c-0.844,0-1.628,0.276-2.27,0.736c1.021,1.103,1.655,2.574,1.655,4.189C-107.156,229.466-107.385,230.676-107.798,231.493z
		 M-106.541,232.886c-1.006,0-1.951,0.377-2.797,1.04c2.764,1.994,4.628,6.007,4.628,10.777c0,0.446-0.053,0.879-0.161,1.291
		c2.412-0.393,4.445-1.637,4.445-3.744C-100.413,237.074-103.155,232.886-106.541,232.886z"/>
</g>
</svg>
