<?xml version="1.0" encoding="iso-8859-1"?>
<!-- Generator: Adobe Illustrator 13.0.2, SVG Export Plug-In . SVG Version: 6.00 Build 14948)  -->
<!DOCTYPE svg PUBLIC "-//W3C//DTD SVG 1.1//EN" "http://www.w3.org/Graphics/SVG/1.1/DTD/svg11.dtd">
<svg version="1.1" id="Ebene_1" xmlns="http://www.w3.org/2000/svg" xmlns:xlink="http://www.w3.org/1999/xlink" x="0px" y="0px"
	 width="28px" height="28px" viewBox="0 0 28 28" enable-background="new 0 0 28 28" xml:space="preserve">
<g>
	<g>
		<path fill="#FFFFFF" d="M13.98,12.43c-2.75,0-4.98,3.35-4.98,7.47c0,4.12,9.96,4.12,9.96,0C18.96,15.78,16.74,12.43,13.98,12.43z"
			/>
		<g>
			<path fill="#FFFFFF" d="M15.88,7.06c-2.06,0.22-4.13-0.72-5.38,1.31c-1.81-2.29,2.92-6.33,5.78-3.28
				C20.9,6.3,18.87,6.74,15.88,7.06z"/>
		</g>
		<g>
			<path fill="#FFFFFF" d="M10.84,8.98c0.29,1.44,1.57,2.55,3.11,2.55c1.75,0,3.17-1.44,3.17-3.18c0-0.12-0.02-0.24-0.04-0.36
				c-0.38,0.05-0.79,0.11-1.23,0.15C13.99,8.35,12.11,7.61,10.84,8.98z"/>
		</g>
	</g>
</g>
</svg>
