<?xml version="1.0" encoding="iso-8859-1"?>
<!-- Generator: Adobe Illustrator 13.0.2, SVG Export Plug-In . SVG Version: 6.00 Build 14948)  -->
<!DOCTYPE svg PUBLIC "-//W3C//DTD SVG 1.1//EN" "http://www.w3.org/Graphics/SVG/1.1/DTD/svg11.dtd">
<svg version="1.1" id="Ebene_1" xmlns="http://www.w3.org/2000/svg" xmlns:xlink="http://www.w3.org/1999/xlink" x="0px" y="0px"
	 width="28px" height="28px" viewBox="0 0 28 28" enable-background="new 0 0 28 28" xml:space="preserve">
<path fill="#333333" d="M20.72,6.79C18.93,4.99,16.54,4,14,4c-5.24,0-9.5,4.26-9.5,9.5c0,5.24,4.26,9.5,9.5,9.5s9.5-4.26,9.5-9.5
	C23.5,10.97,22.51,8.58,20.72,6.79z M19.19,13.79c0,0.8-0.19,1.59-0.55,2.29c-0.24,0.46-0.54,0.89-0.91,1.26
	c-0.13,0.13-0.27,0.26-0.43,0.38c-0.53,0.43-1.14,0.73-1.79,0.91c-0.45,0.13-0.93,0.18-1.41,0.18c-0.18,0-0.36-0.01-0.53-0.04
	c-0.27-0.03-0.55-0.08-0.81-0.16c-0.87-0.25-1.66-0.72-2.32-1.39c-0.26-0.26-0.49-0.55-0.69-0.87c-0.31-0.46-0.53-0.99-0.69-1.52
	c-0.01-0.04-0.02-0.08-0.03-0.12c-0.07-0.3-0.13-0.62-0.16-0.94c-0.03-0.32-0.05-0.65-0.03-0.98v-0.09c0.02-0.46,0.09-0.92,0.2-1.34
	c0.43-1.74,1.45-3.22,2.65-4.24c0.81-0.69,1.71-1.18,2.58-1.52c0.27-0.11,0.52-0.19,0.78-0.26c0.15-0.05,0.32-0.09,0.46-0.15
	c0.43-0.11,0.83-0.18,1.19-0.21c0.31-0.03,0.6-0.03,0.82-0.03c0.25,0.01,0.46,0.07,0.08,0.21c-1.51,0.53-2.58,1.97-2.58,3.64v0.12
	C15.79,9.08,16.45,9.36,17,9.7c0.53,0.33,0.96,0.73,1.31,1.21c0.04,0.04,0.06,0.07,0.08,0.11c0.25,0.37,0.44,0.77,0.57,1.21
	c0.14,0.43,0.2,0.88,0.23,1.37V13.79z"/>
</svg>
