<?xml version="1.0" encoding="iso-8859-1"?>
<!-- Generator: Adobe Illustrator 13.0.2, SVG Export Plug-In . SVG Version: 6.00 Build 14948)  -->
<!DOCTYPE svg PUBLIC "-//W3C//DTD SVG 1.1//EN" "http://www.w3.org/Graphics/SVG/1.1/DTD/svg11.dtd">
<svg version="1.1" id="Ebene_1" xmlns="http://www.w3.org/2000/svg" xmlns:xlink="http://www.w3.org/1999/xlink" x="0px" y="0px"
	 width="28px" height="28px" viewBox="0 0 28 28" enable-background="new 0 0 28 28" xml:space="preserve">
<path fill="#333333" d="M9.06,4.02C7.87,4.16,6.98,5.17,7,6.36v9.38v0.02v0.04c0.05,1.82,0.7,3.56,1.89,4.93
	c1.2,1.38,3.06,2.34,5.14,2.26h4.62c0.84,0.01,1.62-0.44,2.04-1.16c0.42-0.73,0.42-1.6,0-2.32c-0.42-0.73-1.19-1.18-2.04-1.16h-4.7
	h-0.04h-0.04c-0.65,0.02-1.04-0.2-1.46-0.67c-0.42-0.47-0.73-1.24-0.75-2.02v-1.96h6.98c0.84,0.01,1.62-0.44,2.04-1.15
	c0.42-0.73,0.42-1.6,0-2.33c-0.42-0.71-1.19-1.16-2.04-1.15h-6.98V6.36c0.01-0.67-0.28-1.31-0.77-1.76
	C10.39,4.16,9.73,3.94,9.06,4.02"/>
</svg>
