<?xml version="1.0" encoding="iso-8859-1"?>
<!-- Generator: Adobe Illustrator 13.0.2, SVG Export Plug-In . SVG Version: 6.00 Build 14948)  -->
<!DOCTYPE svg PUBLIC "-//W3C//DTD SVG 1.1//EN" "http://www.w3.org/Graphics/SVG/1.1/DTD/svg11.dtd">
<svg version="1.1" id="Ebene_1" xmlns="http://www.w3.org/2000/svg" xmlns:xlink="http://www.w3.org/1999/xlink" x="0px" y="0px"
	 width="28px" height="28px" viewBox="0 0 28 28" enable-background="new 0 0 28 28" xml:space="preserve">
<g>
	<path fill="#FFFFFF" d="M9.67,10.71c1.34,0,2.42-1.05,2.42-2.35C12.1,7.05,11.01,6,9.67,6C8.33,6,7.25,7.05,7.25,8.35
		C7.25,9.65,8.33,10.71,9.67,10.71z M9.67,11.41c-2.11,0-3.81,2.52-3.81,5.62c0,3.1,7.63,3.1,7.63,0
		C13.49,13.93,11.78,11.41,9.67,11.41z"/>
	<path fill="#FFFFFF" d="M25.4,16.5c-0.61-0.25-1.38-0.47-2.29-0.67c0.04,0.34,0.07,0.69,0.07,1.05c0.33,0.11,0.64,0.22,0.92,0.34
		c0,0,0.01,0,0.02,0.01c1.25,0.5,1.11,1.41,0.03,1.77c-1.98,0.83-5.26,1.34-10.17,1.32c-4.88-0.01-8.27-0.64-10.27-1.47
		c-1.08-0.42-0.97-1.41-0.03-1.76c0.34-0.14,0.72-0.28,1.14-0.41c0.01-0.3,0.04-0.6,0.08-0.9c-0.93,0.2-1.73,0.42-2.35,0.67
		c-0.72,0.31-1.25,0.64-1.48,1.13C1.03,17.7,1,17.83,1,17.96c0.04,0.72,0.69,1.15,1.6,1.53c2.19,0.9,6.45,1.49,11.4,1.51
		c3.31,0.02,6.33-0.25,8.62-0.68c1.14-0.22,2.1-0.48,2.83-0.78c0.73-0.31,1.25-0.63,1.48-1.12C26.97,18.3,27,18.17,27,18.03v0
		C26.97,17.31,26.31,16.89,25.4,16.5z"/>
	<path fill="#FFFFFF" d="M18.34,10.71c1.34,0,2.43-1.05,2.43-2.35c0-1.3-1.09-2.35-2.43-2.35C17,6,15.92,7.05,15.92,8.35
		C15.92,9.65,17,10.71,18.34,10.71z M18.34,11.41c-2.11,0-3.81,2.52-3.81,5.62c0,3.1,7.62,3.1,7.62,0
		C22.16,13.93,20.45,11.41,18.34,11.41z"/>
</g>
</svg>
