<?xml version="1.0" encoding="iso-8859-1"?>
<!-- Generator: Adobe Illustrator 13.0.2, SVG Export Plug-In . SVG Version: 6.00 Build 14948)  -->
<!DOCTYPE svg PUBLIC "-//W3C//DTD SVG 1.1//EN" "http://www.w3.org/Graphics/SVG/1.1/DTD/svg11.dtd">
<svg version="1.1" id="Ebene_1" xmlns="http://www.w3.org/2000/svg" xmlns:xlink="http://www.w3.org/1999/xlink" x="0px" y="0px"
	 width="28px" height="28px" viewBox="0 0 28 28" enable-background="new 0 0 28 28" xml:space="preserve">
<g>
	<g>
		<path fill="#FFFFFF" d="M21.49,23H7.51C6.12,23,5,21.88,5,20.49V6.51C5,5.12,6.12,4,7.51,4h13.99C22.88,4,24,5.12,24,6.51v13.99
			C24,21.88,22.88,23,21.49,23L21.49,23z"/>
	</g>
	<path fill="#666666" d="M17,6.51c0.46,0.39,1.44,1.2,1.44,2.74c0,1.5-0.85,2.21-1.7,2.88c-0.27,0.26-0.57,0.54-0.57,0.99
		s0.3,0.69,0.52,0.87l0.73,0.57c0.89,0.75,1.7,1.44,1.7,2.84c0,1.9-1.85,3.83-5.33,3.83c-2.94,0-4.36-1.4-4.36-2.9
		c0-0.72,0.37-1.76,1.56-2.47c1.25-0.77,2.96-0.87,3.87-0.93c-0.29-0.36-0.61-0.75-0.61-1.38c0-0.35,0.1-0.54,0.2-0.79
		c-0.22,0.02-0.44,0.04-0.65,0.04c-2.15,0-3.36-1.6-3.36-3.19c0-0.93,0.42-1.96,1.3-2.71c1.16-0.95,2.53-1.11,3.62-1.11h4.17
		l-1.29,0.73H17z M15.56,15.5c-0.17-0.02-0.27-0.02-0.46-0.02c-0.18,0-1.28,0.04-2.13,0.32c-0.45,0.16-1.74,0.65-1.74,2.09
		c0,1.44,1.4,2.47,3.56,2.47c1.95,0,2.98-0.93,2.98-2.19C17.77,17.15,17.1,16.6,15.56,15.5z M16.15,11.66
		c0.47-0.47,0.5-1.11,0.5-1.48c0-1.46-0.87-3.73-2.55-3.73c-0.53,0-1.1,0.26-1.42,0.67c-0.35,0.43-0.45,0.97-0.45,1.5
		c0,1.36,0.79,3.61,2.53,3.61C15.28,12.22,15.82,11.98,16.15,11.66z"/>
</g>
</svg>
