<?xml version="1.0" encoding="iso-8859-1"?>
<!-- Generator: Adobe Illustrator 13.0.2, SVG Export Plug-In . SVG Version: 6.00 Build 14948)  -->
<!DOCTYPE svg PUBLIC "-//W3C//DTD SVG 1.1//EN" "http://www.w3.org/Graphics/SVG/1.1/DTD/svg11.dtd">
<svg version="1.1" id="Ebene_1" xmlns="http://www.w3.org/2000/svg" xmlns:xlink="http://www.w3.org/1999/xlink" x="0px" y="0px"
	 width="28px" height="28px" viewBox="0 0 28 28" enable-background="new 0 0 28 28" xml:space="preserve">
<g>
	<path fill="#FFFFFF" d="M14,10.74c1.76,0,3.18-1.54,3.18-3.4C17.18,5.5,15.76,4,14,4c-1.76,0-3.18,1.5-3.18,3.35
		C10.82,9.2,12.24,10.74,14,10.74z"/>
	<path fill="#FFFFFF" d="M14.72,11.8c0.11,0.11,0.18,0.24,0.18,0.38c0,0.36-0.39,0.65-0.86,0.65c-0.48,0-0.87-0.29-0.87-0.65
		c0-0.15,0.08-0.29,0.2-0.4C10.9,12.28,9,15.63,9,19.69c0,2.2,2.48,3.3,4.97,3.31h0.05c2.49-0.01,4.98-1.11,4.98-3.31
		C19,15.67,17.14,12.35,14.72,11.8z M14,19.7c-0.46,0-1.29-0.36-1.29-1.07c0-0.58,0.37-3.7,0.44-4.13c0.09-0.63,0.32-1.04,0.85-1.04
		c0.55,0,0.77,0.43,0.86,1.1c0.06,0.42,0.34,3.52,0.34,4.08C15.2,19.34,14.46,19.7,14,19.7z"/>
</g>
</svg>
