<?xml version="1.0" encoding="iso-8859-1"?>
<!-- Generator: Adobe Illustrator 13.0.2, SVG Export Plug-In . SVG Version: 6.00 Build 14948)  -->
<!DOCTYPE svg PUBLIC "-//W3C//DTD SVG 1.1//EN" "http://www.w3.org/Graphics/SVG/1.1/DTD/svg11.dtd">
<svg version="1.1" id="Ebene_1" xmlns="http://www.w3.org/2000/svg" xmlns:xlink="http://www.w3.org/1999/xlink" x="0px" y="0px"
	 width="28px" height="28px" viewBox="0 0 28 28" enable-background="new 0 0 28 28" xml:space="preserve">
<g>
	<path fill="#FFFFFF" d="M11.69,4C9.36,4,7.77,4.9,7.77,4.9s-1.45,4.92-1.84,6.71c0,0,2.27-0.98,4.23-0.83
		c1.69,0.13,2.97,1.15,2.97,1.15l1.92-6.58C15.05,5.36,14.01,4,11.69,4z"/>
	<path fill="#FFFFFF" d="M9.25,12.51c-2.33,0-3.91,0.9-3.91,0.9s-1.41,4.93-1.85,6.71c0,0,2.27-0.97,4.23-0.82
		c1.72,0.13,2.97,1.15,2.97,1.15l1.92-6.58C12.62,13.86,11.58,12.51,9.25,12.51z"/>
	<path fill="#FFFFFF" d="M16.32,23c2.33,0,3.91-0.9,3.91-0.9s1.41-4.98,1.84-6.71c0,0-2.27,0.94-4.23,0.83
		c-1.67-0.1-3.49-1.27-3.49-1.27l-1.92,6.58C12.43,21.53,13.99,23,16.32,23z"/>
	<path fill="#FFFFFF" d="M18.75,14.5c2.32,0,3.91-0.9,3.91-0.9s1.41-4.99,1.84-6.71c0,0-2.27,0.9-4.23,0.82
		c-1.79-0.07-3.49-1.27-3.49-1.27l-1.92,6.58C14.86,13.03,16.43,14.5,18.75,14.5z"/>
</g>
</svg>
