<?xml version="1.0" encoding="iso-8859-1"?>
<!-- Generator: Adobe Illustrator 13.0.2, SVG Export Plug-In . SVG Version: 6.00 Build 14948)  -->
<!DOCTYPE svg PUBLIC "-//W3C//DTD SVG 1.1//EN" "http://www.w3.org/Graphics/SVG/1.1/DTD/svg11.dtd">
<svg version="1.1" id="Ebene_1" xmlns="http://www.w3.org/2000/svg" xmlns:xlink="http://www.w3.org/1999/xlink" x="0px" y="0px"
	 width="28px" height="28px" viewBox="0 0 28 28" enable-background="new 0 0 28 28" xml:space="preserve">
<g>
	<path fill="#333333" d="M10.28,10.21c1.68,0,3.04-1.39,3.04-3.11c0-1.72-1.36-3.11-3.04-3.11C8.61,4,7.24,5.39,7.24,7.1
		C7.24,8.82,8.61,10.21,10.28,10.21z"/>
	<path fill="#333333" d="M13.78,13.52c-0.87-1.46-2.11-2.38-3.5-2.38c-2.64,0-4.78,3.32-4.78,7.41c0,2.71,4.18,3.63,7.02,2.75
		c-0.53-0.92-0.84-1.98-0.84-3.12C11.67,16.32,12.49,14.65,13.78,13.52z"/>
	<ellipse fill="#333333" cx="17.77" cy="18.17" rx="2.71" ry="2.75"/>
	<path fill="#333333" d="M17.76,13.38c-2.62,0-4.74,2.15-4.74,4.81c0,2.66,2.12,4.81,4.74,4.81c2.62,0,4.74-2.15,4.74-4.81
		C22.5,15.54,20.38,13.38,17.76,13.38z M17.76,22.31c-2.24,0-4.06-1.84-4.06-4.12c0-2.28,1.82-4.12,4.06-4.12
		c2.24,0,4.06,1.85,4.06,4.12C21.82,20.47,20,22.31,17.76,22.31z"/>
</g>
</svg>
