<?xml version="1.0" encoding="iso-8859-1"?>
<!-- Generator: Adobe Illustrator 13.0.2, SVG Export Plug-In . SVG Version: 6.00 Build 14948)  -->
<!DOCTYPE svg PUBLIC "-//W3C//DTD SVG 1.1//EN" "http://www.w3.org/Graphics/SVG/1.1/DTD/svg11.dtd">
<svg version="1.1" id="Ebene_1" xmlns="http://www.w3.org/2000/svg" xmlns:xlink="http://www.w3.org/1999/xlink" x="0px" y="0px"
	 width="28px" height="28px" viewBox="0 0 28 28" enable-background="new 0 0 28 28" xml:space="preserve">
<g>
	<g>
		<path fill="#FFFFFF" d="M19.6,16.22c-0.3,0-0.59,0.05-0.87,0.13l-3.12-6.32c0.78-0.62,1.28-1.56,1.28-2.63
			C16.89,5.52,15.37,4,13.5,4c-1.88,0-3.4,1.52-3.4,3.39c0,1.08,0.52,2.03,1.3,2.66l-3.1,6.3c-0.3-0.08-0.59-0.13-0.91-0.13
			C5.52,16.22,4,17.73,4,19.61C4,21.48,5.52,23,7.39,23c1.78,0,3.21-1.37,3.36-3.11h5.49C16.39,21.63,17.82,23,19.6,23
			c1.87,0,3.4-1.52,3.4-3.39C23,17.73,21.48,16.22,19.6,16.22z M16.75,17.82h-6.5c-0.07-0.1-0.13-0.21-0.2-0.3l3.32-6.74
			c0.04,0,0.09,0.01,0.13,0.01c0.05,0,0.11-0.01,0.17-0.01l3.3,6.72C16.89,17.59,16.82,17.71,16.75,17.82z"/>
	</g>
</g>
</svg>
