<?xml version="1.0" encoding="iso-8859-1"?>
<!-- Generator: Adobe Illustrator 13.0.2, SVG Export Plug-In . SVG Version: 6.00 Build 14948)  -->
<!DOCTYPE svg PUBLIC "-//W3C//DTD SVG 1.1//EN" "http://www.w3.org/Graphics/SVG/1.1/DTD/svg11.dtd">
<svg version="1.1" id="Ebene_1" xmlns="http://www.w3.org/2000/svg" xmlns:xlink="http://www.w3.org/1999/xlink" x="0px" y="0px"
	 width="28px" height="28px" viewBox="0 0 28 28" enable-background="new 0 0 28 28" xml:space="preserve">
<g>
	<path fill="#FFFFFF" d="M21.49,4H7.51C6.12,4,5,5.12,5,6.51v13.99C5,21.88,6.12,23,7.51,23h13.99c1.38,0,2.51-1.12,2.51-2.51V6.51
		C24,5.12,22.88,4,21.49,4z M19.82,18.2l-0.9,0.34c-0.24,0.08-0.56,0.17-0.96,0.25c-0.35,0.05-0.58,0.1-0.69,0.1
		c-0.27,0-0.51-0.11-0.75-0.33c-0.25-0.24-0.39-0.43-0.39-0.58c-0.01-0.14,0.15-0.29,0.46-0.4l0.19-0.06
		c0.22-0.04,0.34-0.07,0.39-0.1c0.04-0.02,0.06-0.12,0.08-0.29c0.01-0.01,0-0.14-0.04-0.37c-0.03-0.1-0.05-0.24-0.05-0.39
		c-0.01-0.19-0.03-0.31-0.03-0.41l-0.05-0.9c0.01-0.02-0.01-0.04-0.07-0.07l-0.83,0.03c-0.26,0.04-0.48,0.07-0.64,0.1l-0.9,0.18
		c-0.14,0.01-0.32,0.05-0.57,0.12l-0.83,0.25c-0.39,0.15-0.63,0.25-0.7,0.32c-0.09,0.07-0.14,0.23-0.14,0.48l0.02,0.5
		c0,0.24,0,0.46,0.02,0.62c0.01,0.27,0.04,0.42,0.09,0.45c0.03,0.05,0.12,0.08,0.27,0.1h0.28c0.07,0,0.13,0.01,0.17,0.03
		c0.06,0.02,0.17,0.09,0.34,0.23c0.17,0.14,0.25,0.27,0.26,0.43c0,0.21-0.13,0.38-0.37,0.5c-0.26,0.13-0.45,0.22-0.55,0.25
		c-0.09,0.03-0.25,0.08-0.43,0.12l-0.93,0.15c-0.08,0.02-0.23,0.04-0.47,0.07c-0.26,0.02-0.48-0.05-0.66-0.17l-0.14-0.11
		c-0.21-0.19-0.32-0.34-0.33-0.49c0-0.21,0.21-0.39,0.64-0.55l0.32-0.12c0.05-0.02,0.08-0.1,0.05-0.28
		c-0.04-0.26-0.09-0.51-0.11-0.75l-0.07-0.69c-0.04-0.21-0.04-0.53-0.06-0.99l-0.2-2.49l-0.08-1.97c0-0.21-0.01-0.35-0.04-0.4
		c-0.01-0.08-0.03-0.13-0.04-0.15l-0.08-0.04c-0.23-0.01-0.48-0.07-0.75-0.18L9.38,10.4C9.13,10.14,9.04,9.91,9.1,9.72
		c0.04-0.1,0.11-0.2,0.24-0.28C9.53,9.33,9.74,9.25,10,9.18l1.25-0.29c0.37-0.09,0.71-0.15,0.99-0.18c0.24,0,0.48,0.08,0.74,0.25
		c0.24,0.18,0.36,0.4,0.37,0.66c0,0.19-0.05,0.32-0.14,0.36l-0.25,0.13c-0.08,0.03-0.14,0.04-0.16,0.05l-0.5,0.19
		c-0.06,0-0.09,0.09-0.09,0.29l0.05,3.1l0.04,0.28c0.02,0.24,0.09,0.34,0.21,0.32c0.11,0,0.43-0.06,0.99-0.2
		c0.5-0.14,1.11-0.26,1.82-0.4l1.38-0.17c0.15-0.01,0.26-0.05,0.31-0.11c0.06-0.07,0.08-0.19,0.08-0.38l-0.04-0.86
		c-0.01-0.31-0.01-0.55-0.03-0.74C17,11.35,17,11.14,17,10.8c-0.01-0.43-0.01-0.67-0.02-0.71c-0.01-0.2-0.07-0.33-0.16-0.37
		l-0.37-0.05c-0.08-0.01-0.15-0.03-0.23-0.06c-0.05-0.02-0.19-0.1-0.4-0.26c-0.18-0.13-0.28-0.32-0.3-0.56
		c-0.01-0.16,0.02-0.27,0.13-0.33l0.3-0.18c0.19-0.09,0.33-0.15,0.44-0.18l0.81-0.23l0.78-0.12c0.06-0.01,0.21-0.02,0.48-0.05
		c0.24-0.01,0.43,0.01,0.57,0.06c0.12,0.05,0.24,0.18,0.34,0.44c0.11,0.25,0.17,0.42,0.17,0.51c0.01,0.08-0.01,0.14-0.06,0.17
		l-0.64,0.34l-0.15,0.11c-0.08,0.13-0.13,0.25-0.16,0.4c0,0.15,0,0.55,0.03,1.17l0.24,6.02c0.04,0.13,0.13,0.19,0.3,0.19l0.25-0.04
		c0.09,0,0.2,0.07,0.34,0.21c0.14,0.13,0.24,0.29,0.29,0.5C20,17.94,19.95,18.09,19.82,18.2z"/>
</g>
</svg>
