<?xml version="1.0" encoding="iso-8859-1"?>
<!-- Generator: Adobe Illustrator 13.0.2, SVG Export Plug-In . SVG Version: 6.00 Build 14948)  -->
<!DOCTYPE svg PUBLIC "-//W3C//DTD SVG 1.1//EN" "http://www.w3.org/Graphics/SVG/1.1/DTD/svg11.dtd">
<svg version="1.1" id="Ebene_1" xmlns="http://www.w3.org/2000/svg" xmlns:xlink="http://www.w3.org/1999/xlink" x="0px" y="0px"
	 width="28px" height="28px" viewBox="0 0 28 28" enable-background="new 0 0 28 28" xml:space="preserve">
<g>
	<g>
		<path fill="#333333" d="M14.08,11.14c1.83,0,3.31-1.66,3.31-3.44c0-1.78-1.48-3.23-3.31-3.23c-1.82,0-3.3,1.44-3.3,3.23
			C10.78,9.48,12.26,11.14,14.08,11.14z"/>
	</g>
	<g>
		<path fill="#333333" d="M14.08,12.11c-2.87,0-5.19,3.45-5.19,7.7c0,4.25,10.39,4.25,10.39,0C19.28,15.56,16.96,12.11,14.08,12.11z
			"/>
	</g>
	<g>
		<path fill="#333333" d="M18.32,10c0.3,0.1,0.63,0.16,0.96,0.16c1.66,0,3.01-1.55,3.01-3.19c0-1.63-1.35-2.97-3.01-2.97
			c-0.65,0-1.25,0.21-1.75,0.56c0.79,0.83,1.27,1.95,1.27,3.17C18.81,8.47,18.62,9.38,18.32,10z"/>
	</g>
	<g>
		<path fill="#333333" d="M19.28,11.05c-0.77,0-1.51,0.29-2.15,0.79c2.13,1.51,3.57,4.55,3.57,8.15c0,0.34-0.04,0.67-0.12,0.98
			c1.86-0.3,3.42-1.24,3.42-2.83C24,14.22,21.89,11.05,19.28,11.05z"/>
	</g>
	<g>
		<path fill="#333333" d="M8.72,10.16c0.33,0,0.66-0.06,0.96-0.16c-0.3-0.62-0.49-1.53-0.49-2.27c0-1.22,0.49-2.34,1.28-3.17
			C9.98,4.21,9.38,4,8.72,4C7.07,4,5.72,5.33,5.72,6.97C5.72,8.61,7.07,10.16,8.72,10.16z"/>
	</g>
	<g>
		<path fill="#333333" d="M10.88,11.84c-0.65-0.5-1.39-0.79-2.16-0.79C6.11,11.05,4,14.22,4,18.14c0,1.6,1.57,2.54,3.43,2.83
			c-0.08-0.32-0.12-0.64-0.12-0.98C7.3,16.39,8.75,13.34,10.88,11.84z"/>
	</g>
</g>
</svg>
