<?xml version="1.0" encoding="iso-8859-1"?>
<!-- Generator: Adobe Illustrator 13.0.2, SVG Export Plug-In . SVG Version: 6.00 Build 14948)  -->
<!DOCTYPE svg PUBLIC "-//W3C//DTD SVG 1.1//EN" "http://www.w3.org/Graphics/SVG/1.1/DTD/svg11.dtd">
<svg version="1.1" id="Ebene_1" xmlns="http://www.w3.org/2000/svg" xmlns:xlink="http://www.w3.org/1999/xlink" x="0px" y="0px"
	 width="28px" height="28px" viewBox="0 0 28 28" enable-background="new 0 0 28 28" xml:space="preserve">
<g>
	<g>
		<path fill="#333333" d="M15.22,7.51c1.56,0,2.88,1.02,3.38,2.42c1.47-0.3,2.58-1.63,2.58-3.2c0-1.78-1.43-3.23-3.2-3.23
			c-1.77,0-3.2,1.45-3.2,3.23c0,0.28,0.05,0.55,0.12,0.81C15,7.53,15.11,7.51,15.22,7.51z"/>
	</g>
	<g>
		<path fill="#333333" d="M18.81,11.06c0,0.02,0.01,0.05,0.01,0.07c0,0.92-0.34,1.8-0.96,2.48l-0.27,0.3l0.3,0.27
			c1.44,1.27,2.3,3.49,2.3,5.93c0,0.28-0.04,0.55-0.11,0.8c-0.04,0.26-0.11,0.51-0.22,0.73c1.75-0.41,3.14-1.4,3.14-2.98
			C23,14.83,21.19,11.67,18.81,11.06z"/>
	</g>
	<g>
		<path fill="#333333" d="M10.25,20.1c0-2.44,0.86-4.66,2.3-5.93l0.3-0.27l-0.27-0.3c-0.3-0.33-0.53-0.7-0.69-1.11
			c-0.62-0.44-1.31-0.7-2.03-0.7C7.17,11.79,5,15.13,5,19.24c0,2.38,3.25,3.38,5.99,3c-0.35-0.39-0.59-0.85-0.65-1.39
			C10.28,20.61,10.25,20.36,10.25,20.1z"/>
	</g>
	<g>
		<path fill="#333333" d="M12.85,8.42c0.05-0.22,0.09-0.45,0.09-0.69c0-1.72-1.38-3.12-3.09-3.12c-1.71,0-3.09,1.4-3.09,3.12
			c0,1.73,1.38,3.17,3.09,3.17c0.72,0,1.38-0.28,1.91-0.71C11.95,9.49,12.33,8.89,12.85,8.42z"/>
	</g>
	<g>
		<g>
			<path fill="#333333" d="M15.22,13.59c1.33,0,2.41-1.12,2.41-2.47c0-1.34-1.08-2.43-2.41-2.43c-1.33,0-2.41,1.09-2.41,2.43
				C12.81,12.47,13.89,13.59,15.22,13.59z M15.22,14.29c-2.09,0-3.78,2.6-3.78,5.81c0,3.21,7.56,3.21,7.56,0
				C19,16.89,17.31,14.29,15.22,14.29z"/>
		</g>
	</g>
</g>
</svg>
