<?xml version="1.0" encoding="iso-8859-1"?>
<!-- Generator: Adobe Illustrator 13.0.2, SVG Export Plug-In . SVG Version: 6.00 Build 14948)  -->
<!DOCTYPE svg PUBLIC "-//W3C//DTD SVG 1.1//EN" "http://www.w3.org/Graphics/SVG/1.1/DTD/svg11.dtd">
<svg version="1.1" id="Ebene_1" xmlns="http://www.w3.org/2000/svg" xmlns:xlink="http://www.w3.org/1999/xlink" x="0px" y="0px"
	 width="28px" height="28px" viewBox="0 0 28 28" enable-background="new 0 0 28 28" xml:space="preserve">
<path fill="#333333" d="M22.41,4H5.59C4.99,4,4.5,4.49,4.5,5.09v16.83c0,0.6,0.49,1.08,1.09,1.08h16.83c0.6,0,1.09-0.49,1.09-1.08
	V5.09C23.5,4.49,23.01,4,22.41,4z M20.63,14.86H18.1v6.79h-2.74v-6.79h-1.85v-2.71h1.85c0,0,0-1.03,0-2.15
	c0-1.69,1.09-3.24,3.6-3.24c1.02,0,1.77,0.1,1.77,0.1L20.67,9.2c0,0-0.77-0.01-1.6-0.01c-0.91,0-1.05,0.42-0.97,1.11v1.84h2.64
	L20.63,14.86z"/>
</svg>
