<?xml version="1.0" encoding="iso-8859-1"?>
<!-- Generator: Adobe Illustrator 13.0.2, SVG Export Plug-In . SVG Version: 6.00 Build 14948)  -->
<!DOCTYPE svg PUBLIC "-//W3C//DTD SVG 1.1//EN" "http://www.w3.org/Graphics/SVG/1.1/DTD/svg11.dtd">
<svg version="1.1" id="Ebene_1" xmlns="http://www.w3.org/2000/svg" xmlns:xlink="http://www.w3.org/1999/xlink" x="0px" y="0px"
	 width="28px" height="28px" viewBox="0 0 28 28" enable-background="new 0 0 28 28" xml:space="preserve">
<g>
	<path fill="#FFFFFF" d="M16.82,10.84c-0.77,0-1.49,0.29-2.14,0.78c2.11,1.51,3.54,4.54,3.54,8.15c0,0.34-0.04,0.66-0.12,0.98
		c1.85-0.29,3.4-1.24,3.4-2.83C21.5,14.01,19.41,10.84,16.82,10.84z M15.85,9.78c0.3,0.1,0.62,0.16,0.97,0.16
		c1.64,0,2.99-1.32,2.99-2.97C19.8,5.33,18.47,4,16.82,4c-0.65,0-1.25,0.21-1.74,0.56c0.78,0.83,1.27,1.95,1.27,3.17
		C16.34,8.48,16.17,9.17,15.85,9.78z M11.66,11.98c-2.84,0-5.16,3.5-5.16,7.79c0,4.3,10.31,4.31,10.31,0
		C16.81,15.47,14.5,11.98,11.66,11.98z M11.66,11.01c1.81,0,3.28-1.46,3.28-3.26c0-1.81-1.47-3.26-3.28-3.26S8.38,5.94,8.38,7.74
		C8.38,9.54,9.85,11.01,11.66,11.01z"/>
</g>
</svg>
