<?xml version="1.0" encoding="iso-8859-1"?>
<!-- Generator: Adobe Illustrator 13.0.2, SVG Export Plug-In . SVG Version: 6.00 Build 14948)  -->
<!DOCTYPE svg PUBLIC "-//W3C//DTD SVG 1.1//EN" "http://www.w3.org/Graphics/SVG/1.1/DTD/svg11.dtd">
<svg version="1.1" id="Ebene_1" xmlns="http://www.w3.org/2000/svg" xmlns:xlink="http://www.w3.org/1999/xlink" x="0px" y="0px"
	 width="28px" height="28px" viewBox="0 0 28 28" enable-background="new 0 0 28 28" xml:space="preserve">
<g>
	<path fill="#FFFFFF" d="M11.41,22C5.87,22,2,18.98,2,14.66c0-4.32,3.87-7.33,9.41-7.33c5.54,0,9.41,3.02,9.41,7.33
		C20.82,18.98,16.95,22,11.41,22z"/>
	<polygon fill="#FFFFFF" points="24.45,21.72 21.89,21.39 22.17,19.03 24.73,19.36 	"/>
	<polygon fill="#FFFFFF" points="22.65,7 22.66,17.54 24.54,17.78 27,7.57 	"/>
	<path fill="#666666" d="M16.9,12.85c-0.2,0.02-1.05,0.22-1.33,0.28c-0.31,0.09-3.09,2.32-3.28,2.88c-0.04,0.19-0.06,0.48-0.06,0.76
		l-0.02,0.44c0,0.32,0.09,0.83,0.13,1.11c0.18,0.04,1.51,0,1.75,0.05l-0.03,0.57c-0.24-0.02-1.92-0.01-2.88-0.01
		c-0.49,0-2.06,0.05-2.54,0.04l0.09-0.54c0.27-0.02,1.36,0.05,1.6-0.21c0.12-0.13,0.08-0.27,0.08-1.04v-0.36
		c0-0.17,0-0.49-0.04-0.79c-0.1-0.32-2.56-3.5-3.19-4.01c-0.18-0.06-1.33-0.18-1.62-0.24l-0.01-0.49c0.14-0.07,1.42,0.02,2.66-0.03
		c0.81-0.03,2.67,0,2.9,0.03l-0.06,0.43c-0.24,0.06-1.42,0.09-1.72,0.17c0.79,1.23,2.05,2.81,2.45,3.42
		c0.22-0.34,2.19-1.75,2.25-2.23c-0.31-0.07-1.32-0.22-1.48-0.22l-0.1-0.55c0.28-0.05,1.73,0,2.46,0c0.63,0,1.96,0,2.34,0.03
		L16.9,12.85z"/>
</g>
</svg>
