<?xml version="1.0" encoding="iso-8859-1"?>
<!-- Generator: Adobe Illustrator 14.0.0, SVG Export Plug-In . SVG Version: 6.00 Build 43363)  -->
<!DOCTYPE svg PUBLIC "-//W3C//DTD SVG 1.1//EN" "http://www.w3.org/Graphics/SVG/1.1/DTD/svg11.dtd">
<svg version="1.1" id="Ebene_1" xmlns="http://www.w3.org/2000/svg" xmlns:xlink="http://www.w3.org/1999/xlink" x="0px" y="0px"
	 width="28px" height="28px" viewBox="0 0 28 28" enable-background="new 0 0 28 28" xml:space="preserve">
<rect fill="none" width="28" height="28"/>
<path fill="#FFFFFF" d="M2.02,1.99v24H20v-24H2.02z M10.65,6.83c1.5,0,2.68,1.19,2.68,2.65s-1.19,2.66-2.68,2.66
	c-1.48,0-2.68-1.19-2.68-2.66C7.96,8.01,9.16,6.83,10.65,6.83z M6.82,18.79c0-3.26,1.74-5.9,3.9-5.9c2.16,0,3.9,2.64,3.9,5.9
	C14.61,22.05,6.82,22.05,6.82,18.79z"/>
<rect x="21" y="20.04" fill="#FFFFFF" width="4" height="6"/>
<rect x="21" y="11" fill="#FFFFFF" width="4" height="6"/>
<rect x="21" y="2" fill="#FFFFFF" width="4" height="6"/>
</svg>
