<?xml version="1.0" encoding="iso-8859-1"?>
<!-- Generator: Adobe Illustrator 13.0.0, SVG Export Plug-In . SVG Version: 6.00 Build 14948)  -->
<!DOCTYPE svg PUBLIC "-//W3C//DTD SVG 1.1//EN" "http://www.w3.org/Graphics/SVG/1.1/DTD/svg11.dtd">
<svg version="1.1" id="Ebene_1" xmlns="http://www.w3.org/2000/svg" xmlns:xlink="http://www.w3.org/1999/xlink" x="0px" y="0px"
	 width="30px" height="28px" viewBox="-3.5 -2.5 30 28" enable-background="new -3.5 -2.5 30 28" xml:space="preserve">
<path fill="#FFFFFF" d="M23.16,7.56c-0.77-1.36-1.87-2.45-3.26-3.24c-1.41-0.8-3.1-1.19-5.04-1.2c-0.02,0-0.05,0-0.07,0
	c-2.06,0-3.85,0.43-5.36,1.31C7.91,5.3,6.73,6.57,5.92,8.19C5.11,9.8,4.71,11.54,4.7,13.41h0c0,0.05,0,0.08,0,0.1
	c0,1.85,0.39,3.6,1.18,5.22c0.8,1.65,1.98,2.94,3.52,3.82c1.53,0.88,3.21,1.33,5.01,1.33c0.02,0,0.02,0,0.04,0h0.01
	c1.65,0,3.23-0.39,4.71-1.16l0.23-0.11l0.01-2.9l-0.65,0.42c-1.46,0.95-2.89,1.42-4.33,1.42c-0.02,0-0.03,0-0.03,0
	c-1.19-0.01-2.4-0.34-3.64-1.03c-1.21-0.67-2.09-1.65-2.67-3c-0.59-1.36-0.88-2.74-0.88-4.18c0,0,0-0.01,0-0.03
	c0.01-1.5,0.33-2.87,0.95-4.12c0.62-1.25,1.51-2.16,2.69-2.81c1.18-0.64,2.47-0.96,3.89-0.96c0.01,0,0.02,0,0.04,0
	c1.33,0.01,2.55,0.3,3.68,0.88c1.12,0.58,1.97,1.37,2.57,2.4c0.59,1.02,0.9,2.18,0.9,3.53c0,0.03,0,0.04,0,0.04
	c-0.01,1.2-0.27,2.09-0.75,2.72c-0.5,0.66-1,0.92-1.55,0.92H19.6c-0.37-0.01-0.61-0.12-0.86-0.42c-0.2-0.22-0.38-0.89-0.37-1.95
	c0-0.01,0-0.02,0-0.02l0.03-5.69l-2.79-0.01c-0.03,0-0.07,0-0.09,0c-1.56,0-2.77,0.2-3.64,0.64c-0.87,0.44-1.58,1.17-2.09,2.15
	c-0.51,0.95-0.77,1.94-0.78,2.95c0,0.03,0,0.04,0,0.05c0,0.77,0.14,1.5,0.44,2.17c0.29,0.68,0.77,1.25,1.38,1.65
	c0.61,0.4,1.26,0.61,1.95,0.62h0.07l0.01,0c0.66-0.01,1.3-0.25,1.91-0.66c0.41-0.28,0.78-0.62,1.12-1.02
	c0.22,0.53,0.57,0.97,1.04,1.26c0.66,0.42,1.42,0.63,2.22,0.64h0.05l0.01,0c0.91-0.01,1.77-0.28,2.55-0.8
	c0.8-0.54,1.42-1.28,1.87-2.19c0.46-0.93,0.68-2,0.68-3.18v-0.02c0,0,0,0,0-0.02C24.31,10.42,23.93,8.91,23.16,7.56z M16.08,13.2
	c-0.75,1.08-1.36,1.77-1.81,2.09c-0.45,0.31-0.89,0.46-1.3,0.46c-0.36,0-0.69-0.16-1-0.48c-0.31-0.32-0.46-0.88-0.46-1.67
	c0-0.7,0.11-1.33,0.33-1.88c0.22-0.54,0.56-1.01,1.05-1.4c0.26-0.21,0.57-0.36,0.9-0.46c0.34-0.09,0.85-0.13,1.52-0.13l0.78,0
	L16.08,13.2z"/>
<rect x="-0.5" y="-0.5" fill="none" width="30" height="28"/>
</svg>
