<?xml version="1.0" encoding="iso-8859-1"?>
<!-- Generator: Adobe Illustrator 13.0.2, SVG Export Plug-In . SVG Version: 6.00 Build 14948)  -->
<!DOCTYPE svg PUBLIC "-//W3C//DTD SVG 1.1//EN" "http://www.w3.org/Graphics/SVG/1.1/DTD/svg11.dtd">
<svg version="1.1" id="Ebene_1" xmlns="http://www.w3.org/2000/svg" xmlns:xlink="http://www.w3.org/1999/xlink" x="0px" y="0px"
	 width="30px" height="28px" viewBox="0 0 30 28" enable-background="new 0 0 30 28" xml:space="preserve">
<path fill="#FFFFFF" d="M20.6,18.46c-0.03,0.04-0.06,0.08-0.09,0.11c-0.04,0.04-0.06,0.07-0.1,0.11c-8.41,10.29-14.02,5-14.76,4.41
	c-0.76-0.61-0.34-1.27-0.34-1.27l3.28-4.12c0.59-0.72,1.35-0.04,1.35-0.04l2.34,1.79c0,0,0.34,0.49,0.96,0.06
	c1.64-1.07,3.24-2.86,3.87-3.62c0.62-0.77,2.04-2.69,2.74-4.51c0.29-0.69-0.27-0.9-0.27-0.9l-2.3-1.85c0,0-0.84-0.58-0.25-1.3
	l3.36-4.06c0,0,0.57-0.55,1.33,0.05C22.44,3.9,28.93,8.11,20.6,18.46z"/>
</svg>
