<?xml version="1.0" encoding="iso-8859-1"?>
<!-- Generator: Adobe Illustrator 14.0.0, SVG Export Plug-In . SVG Version: 6.00 Build 43363)  -->
<!DOCTYPE svg PUBLIC "-//W3C//DTD SVG 1.1//EN" "http://www.w3.org/Graphics/SVG/1.1/DTD/svg11.dtd">
<svg version="1.1" id="Ebene_1" xmlns="http://www.w3.org/2000/svg" xmlns:xlink="http://www.w3.org/1999/xlink" x="0px" y="0px"
	 width="30px" height="28px" viewBox="0 0 30 28" enable-background="new 0 0 30 28" xml:space="preserve">
<g>
	<path fill="#333333" d="M6,7v14h18V7H6z M18.39,14.1l3.92,4.23c0.18,0.19,0.18,0.51,0,0.7l-0.24,0.26
		c-0.09,0.09-0.2,0.14-0.31,0.14c-0.12,0-0.23-0.05-0.31-0.14l-3.92-4.22l-0.15-0.15l-0.15,0.15l-1.86,2
		c-0.08,0.09-0.19,0.14-0.31,0.14c-0.12,0-0.23-0.05-0.31-0.14l-1.86-2l-0.15-0.15l-0.15,0.15l-3.92,4.22
		c-0.08,0.09-0.2,0.14-0.31,0.14c-0.12,0-0.23-0.05-0.31-0.14L7.8,19.02c-0.18-0.19-0.18-0.51,0-0.7l3.93-4.24l0.14-0.14l-0.14-0.14
		L7.8,9.58c-0.17-0.19-0.17-0.51,0-0.7L8.05,8.6c0.08-0.08,0.2-0.13,0.31-0.13c0.12,0,0.23,0.05,0.31,0.14l6.24,6.73l0.15,0.15
		l0.15-0.15l6.24-6.73c0.09-0.09,0.2-0.14,0.31-0.14c0.12,0,0.23,0.05,0.31,0.14l0.24,0.26c0.18,0.19,0.18,0.51,0,0.7l-3.93,4.23
		l-0.14,0.14L18.39,14.1z"/>
</g>
</svg>
