<?xml version="1.0" encoding="iso-8859-1"?>
<!-- Generator: Adobe Illustrator 13.0.2, SVG Export Plug-In . SVG Version: 6.00 Build 14948)  -->
<!DOCTYPE svg PUBLIC "-//W3C//DTD SVG 1.1//EN" "http://www.w3.org/Graphics/SVG/1.1/DTD/svg11.dtd">
<svg version="1.1" id="Ebene_1" xmlns="http://www.w3.org/2000/svg" xmlns:xlink="http://www.w3.org/1999/xlink" x="0px" y="0px"
	 width="30px" height="28px" viewBox="0 0 30 28" enable-background="new 0 0 30 28" xml:space="preserve">
<g>
	<path fill="#333333" d="M20.71,18.47c-0.03,0.04-0.06,0.08-0.09,0.11c-0.04,0.04-0.06,0.07-0.1,0.11
		c-8.58,10.32-14.3,5.02-15.05,4.42c-0.78-0.61-0.35-1.27-0.35-1.27l3.34-4.13c0.6-0.72,1.38-0.04,1.38-0.04l2.39,1.8
		c0,0,0.35,0.49,0.98,0.06c1.67-1.07,3.3-2.87,3.95-3.63c0.63-0.77,2.08-2.7,2.79-4.52c0.3-0.69-0.27-0.9-0.27-0.9l-2.35-1.86
		c0,0-0.86-0.58-0.25-1.3l3.43-4.07c0,0,0.58-0.55,1.36,0.05C22.59,3.87,29.21,8.1,20.71,18.47z"/>
</g>
</svg>
