<?xml version="1.0" encoding="iso-8859-1"?>
<!-- Generator: Adobe Illustrator 14.0.0, SVG Export Plug-In . SVG Version: 6.00 Build 43363)  -->
<!DOCTYPE svg PUBLIC "-//W3C//DTD SVG 1.1//EN" "http://www.w3.org/Graphics/SVG/1.1/DTD/svg11.dtd">
<svg version="1.1" id="Ebene_1" xmlns="http://www.w3.org/2000/svg" xmlns:xlink="http://www.w3.org/1999/xlink" x="0px" y="0px"
	 width="30px" height="28px" viewBox="0 0 30 28" enable-background="new 0 0 30 28" xml:space="preserve">
<path fill="#333333" d="M23.89,8.28c-0.75-1.31-1.81-2.36-3.16-3.12c-1.37-0.77-3-1.15-4.88-1.16c-0.02,0-0.05,0-0.07,0
	c-2,0-3.73,0.42-5.19,1.26C9.11,6.1,7.97,7.32,7.18,8.89C6.4,10.44,6.01,12.11,6,13.91l0,0c0,0.05,0,0.08,0,0.1
	c0,1.78,0.38,3.47,1.14,5.03c0.78,1.59,1.92,2.83,3.41,3.68c1.48,0.85,3.11,1.28,4.86,1.28c0.02,0,0.02,0,0.04,0h0.01
	c1.6,0,3.13-0.38,4.56-1.12l0.22-0.11l0.01-2.79l-0.63,0.41c-1.42,0.91-2.8,1.37-4.19,1.37c-0.02,0-0.03,0-0.03,0
	c-1.15-0.01-2.32-0.33-3.53-0.99c-1.17-0.65-2.02-1.59-2.59-2.89c-0.57-1.31-0.85-2.64-0.85-4.03c0,0,0-0.01,0-0.03
	c0.01-1.44,0.32-2.76,0.92-3.97c0.6-1.2,1.46-2.08,2.61-2.71c1.14-0.62,2.39-0.93,3.77-0.93c0.01,0,0.02,0,0.04,0
	c1.29,0.01,2.47,0.29,3.56,0.85c1.08,0.56,1.91,1.32,2.49,2.31c0.57,0.98,0.87,2.1,0.87,3.4c0,0.03,0,0.04,0,0.04
	c-0.01,1.16-0.26,2.01-0.73,2.62c-0.48,0.64-0.97,0.89-1.5,0.89h-0.03c-0.36-0.01-0.59-0.12-0.83-0.4
	c-0.19-0.21-0.37-0.86-0.36-1.88c0-0.01,0-0.02,0-0.02l0.03-5.48l-2.7-0.01c-0.03,0-0.07,0-0.09,0c-1.51,0-2.68,0.19-3.53,0.62
	c-0.84,0.42-1.53,1.13-2.02,2.07c-0.49,0.91-0.75,1.87-0.76,2.84c0,0.03,0,0.04,0,0.05c0,0.74,0.14,1.45,0.43,2.09
	c0.28,0.66,0.75,1.21,1.34,1.59c0.59,0.39,1.22,0.59,1.89,0.6h0.07h0.01c0.64-0.01,1.26-0.24,1.85-0.63c0.4-0.27,0.76-0.6,1.09-0.98
	c0.21,0.51,0.55,0.93,1.01,1.21c0.64,0.41,1.38,0.61,2.15,0.62h0.05h0.01c0.88-0.01,1.71-0.27,2.47-0.77
	c0.78-0.52,1.38-1.23,1.81-2.11c0.45-0.9,0.66-1.93,0.66-3.06v-0.02c0,0,0,0,0-0.02C25,11.03,24.63,9.58,23.89,8.28z M17.03,13.71
	c-0.73,1.04-1.32,1.71-1.75,2.01c-0.44,0.3-0.86,0.44-1.26,0.44c-0.35,0-0.67-0.15-0.97-0.46c-0.3-0.31-0.45-0.85-0.45-1.61
	c0-0.67,0.11-1.28,0.32-1.81c0.21-0.52,0.54-0.97,1.02-1.35c0.25-0.2,0.55-0.35,0.87-0.44c0.33-0.09,0.82-0.13,1.47-0.13h0.76
	L17.03,13.71z"/>
</svg>
