<?xml version="1.0" encoding="utf-8"?>
<!-- Generator: Adobe Illustrator 14.0.0, SVG Export Plug-In . SVG Version: 6.00 Build 43363)  -->
<!DOCTYPE svg PUBLIC "-//W3C//DTD SVG 1.1//EN" "http://www.w3.org/Graphics/SVG/1.1/DTD/svg11.dtd">
<svg version="1.1" id="Ebene_1" xmlns="http://www.w3.org/2000/svg" xmlns:xlink="http://www.w3.org/1999/xlink" x="0px" y="0px"
	 width="32px" height="32px" viewBox="0 0 32 32" enable-background="new 0 0 32 32" xml:space="preserve">
<g>
	<g>
		<path fill="#333333" d="M13.164,9.959c2.25,0,4.083-1.846,4.083-4.106c0-2.264-1.821-4.107-4.083-4.107
			c-2.261,0-4.08,1.843-4.08,4.107C9.084,8.113,10.916,9.959,13.164,9.959z"/>
		<path fill="#333333" d="M11.125,24.402c0-4.359,3.307-7.949,7.548-8.398c-1.115-2.873-3.165-4.808-5.509-4.808
			c-3.538,0-6.419,4.398-6.419,9.806c0,2.13,1.992,3.418,4.403,3.87C11.139,24.717,11.125,24.563,11.125,24.402z"/>
	</g>
	<path fill="#333333" d="M24.888,20.753c-0.475-0.834-1.149-1.506-2.002-1.989c-0.867-0.49-1.905-0.729-3.097-0.736
		c-0.014,0-0.032,0-0.043,0c-1.267,0-2.367,0.264-3.293,0.802c-0.934,0.537-1.659,1.317-2.156,2.312
		c-0.498,0.991-0.743,2.06-0.75,3.207l0,0c0,0.032,0,0.049,0,0.063c0,1.137,0.239,2.211,0.726,3.209
		c0.492,1.012,1.216,1.804,2.163,2.345c0.938,0.54,1.972,0.817,3.077,0.817c0.012,0,0.012,0,0.022,0h0.006
		c1.017,0,1.984-0.24,2.896-0.711l0.142-0.069l0.005-1.781l-0.396,0.259c-0.898,0.582-1.776,0.871-2.661,0.871
		c-0.012,0-0.019,0-0.019,0c-0.73-0.005-1.476-0.207-2.236-0.633c-0.743-0.41-1.284-1.015-1.641-1.843
		c-0.361-0.835-0.541-1.685-0.541-2.567c0,0,0-0.008,0-0.02c0.008-0.921,0.204-1.762,0.584-2.531
		c0.382-0.766,0.928-1.326,1.652-1.724c0.728-0.396,1.517-0.591,2.389-0.591c0.009,0,0.016,0,0.026,0
		c0.817,0.004,1.565,0.183,2.259,0.541c0.688,0.354,1.21,0.842,1.581,1.475c0.361,0.626,0.552,1.34,0.552,2.169
		c0,0.017,0,0.024,0,0.024c-0.006,0.734-0.166,1.281-0.461,1.67c-0.306,0.406-0.613,0.565-0.951,0.565h-0.019
		c-0.228-0.007-0.375-0.073-0.529-0.259c-0.122-0.138-0.231-0.549-0.227-1.197c0-0.008,0-0.013,0-0.013l0.018-3.494l-1.713-0.009
		c-0.019,0-0.043,0-0.057,0c-0.957,0-1.7,0.124-2.235,0.393c-0.534,0.271-0.971,0.721-1.283,1.321
		c-0.313,0.584-0.473,1.192-0.479,1.813c0,0.017,0,0.023,0,0.029c0,0.475,0.086,0.922,0.271,1.334
		c0.179,0.415,0.474,0.766,0.848,1.014c0.375,0.244,0.773,0.375,1.197,0.38h0.043h0.008c0.405-0.005,0.798-0.153,1.174-0.406
		c0.25-0.172,0.479-0.38,0.687-0.625c0.138,0.326,0.352,0.595,0.641,0.772c0.404,0.259,0.872,0.388,1.361,0.395h0.032h0.006
		c0.559-0.007,1.087-0.172,1.565-0.491c0.493-0.333,0.873-0.786,1.147-1.346c0.284-0.572,0.42-1.229,0.42-1.954v-0.014
		c0,0,0,0,0-0.01C25.594,22.511,25.362,21.582,24.888,20.753z M20.54,24.219c-0.462,0.663-0.837,1.09-1.111,1.283
		c-0.276,0.189-0.547,0.284-0.8,0.284c-0.221,0-0.423-0.099-0.613-0.298c-0.189-0.193-0.282-0.54-0.282-1.023
		c0-0.431,0.066-0.816,0.202-1.154c0.136-0.332,0.344-0.621,0.646-0.861c0.157-0.127,0.352-0.221,0.553-0.28
		c0.209-0.058,0.521-0.081,0.936-0.081h0.479L20.54,24.219z"/>
</g>
</svg>
