<?xml version="1.0" encoding="utf-8"?>
<!-- Generator: Adobe Illustrator 14.0.0, SVG Export Plug-In . SVG Version: 6.00 Build 43363)  -->
<!DOCTYPE svg PUBLIC "-//W3C//DTD SVG 1.1//EN" "http://www.w3.org/Graphics/SVG/1.1/DTD/svg11.dtd">
<svg version="1.1" id="Ebene_1" xmlns="http://www.w3.org/2000/svg" xmlns:xlink="http://www.w3.org/1999/xlink" x="0px" y="0px"
	 width="32px" height="32px" viewBox="0 0 32 32" enable-background="new 0 0 32 32" xml:space="preserve">
<g>
	<rect x="0" fill="none" width="32" height="32"/>
	<rect x="0" fill="none" width="32" height="32"/>
	<rect x="3.69" y="3.69" fill="none" width="24.62" height="24.621"/>
	<path fill="#B4101D" d="M16,13.3c2.17,0,3.92-2.01,3.92-4.17S18.16,5.22,16,5.22s-3.92,1.75-3.92,3.91S13.83,13.3,16,13.3z
		 M16,14.47c-3.399,0-6.17,4.171-6.17,9.32s12.33,5.149,12.33,0C22.17,18.65,19.41,14.47,16,14.47z M10.53,8.51H7.25v1.64h3.28V8.51
		z M11.38,5.47l-2.81-1.7l-0.85,1.4l2.81,1.7L11.38,5.47z M24.28,5.17l-0.85-1.4l-2.811,1.7l0.851,1.4L24.28,5.17z M10.53,11.79
		L7.76,13.54l0.87,1.39l2.78-1.75L10.53,11.79z M21.47,8.51v1.64h3.279V8.51H21.47z M20.59,13.18l2.78,1.75l0.87-1.39l-2.77-1.75
		L20.59,13.18z"/>
</g>
</svg>
