<?xml version="1.0" encoding="iso-8859-1"?>
<!-- Generator: Adobe Illustrator 13.0.0, SVG Export Plug-In . SVG Version: 6.00 Build 14948)  -->
<!DOCTYPE svg PUBLIC "-//W3C//DTD SVG 1.1//EN" "http://www.w3.org/Graphics/SVG/1.1/DTD/svg11.dtd">
<svg version="1.1" id="Ebene_1" xmlns="http://www.w3.org/2000/svg" xmlns:xlink="http://www.w3.org/1999/xlink" x="0px" y="0px"
	 width="32px" height="32px" viewBox="0 0 32 32" enable-background="new 0 0 32 32" xml:space="preserve">
<rect x="0" y="0" fill="none" width="32" height="32"/>
<rect x="3.66" y="3.66" fill="none" width="24.69" height="24.69"/>
<path fill="#B4101D" d="M27.91,13.93c-1.06,0-1.97,0.64-2.37,1.55h-3.33c-0.4,0-0.77,0.23-0.94,0.6l-2.44,5.24l-3.9-13.88
	c-0.12-0.41-0.47-0.7-0.89-0.75c-0.42-0.05-0.83,0.17-1.03,0.55l-4.37,8.25H6.46c-0.4-0.91-1.31-1.55-2.37-1.55
	c-1.43,0-2.59,1.16-2.59,2.59c0,1.43,1.16,2.59,2.59,2.59c1.06,0,1.97-0.64,2.37-1.55h2.81c0.38,0,0.73-0.21,0.91-0.55l3.45-6.52
	l3.96,14.08c0.12,0.42,0.48,0.72,0.91,0.75c0.03,0,0.05,0,0.08,0c0.4,0,0.77-0.23,0.94-0.6l3.34-7.17h2.67
	c0.4,0.91,1.31,1.55,2.37,1.55c1.43,0,2.59-1.16,2.59-2.59C30.5,15.09,29.34,13.93,27.91,13.93z"/>
</svg>
