<?xml version="1.0" encoding="iso-8859-1"?>
<!-- Generator: Adobe Illustrator 13.0.2, SVG Export Plug-In . SVG Version: 6.00 Build 14948)  -->
<!DOCTYPE svg PUBLIC "-//W3C//DTD SVG 1.1//EN" "http://www.w3.org/Graphics/SVG/1.1/DTD/svg11.dtd">
<svg version="1.1" id="Ebene_1" xmlns="http://www.w3.org/2000/svg" xmlns:xlink="http://www.w3.org/1999/xlink" x="0px" y="0px"
	 width="32px" height="32px" viewBox="0 0 32 32" enable-background="new 0 0 32 32" xml:space="preserve">
<g>
	<g>
		<path fill="#B4101D" d="M15.94,5.05C10.11,5.3,6.9,10.6,6.75,16.01c-0.14,5.06,3.56,11.17,9.2,10.93
			c5.83-0.25,9.03-5.54,9.19-10.96C24.99,10.93,21.77,4.8,15.94,5.05 M21.47,23.71c-0.94-3.25-3.05-5.52-5.53-5.52
			c-2.48,0-4.6,2.3-5.53,5.57c-1.72-2.18-2.59-5.27-2.66-7.78C7.61,11.1,10.97,5.23,16.44,5.47c5.13,0.22,7.58,6.24,7.7,10.54
			C24.06,18.67,23.17,21.61,21.47,23.71"/>
		<path fill="#B4101D" d="M15.94,17.02c2.12,0,3.85-1.73,3.85-3.87c0-2.14-1.72-3.87-3.85-3.87c-2.12,0-3.84,1.73-3.84,3.87
			C12.1,15.29,13.82,17.02,15.94,17.02"/>
	</g>
</g>
</svg>
