<?xml version="1.0" encoding="utf-8"?>
<!-- Generator: Adobe Illustrator 14.0.0, SVG Export Plug-In . SVG Version: 6.00 Build 43363)  -->
<!DOCTYPE svg PUBLIC "-//W3C//DTD SVG 1.1//EN" "http://www.w3.org/Graphics/SVG/1.1/DTD/svg11.dtd">
<svg version="1.1" id="Ebene_1" xmlns="http://www.w3.org/2000/svg" xmlns:xlink="http://www.w3.org/1999/xlink" x="0px" y="0px"
	 width="32px" height="32px" viewBox="0 0 32 32" enable-background="new 0 0 32 32" xml:space="preserve">
<rect x="0" fill="none" width="32" height="32"/>
<rect x="3.66" y="3.66" fill="none" width="24.69" height="24.689"/>
<path fill="#333333" d="M27.91,13.93c-1.06,0-1.97,0.64-2.37,1.55h-3.33c-0.399,0-0.77,0.23-0.939,0.6l-2.44,5.24L14.93,7.44
	c-0.12-0.41-0.471-0.7-0.891-0.75c-0.42-0.05-0.83,0.17-1.03,0.55L8.64,15.49H6.46c-0.399-0.91-1.31-1.55-2.37-1.55
	c-1.43,0-2.59,1.16-2.59,2.59c0,1.43,1.16,2.59,2.59,2.59c1.061,0,1.971-0.64,2.37-1.55H9.27c0.38,0,0.729-0.211,0.91-0.551
	l3.449-6.52l3.96,14.08c0.12,0.42,0.48,0.72,0.91,0.75c0.03,0,0.05,0,0.08,0c0.4,0,0.771-0.23,0.94-0.6l3.34-7.17h2.67
	c0.4,0.909,1.31,1.549,2.37,1.549c1.43,0,2.59-1.159,2.59-2.59C30.5,15.09,29.34,13.93,27.91,13.93z"/>
</svg>
