<?xml version="1.0" encoding="iso-8859-1"?>
<!-- Generator: Adobe Illustrator 13.0.0, SVG Export Plug-In . SVG Version: 6.00 Build 14948)  -->
<!DOCTYPE svg PUBLIC "-//W3C//DTD SVG 1.1//EN" "http://www.w3.org/Graphics/SVG/1.1/DTD/svg11.dtd">
<svg version="1.1" id="Ebene_1" xmlns="http://www.w3.org/2000/svg" xmlns:xlink="http://www.w3.org/1999/xlink" x="0px" y="0px"
	 width="32px" height="32px" viewBox="0 0 32 32" enable-background="new 0 0 32 32" xml:space="preserve">
<rect fill="none" width="32" height="32"/>
<rect x="3.69" y="3.69" fill="none" width="24.62" height="24.62"/>
<path fill="#B4101D" d="M19.12,13.19c-0.88,0-1.7,0.33-2.42,0.9c2.39,1.72,4.02,5.21,4.02,9.35c0,0.39-0.05,0.77-0.14,1.12
	c2.1-0.33,3.86-1.42,3.86-3.25C24.43,16.82,22.06,13.19,19.12,13.19z M18.04,11.97c0.34,0.12,0.71,0.19,1.09,0.19
	c1.87,0,3.38-1.53,3.38-3.4c0-1.88-1.51-3.41-3.38-3.41c-0.74,0-1.41,0.24-1.96,0.64c0.88,0.95,1.43,2.24,1.43,3.64
	C18.58,10.47,18.39,11.27,18.04,11.97z M13.28,14.5c-3.22,0-5.84,4.01-5.84,8.93s11.69,4.94,11.69,0S16.5,14.5,13.28,14.5z
	 M13.28,13.37c2.05,0,3.72-1.68,3.72-3.74s-1.67-3.75-3.72-3.75c-2.05,0-3.72,1.68-3.72,3.75S11.22,13.37,13.28,13.37z"/>
</svg>
