<?xml version="1.0" encoding="iso-8859-1"?>
<!-- Generator: Adobe Illustrator 14.0.0, SVG Export Plug-In . SVG Version: 6.00 Build 43363)  -->
<!DOCTYPE svg PUBLIC "-//W3C//DTD SVG 1.1 Basic//EN" "http://www.w3.org/Graphics/SVG/1.1/DTD/svg11-basic.dtd">
<svg version="1.1" baseProfile="basic" id="Ebene_1"
	 xmlns="http://www.w3.org/2000/svg" xmlns:xlink="http://www.w3.org/1999/xlink" x="0px" y="0px" width="32px" height="32px"
	 viewBox="0 0 32 32" xml:space="preserve">
<g>
	<path fill="#FFFFFF" d="M16,13c2.21,0,4-1.98,4-4.13C20,6.73,18.2,5,16,5s-4,1.73-4,3.87C12,11.02,13.79,13,16,13z"/>
	<path fill="#FFFFFF" d="M16,14c-3.5,0-6.34,4.43-6.34,9.89c0,5.46,12.68,5.46,12.68,0C22.34,18.43,19.5,14,16,14z"/>
	<polygon fill="#FFFFFF" points="10.37,8.31 7,8.31 7,10 10.38,10 10.38,8.31 	"/>
	<polygon fill="#FFFFFF" points="11.25,5.17 8.36,3.43 7.49,4.87 10.38,6.62 	"/>
	
		<rect x="21.79" y="3.34" transform="matrix(0.5168 0.8561 -0.8561 0.5168 15.2379 -16.9458)" fill="#FFFFFF" width="1.68" height="3.38"/>
	<polygon fill="#FFFFFF" points="10.37,11.68 7.52,13.48 8.42,14.91 11.28,13.11 	"/>
	<rect x="21.62" y="8.31" fill="#FFFFFF" width="3.38" height="1.69"/>
	<polygon fill="#FFFFFF" points="20.72,13.11 23.58,14.91 24.48,13.48 21.63,11.68 	"/>
</g>
</svg>
