<?xml version="1.0" encoding="iso-8859-1"?>
<!-- Generator: Adobe Illustrator 13.0.2, SVG Export Plug-In . SVG Version: 6.00 Build 14948)  -->
<!DOCTYPE svg PUBLIC "-//W3C//DTD SVG 1.1//EN" "http://www.w3.org/Graphics/SVG/1.1/DTD/svg11.dtd">
<svg version="1.1" id="Ebene_1" xmlns="http://www.w3.org/2000/svg" xmlns:xlink="http://www.w3.org/1999/xlink" x="0px" y="0px"
	 width="28px" height="28px" viewBox="0 0 28 28" enable-background="new 0 0 28 28" xml:space="preserve">
<g>
	<g>
		<path fill="#333333" d="M5,7v14h18V7H5z M17.4,14.09l3.92,4.22c0.18,0.18,0.18,0.51,0,0.7l-0.24,0.27
			c-0.08,0.09-0.19,0.14-0.31,0.14c-0.12,0-0.23-0.05-0.32-0.14l-3.92-4.23l-0.15-0.15l-0.15,0.15l-1.86,2
			c-0.08,0.09-0.19,0.14-0.31,0.14c-0.11,0-0.23-0.05-0.31-0.14l-1.86-2l-0.14-0.15l-0.15,0.15l-3.92,4.23
			c-0.08,0.09-0.2,0.14-0.31,0.14c-0.12,0-0.23-0.05-0.32-0.14l-0.24-0.27c-0.18-0.2-0.18-0.5,0-0.7l3.92-4.24l0.14-0.14l-0.14-0.14
			L6.81,9.58c-0.18-0.19-0.18-0.5,0-0.7l0.24-0.27c0.08-0.08,0.19-0.14,0.31-0.14c0.11,0,0.23,0.05,0.31,0.14l6.24,6.73l0.15,0.16
			l0.15-0.16l6.24-6.73c0.08-0.08,0.19-0.14,0.31-0.14c0.11,0,0.23,0.05,0.31,0.14l0.24,0.27c0.18,0.2,0.18,0.5,0,0.7l-3.92,4.24
			l-0.14,0.14L17.4,14.09z"/>
	</g>
</g>
</svg>
