<?xml version="1.0" encoding="iso-8859-1"?>
<!-- Generator: Adobe Illustrator 13.0.2, SVG Export Plug-In . SVG Version: 6.00 Build 14948)  -->
<!DOCTYPE svg PUBLIC "-//W3C//DTD SVG 1.1//EN" "http://www.w3.org/Graphics/SVG/1.1/DTD/svg11.dtd">
<svg version="1.1" id="Ebene_1" xmlns="http://www.w3.org/2000/svg" xmlns:xlink="http://www.w3.org/1999/xlink" x="0px" y="0px"
	 width="28px" height="28px" viewBox="0 0 28 28" enable-background="new 0 0 28 28" xml:space="preserve">
<g>
	<path fill="#333333" d="M16.79,16.25c-0.35-0.36-1.25-1.29-1.25-1.29l3.31-3.46l0.42,0.42c1.85-5.08-1.47-7.31-1.95-7.69
		c-0.62-0.5-1.07-0.04-1.07-0.04l-2.71,3.35c-0.47,0.59,0.2,1.07,0.2,1.07l1.86,1.53c0,0,0.46,0.18,0.22,0.74
		c-0.57,1.5-1.71,3.08-2.21,3.72c-0.31,0.38-0.92,1.08-1.63,1.77h4.72C16.72,16.35,16.75,16.3,16.79,16.25z M11.44,16.86
		c-0.31,0.27-0.64,0.52-0.96,0.73c-0.5,0.35-0.78-0.05-0.78-0.05l-1.88-1.47c0,0-0.62-0.55-1.09,0.03L4.1,19.5
		c0,0-0.34,0.54,0.27,1.04c0.45,0.36,3.09,2.89,7.24,0.6c-0.1,0-0.16,0-0.16,0V16.86z M18.85,13.53l-1.36,1.42l2.79,2.86h-7.44v1.91
		h7.44l-2.79,2.86L18.85,24L24,18.76L18.85,13.53z"/>
</g>
</svg>
