<?xml version="1.0" encoding="iso-8859-1"?>
<!-- Generator: Adobe Illustrator 13.0.2, SVG Export Plug-In . SVG Version: 6.00 Build 14948)  -->
<!DOCTYPE svg PUBLIC "-//W3C//DTD SVG 1.1//EN" "http://www.w3.org/Graphics/SVG/1.1/DTD/svg11.dtd">
<svg version="1.1" id="Ebene_1" xmlns="http://www.w3.org/2000/svg" xmlns:xlink="http://www.w3.org/1999/xlink" x="0px" y="0px"
	 width="28px" height="28px" viewBox="0 0 28 28" enable-background="new 0 0 28 28" xml:space="preserve">
<g>
	<path fill="#FFFFFF" d="M12.44,16.65h5.33l-2.65-2.77l-0.13-0.13l-0.13,0.13l-1.63,1.7c-0.07,0.08-0.17,0.12-0.27,0.12
		c-0.1,0-0.2-0.04-0.27-0.12l-1.63-1.7l-0.12-0.13l-0.13,0.13l-3.45,3.6c-0.07,0.08-0.17,0.12-0.27,0.12s-0.2-0.04-0.28-0.12
		l-0.21-0.22c-0.16-0.17-0.16-0.43,0-0.6l3.45-3.62l0.12-0.12l-0.12-0.12L6.58,9.2c-0.16-0.16-0.16-0.43,0-0.6l0.21-0.23
		C6.88,8.3,6.97,8.26,7.08,8.26c0.1,0,0.2,0.04,0.28,0.12l5.49,5.75l0.13,0.14l0.13-0.14l5.48-5.75c0.07-0.07,0.17-0.12,0.27-0.12
		c0.1,0,0.2,0.04,0.27,0.12l0.21,0.22c0.16,0.17,0.16,0.43,0,0.6l-3.45,3.62l-0.12,0.12l0.12,0.12l1.4,1.46l2.55-2.58l0.99,0.96V7H5
		v11.95h7.44V16.65z"/>
	<path fill="#FFFFFF" d="M19.85,13.89l-1.36,1.37l2.79,2.76h-7.44v1.84h7.44l-2.79,2.76L19.85,24L25,18.94L19.85,13.89z"/>
</g>
</svg>
