<?xml version="1.0" encoding="iso-8859-1"?>
<!-- Generator: Adobe Illustrator 13.0.2, SVG Export Plug-In . SVG Version: 6.00 Build 14948)  -->
<!DOCTYPE svg PUBLIC "-//W3C//DTD SVG 1.1//EN" "http://www.w3.org/Graphics/SVG/1.1/DTD/svg11.dtd">
<svg version="1.1" id="Ebene_1" xmlns="http://www.w3.org/2000/svg" xmlns:xlink="http://www.w3.org/1999/xlink" x="0px" y="0px"
	 width="28px" height="28px" viewBox="0 0 28 28" enable-background="new 0 0 28 28" xml:space="preserve">
<g>
	<g>
		<path fill="#FFFFFF" d="M16.11,16.04l3.08-3.06l1.26,1.21c0.63-0.87,0.96-1.79,0.96-2.57c0-7.49-16.46-7.49-16.46,0
			c0,1.79,1.13,3.38,2.88,4.46l-1.24,4.97c0,0,3.85-3.88,4.14-3.82c0.16,0.04,0.48,0.11,0.48,0.11c2.26,0.33,4.18,0.06,5.71-0.53
			L16.11,16.04z M7.97,12.26v-1.26h10.4v1.26H7.97z"/>
		<polygon fill="#FFFFFF" points="19.2,14.77 17.93,16.03 20.53,18.54 13.6,18.54 13.6,20.22 20.53,20.22 17.93,22.74 19.2,24 
			24,19.39 		"/>
	</g>
</g>
</svg>
