<?xml version="1.0" encoding="iso-8859-1"?>
<!-- Generator: Adobe Illustrator 13.0.2, SVG Export Plug-In . SVG Version: 6.00 Build 14948)  -->
<!DOCTYPE svg PUBLIC "-//W3C//DTD SVG 1.1//EN" "http://www.w3.org/Graphics/SVG/1.1/DTD/svg11.dtd">
<svg version="1.1" id="Ebene_1" xmlns="http://www.w3.org/2000/svg" xmlns:xlink="http://www.w3.org/1999/xlink" x="0px" y="0px"
	 width="28px" height="28px" viewBox="0 0 28 28" enable-background="new 0 0 28 28" xml:space="preserve">
<path fill="#333333" d="M15.81,14.81l-0.7-0.75l-0.13-0.13l-0.13,0.13l-1.63,1.75c-0.07,0.08-0.17,0.12-0.27,0.12
	c-0.1,0-0.2-0.04-0.27-0.12l-1.63-1.75l-0.12-0.13l-0.13,0.13l-3.45,3.7c-0.07,0.08-0.17,0.12-0.27,0.12s-0.2-0.04-0.28-0.12
	l-0.21-0.23c-0.16-0.17-0.16-0.44,0-0.61l3.45-3.71l0.12-0.12l-0.12-0.12L6.58,9.26c-0.16-0.16-0.16-0.44,0-0.61l0.21-0.23
	c0.07-0.07,0.17-0.12,0.27-0.12c0.1,0,0.2,0.04,0.28,0.12l5.48,5.9l0.13,0.13l0.13-0.13l5.48-5.9c0.07-0.07,0.17-0.12,0.27-0.12
	c0.1,0,0.2,0.04,0.27,0.12l0.22,0.23c0.16,0.17,0.16,0.44,0,0.61l-3.44,3.71l-0.12,0.12l0.12,0.12L16.62,14L19,11.6l2,1.88V7H5v12h7
	l-0.14-0.2L15.81,14.81z M25,17.86h-7.44l2.78-2.83l-1.36-1.41l-5.15,5.19L18.99,24l1.36-1.43l-2.79-2.83h7.43v-1.88H25z"/>
</svg>
