<?xml version="1.0" encoding="iso-8859-1"?>
<!-- Generator: Adobe Illustrator 13.0.2, SVG Export Plug-In . SVG Version: 6.00 Build 14948)  -->
<!DOCTYPE svg PUBLIC "-//W3C//DTD SVG 1.1//EN" "http://www.w3.org/Graphics/SVG/1.1/DTD/svg11.dtd">
<svg version="1.1" id="Ebene_1" xmlns="http://www.w3.org/2000/svg" xmlns:xlink="http://www.w3.org/1999/xlink" x="0px" y="0px"
	 width="28px" height="28px" viewBox="0 0 28 28" enable-background="new 0 0 28 28" xml:space="preserve">
<g>
	<path fill="#FFFFFF" d="M18.35,17.36c-0.02,0.03-0.05,0.06-0.08,0.1c-0.03,0.03-0.05,0.07-0.09,0.1
		c-7.29,8.91-12.15,4.32-12.8,3.82c-0.66-0.52-0.29-1.09-0.29-1.09l2.84-3.58c0.51-0.63,1.17-0.03,1.17-0.03l2.03,1.55
		c0,0,0.29,0.42,0.83,0.06c1.42-0.93,2.81-2.48,3.35-3.14c0.53-0.67,1.77-2.33,2.38-3.91c0.25-0.6-0.24-0.78-0.24-0.78l-1.99-1.6
		c0,0-0.73-0.51-0.22-1.13l2.92-3.52c0,0,0.5-0.48,1.15,0.04C19.95,4.75,25.58,8.4,18.35,17.36z"/>
</g>
</svg>
