<?xml version="1.0" encoding="iso-8859-1"?>
<!-- Generator: Adobe Illustrator 13.0.2, SVG Export Plug-In . SVG Version: 6.00 Build 14948)  -->
<!DOCTYPE svg PUBLIC "-//W3C//DTD SVG 1.1//EN" "http://www.w3.org/Graphics/SVG/1.1/DTD/svg11.dtd">
<svg version="1.1" id="Ebene_1" xmlns="http://www.w3.org/2000/svg" xmlns:xlink="http://www.w3.org/1999/xlink" x="0px" y="0px"
	 width="28px" height="28px" viewBox="0 0 28 28" enable-background="new 0 0 28 28" xml:space="preserve">
<g>
	<g>
		<path fill="#FFFFFF" d="M19.1,7.92c-1.08,0-1.97,0.87-1.97,1.95c0,1.09,0.89,1.95,1.97,1.95c1.08,0,1.97-0.87,1.97-1.95
			C21.07,8.78,20.17,7.92,19.1,7.92z"/>
		<ellipse fill="#FFFFFF" cx="19.1" cy="5.22" rx="1.23" ry="1.22"/>
		<path fill="#FFFFFF" d="M23.27,7.44c0.48-0.48,0.48-1.25,0-1.72c-0.48-0.48-1.26-0.48-1.74,0c-0.48,0.48-0.48,1.25,0,1.73
			C22.01,7.92,22.79,7.92,23.27,7.44z"/>
		<ellipse fill="#FFFFFF" cx="23.77" cy="9.85" rx="1.23" ry="1.22"/>
		<path fill="#FFFFFF" d="M21.53,12.26c-0.48,0.48-0.48,1.25,0,1.72c0.48,0.48,1.26,0.48,1.74,0c0.48-0.48,0.48-1.25,0-1.73
			C22.79,11.79,22.01,11.79,21.53,12.26z"/>
		<ellipse fill="#FFFFFF" cx="19.1" cy="14.48" rx="1.23" ry="1.22"/>
		<path fill="#FFFFFF" d="M14.93,12.26c-0.48,0.48-0.48,1.25,0,1.73c0.48,0.48,1.26,0.48,1.74,0c0.48-0.48,0.48-1.25,0-1.73
			C16.19,11.79,15.41,11.79,14.93,12.26z"/>
		<ellipse fill="#FFFFFF" cx="14.43" cy="9.85" rx="1.23" ry="1.22"/>
		<path fill="#FFFFFF" d="M16.67,7.44c0.48-0.48,0.48-1.25,0-1.72c-0.48-0.48-1.26-0.48-1.74,0c-0.48,0.48-0.48,1.25,0,1.72
			C15.4,7.92,16.19,7.92,16.67,7.44z"/>
	</g>
	<path fill="#FFFFFF" d="M19.1,17.66c-1.11,0-2.09-0.56-2.67-1.42c-0.03,0-0.06,0-0.09,0.01l-0.71,0.74l-0.12,0.12l0.13,0.12
		l3.37,3.53c0.16,0.16,0.16,0.43,0,0.59l-0.21,0.22c-0.07,0.08-0.17,0.12-0.27,0.12c-0.1,0-0.2-0.04-0.28-0.12l-3.37-3.54
		l-0.13-0.12l-0.13,0.12l-1.59,1.67c-0.07,0.08-0.17,0.12-0.27,0.12c-0.1,0-0.2-0.04-0.27-0.12l-1.59-1.67l-0.12-0.12l-0.13,0.12
		L7.3,21.57c-0.07,0.08-0.17,0.12-0.27,0.12c-0.1,0-0.2-0.04-0.28-0.12l-0.21-0.22c-0.16-0.17-0.16-0.42,0-0.59l3.37-3.54l0.12-0.12
		l-0.12-0.12l-3.37-3.53c-0.16-0.16-0.16-0.42,0-0.58l0.21-0.22c0.07-0.07,0.17-0.12,0.27-0.12c0.1,0,0.2,0.04,0.27,0.12l5.36,5.63
		l0.13,0.14l0.13-0.14l2-2.1c-0.51-0.15-0.99-0.41-1.37-0.79c-0.79-0.78-1.07-1.87-0.87-2.88c-0.46-0.3-0.83-0.72-1.08-1.21H5V23
		h15.45v-5.66C20.04,17.53,19.58,17.66,19.1,17.66z"/>
</g>
</svg>
