<?xml version="1.0" encoding="iso-8859-1"?>
<!-- Generator: Adobe Illustrator 13.0.2, SVG Export Plug-In . SVG Version: 6.00 Build 14948)  -->
<!DOCTYPE svg PUBLIC "-//W3C//DTD SVG 1.1//EN" "http://www.w3.org/Graphics/SVG/1.1/DTD/svg11.dtd">
<svg version="1.1" id="Ebene_1" xmlns="http://www.w3.org/2000/svg" xmlns:xlink="http://www.w3.org/1999/xlink" x="0px" y="0px"
	 width="28px" height="28px" viewBox="0 0 28 28" enable-background="new 0 0 28 28" xml:space="preserve">
<g>
	<g>
		<g>
			<path fill="#333333" d="M23,16.16l-1.73-1.74l-3.02,3.05l-3.02-3.05l-1.73,1.74l3.03,3.05l-3.03,3.05L15.23,24l3.02-3.05
				L21.27,24L23,22.26l-3.03-3.05L23,16.16z"/>
		</g>
	</g>
	<g>
		<path fill="#333333" d="M13.57,8.46l1.82,1.47c0,0,0.45,0.17,0.22,0.72c-0.16,0.41-0.36,0.82-0.58,1.22l0.2-0.2l2.49,2.51
			c4.22-6.72-0.1-9.54-0.63-9.96c-0.59-0.48-1.05-0.04-1.05-0.04l-2.67,3.23C12.91,7.99,13.57,8.46,13.57,8.46z"/>
		<path fill="#333333" d="M11.15,16.55c-0.25,0.21-0.51,0.4-0.77,0.58c-0.5,0.34-0.76-0.05-0.76-0.05l-1.85-1.42
			c0,0-0.61-0.55-1.07,0.03l-2.6,3.29c0,0-0.34,0.53,0.27,1c0.52,0.4,3.96,3.66,9.26-0.94L11.15,16.55z"/>
	</g>
</g>
</svg>
